<svg width="617" height="1662" viewBox="0 0 617 1662" fill="none" xmlns="http://www.w3.org/2000/svg">
<g clip-path="url(#clip0)">
<path d="M436.46 980.43H432.51H391.32H387.37H346.22H342.23H301.08H297.13H255.94H251.99H206.85V1025.61V1029.51V1070.79V1074.7V1115.98V1119.88V1161.13V1165.06V1206.31V1210.21V1251.49V1255.39V1296.68V1300.58V1341.82V1345.76V1386.68V1390.91V1431.87V1435.77V1477.01V1480.95V1522.2V1526.1V1566.95V1571.28V1616.04H251.99H255.94H301.08V1571.28V1566.95V1526.1V1522.2V1480.95V1477.01V1435.77V1431.87V1390.91V1386.68V1345.76V1341.82V1300.58V1296.68V1255.39V1251.49V1210.21V1207.73H346.22V1165.06H387.37V1207.73H432.51V1210.21V1251.49V1255.39V1296.68V1300.58V1341.82V1345.76V1386.68V1390.91V1431.87V1435.77V1477.01V1480.95V1522.2V1526.1V1566.95V1571.28V1616.04H481.6V1571.28V1566.95V1526.1V1522.2V1480.95V1477.01V1435.77V1431.87V1390.91V1386.68V1345.76V1341.82V1300.58V1296.68V1255.39V1251.49V1210.21V1206.31V1165.06V1161.13V1119.88V1115.98V1074.7V1070.79V1029.51V1025.61V980.43H436.46Z" fill="#00D9DA" stroke="#00D9DA" stroke-miterlimit="10"/>
<path d="M251.99 1612.14H206.85V1661.22H251.99H255.94H301.08V1612.14H255.94H251.99Z" fill="#3F0071" stroke="#3F0071" stroke-miterlimit="10"/>
<path d="M481.6 1612.14H477.65H432.51V1661.22H477.65H481.6H526.74V1612.14H481.6Z" fill="#3F0071" stroke="#3F0071" stroke-miterlimit="10"/>
<path d="M526.9 981.01H477.81V1025.61H477.65V1070.79V1074.7V1115.98V1119.88V1161.13V1165.06V1206.31V1210.21V1251.49V1255.39V1296.68V1300.58V1341.82V1345.76V1386.68V1390.91V1431.87V1435.77V1477.01V1480.95V1522.2V1526.1V1566.95V1571.28V1616.04H526.74V1571.28V1566.95V1526.1V1522.2V1480.95V1477.01V1435.77V1431.87V1390.91V1386.68V1345.76V1341.82V1300.58V1296.68V1255.39V1251.49V1210.21V1206.31V1165.06V1161.13V1119.88V1115.98V1074.7V1070.79V1030.09H526.9V981.01Z" fill="#0095C7" stroke="#0095C7" stroke-miterlimit="10"/>
<path d="M161.71 1025.61H117.82V1074.7H161.71H166.91H210.79V1025.61H166.91H161.71Z" fill="#D75568" stroke="#D75568" stroke-miterlimit="10"/>
<path d="M571.84 1025.61H567.29H522.75V1074.7H567.29H571.84H616.37V1025.61H571.84Z" fill="#D75568" stroke="#D75568" stroke-miterlimit="10"/>
<path d="M161.71 665.66H117.82V710.8V714.75V755.99V759.89V800.41V805.08V844.92V849.5V890.1V894V935.28V939.18V980.43V984.37V1029.51H161.71H166.91H210.79V984.37V980.43V939.18V935.28V894V890.1V849.5V844.92V805.08V800.41V759.89V755.99V714.75V710.8V665.66H166.91H161.71Z" fill="#FF8B98" stroke="#FF8B98" stroke-miterlimit="10"/>
<path d="M571.84 665.66H567.29H522.75V710.8V714.75V755.99V759.89V800.41V805.08V844.92V849.5V890.1V894V935.28V939.18V980.43V984.37V1029.51H567.29H571.84H616.37V984.37V980.43V939.18V935.28V894V890.1V849.5V844.92V805.08V800.41V759.89V755.99V714.75V710.8V665.66H571.84Z" fill="#FF8B98" stroke="#FF8B98" stroke-miterlimit="10"/>
<path d="M571.839 530.11V485.56H526.739V484.96H477.649V530.11V534.05V575.29V579.19V620.48V624.38V665.66V669.57V710.8V714.75V755.99V759.89V800.41V805.08V844.92V849.5V890.1H432.509V935.28H387.369V984.37H432.509H436.459H477.649H481.599H526.739V939.18V935.28V894V890.1V849.5V844.92V805.08V800.41V759.89V755.99V714.75V710.8V669.57H567.289H571.839H616.369V624.38V620.48V579.19V575.29V530.11H571.839Z" fill="#002E73" stroke="#002E73" stroke-miterlimit="10"/>
<path d="M436.46 484.96H432.51H387.37V530.11H346.21V484.96H301.08H297.13H255.94H251.99H206.85V485.56H161.71V530.11H117.82V575.29V579.19V620.48V624.38V669.57H161.71H166.91H206.85V710.8V714.75V755.99V759.89V800.41V805.08V844.92V849.5V890.1V894V935.28V939.18V984.37H251.99H255.94H297.13H301.08H342.23H346.22H391.32V939.18H436.46V894H481.6V849.5V844.92V805.08V800.41V759.89V755.99V714.75V710.8V669.57V665.66V624.38V620.48V579.19V575.29V534.05V530.11V484.96H436.46Z" fill="#005E9E" stroke="#005E9E" stroke-miterlimit="10"/>
<path d="M240.439 339.6H191.359V388.68H240.439V339.6Z" fill="#FF8B98"/>
<path d="M337.32 242.73H288.23V291.82H337.32V242.73Z" fill="#FF8B98"/>
<path d="M337.32 194.28H288.23V243.36H337.32V194.28Z" fill="white"/>
<path d="M312.651 194.2H287.561V243H312.651V194.2Z" fill="black"/>
<path d="M191.35 194.28V242.73V243.36V291.82H240.44V243.36V242.73V194.28H191.35Z" fill="#D75568" stroke="#D75568" stroke-miterlimit="10"/>
<path d="M482.59 145.83H433.5V194.91H482.59V145.83Z" fill="#D75568"/>
<path d="M433.5 145.82V194.28H385.07V242.73V243.36V291.19V291.82V339.6V340.27V388.06V388.68V436.51H337.32H336.67H288.23V485.6H336.67H337.32H342.23V534.05H391.32V485.6H433.5H434.15H482.59V437.14V436.51V388.68V388.06V340.27V339.6V291.82V291.19V243.36V242.73V194.91V194.28V145.82H433.5Z" fill="#D75568" stroke="#D75568" stroke-miterlimit="10"/>
<path d="M337.321 48.95V0.5H288.881H288.231H240.441H239.791H191.351V48.95H142.961V98.04H191.351H192.041H239.791H240.441H288.231H288.881H336.671H337.321H385.751V48.95H337.321Z" fill="#2346FA" stroke="#2346FA" stroke-miterlimit="10"/>
<path d="M337.32 339.6H288.88V291.19H143V437H191.4V437.16H385.75V339.6H337.32ZM192 388.06V340.27H239.75V388.06H192Z" fill="#2346FA" stroke="#2346FA" stroke-miterlimit="10"/>
<path d="M385.75 145.83H143V194.91H239.83V291.82H288.27V340.27H385.79V194.91H434.19V145.83H385.75ZM336.67 194.91V242.73H288.88V194.91H336.67Z" fill="#FF8B98" stroke="#FF8B98" stroke-miterlimit="10"/>
<path d="M192.041 242.73H142.961V291.82H192.041V242.73Z" fill="#FF8B98" stroke="#FF8B98" stroke-miterlimit="10"/>
<path d="M192 194.28H143V243.36H192V194.28Z" fill="white"/>
<path d="M167.721 194.2H142.641V243H167.721V194.2Z" fill="black"/>
<path d="M434.15 97.41V48.95H385.75V0.5H336.67V49.59H385.07V97.41H337.32H336.67H288.88H288.23H240.44H239.79H192.04H191.35H144.34H142.96H96.96H95.26H49.59H47.88H0.5V146.5H47.88H49.59H95.26H96.96H142.96H144.34H191.35H192.04H239.79H240.44H288.23H288.88H336.67H337.32H385.07H385.75H433.5H434.15H482.59V97.41H434.15Z" fill="#0B2BD0" stroke="#0B2BD0" stroke-miterlimit="10"/>
</g>
<defs>
<clipPath id="clip0">
<rect width="616.87" height="1661.72" fill="white"/>
</clipPath>
</defs>
</svg>
