<svg width="748" height="384" viewBox="0 0 748 384" fill="none" xmlns="http://www.w3.org/2000/svg">
<path d="M40.8574 1.83276L40.8574 366.857" stroke="#B77FF8" stroke-width="18.4729"/>
<path d="M24.7108 354.704V350.255C24.7108 350.06 24.6595 349.906 24.5156 349.762L24.0327 349.279C23.8888 349.135 23.7141 349.053 23.5086 349.053H21.546C21.3405 349.053 21.1658 349.135 21.0219 349.279L20.539 349.762C20.3951 349.906 20.3437 350.06 20.3437 350.255V354.704C20.3437 354.899 20.3951 355.054 20.539 355.197L21.0219 355.68C21.1658 355.824 21.3405 355.906 21.546 355.906H23.5086C23.7141 355.906 23.8888 355.824 24.0327 355.68L24.5156 355.197C24.6595 355.054 24.7108 354.899 24.7108 354.704ZM23.8374 354.653C23.8374 354.715 23.8271 354.766 23.786 354.807L23.5497 355.043C23.5086 355.084 23.4572 355.105 23.3956 355.105H21.659C21.5974 355.105 21.546 355.084 21.5049 355.043L21.2685 354.807C21.2274 354.766 21.2172 354.715 21.2172 354.663V350.296C21.2172 350.245 21.2274 350.193 21.2685 350.152L21.5049 349.916C21.546 349.875 21.5974 349.854 21.659 349.854H23.3956C23.4572 349.854 23.5086 349.875 23.5497 349.916L23.786 350.152C23.8271 350.193 23.8374 350.245 23.8374 350.296V354.653Z" fill="white"/>
<path d="M5.58138 10V9.19851L2.0877 9.19851V7.99627C2.0877 7.91407 2.13907 7.84214 2.211 7.81131L5.16008 6.48577C5.42724 6.37274 5.58138 6.11585 5.58138 5.82813V4.34846C5.58138 4.15322 5.53 3.99909 5.38614 3.85523L4.90319 3.37228C4.75933 3.22842 4.58465 3.14622 4.37914 3.14622L2.41651 3.14622C2.211 3.14622 2.03632 3.22842 1.89246 3.37228L1.18345 4.08129L1.7486 4.63617L2.37541 4.00936C2.41651 3.96826 2.46789 3.94771 2.52954 3.94771L4.26611 3.94771C4.32776 3.94771 4.37914 3.96826 4.42024 4.00936L4.65658 4.2457C4.69768 4.2868 4.70796 4.33818 4.70796 4.38956V5.65345C4.70796 5.73565 4.65658 5.80758 4.58465 5.83841L1.63557 7.15368C1.36841 7.27698 1.21428 7.5236 1.21428 7.81131L1.21428 10L5.58138 10ZM12.0285 8.79776V6.93789C12.0285 6.74266 11.9771 6.60907 11.8332 6.46522L11.3503 5.98227C11.2064 5.83841 11.0317 5.7562 10.8262 5.7562H8.82251L8.82251 3.94771L11.7408 3.94771V3.14622L7.94909 3.14622V6.5577L10.7132 6.5577C10.7749 6.5577 10.8262 6.57825 10.8673 6.61935L11.1037 6.85569C11.1448 6.89679 11.1551 6.92761 11.1551 6.97899V8.75666C11.1551 8.80804 11.1448 8.85942 11.1037 8.90052L10.8673 9.13686C10.8262 9.17796 10.7749 9.19851 10.7132 9.19851H8.97664C8.91499 9.19851 8.86361 9.17796 8.82251 9.13686L8.1957 8.51005L7.63054 9.06493L8.33956 9.77394C8.48341 9.9178 8.6581 10 8.86361 10H10.8262C11.0317 10 11.2064 9.9178 11.3503 9.77394L11.8332 9.29099C11.9771 9.14713 12.0285 8.993 12.0285 8.79776ZM18.4756 8.79776V4.34846C18.4756 4.15322 18.4242 3.99909 18.2803 3.85523L17.7974 3.37228C17.6535 3.22842 17.4788 3.14622 17.2733 3.14622H15.3107C15.1052 3.14622 14.9305 3.22842 14.7867 3.37228L14.3037 3.85523C14.1598 3.99909 14.1085 4.15322 14.1085 4.34846L14.1085 8.79776C14.1085 8.993 14.1598 9.14713 14.3037 9.29099L14.7867 9.77394C14.9305 9.9178 15.1052 10 15.3107 10L17.2733 10C17.4788 10 17.6535 9.9178 17.7974 9.77394L18.2803 9.29099C18.4242 9.14713 18.4756 8.993 18.4756 8.79776ZM17.6021 8.74638C17.6021 8.80804 17.5919 8.85942 17.5508 8.90052L17.3144 9.13686C17.2733 9.17796 17.222 9.19851 17.1603 9.19851L15.4237 9.19851C15.3621 9.19851 15.3107 9.17796 15.2696 9.13686L15.0333 8.90052C14.9922 8.85942 14.9819 8.80804 14.9819 8.75666L14.9819 4.38956C14.9819 4.33818 14.9922 4.2868 15.0333 4.2457L15.2696 4.00936C15.3107 3.96826 15.3621 3.94771 15.4237 3.94771H17.1603C17.222 3.94771 17.2733 3.96826 17.3144 4.00936L17.5508 4.2457C17.5919 4.2868 17.6021 4.33818 17.6021 4.38956V8.74638ZM24.9227 8.79776V4.34846C24.9227 4.15322 24.8713 3.99909 24.7274 3.85523L24.2445 3.37228C24.1006 3.22842 23.9259 3.14622 23.7204 3.14622L21.7578 3.14622C21.5523 3.14622 21.3776 3.22842 21.2337 3.37228L20.7508 3.85523C20.6069 3.99909 20.5556 4.15322 20.5556 4.34846V8.79776C20.5556 8.993 20.6069 9.14713 20.7508 9.29099L21.2337 9.77394C21.3776 9.9178 21.5523 10 21.7578 10H23.7204C23.9259 10 24.1006 9.9178 24.2445 9.77394L24.7274 9.29099C24.8713 9.14713 24.9227 8.993 24.9227 8.79776ZM24.0492 8.74638C24.0492 8.80804 24.039 8.85942 23.9979 8.90052L23.7615 9.13686C23.7204 9.17796 23.669 9.19851 23.6074 9.19851H21.8708C21.8092 9.19851 21.7578 9.17796 21.7167 9.13686L21.4804 8.90052C21.4393 8.85942 21.429 8.80804 21.429 8.75666V4.38956C21.429 4.33818 21.4393 4.2868 21.4804 4.2457L21.7167 4.00936C21.7578 3.96826 21.8092 3.94771 21.8708 3.94771L23.6074 3.94771C23.669 3.94771 23.7204 3.96826 23.7615 4.00936L23.9979 4.2457C24.039 4.2868 24.0492 4.33818 24.0492 4.38956V8.74638Z" fill="white"/>
<path d="M5.58138 78V77.1985H2.0877V75.9963C2.0877 75.9141 2.13907 75.8421 2.211 75.8113L5.16008 74.4858C5.42724 74.3727 5.58138 74.1158 5.58138 73.8281V72.3485C5.58138 72.1532 5.53 71.9991 5.38614 71.8552L4.90319 71.3723C4.75933 71.2284 4.58465 71.1462 4.37914 71.1462H2.41651C2.211 71.1462 2.03632 71.2284 1.89246 71.3723L1.18345 72.0813L1.7486 72.6362L2.37541 72.0094C2.41651 71.9683 2.46789 71.9477 2.52954 71.9477H4.26611C4.32776 71.9477 4.37914 71.9683 4.42024 72.0094L4.65658 72.2457C4.69768 72.2868 4.70796 72.3382 4.70796 72.3896V73.6534C4.70796 73.7357 4.65658 73.8076 4.58465 73.8384L1.63557 75.1537C1.36841 75.277 1.21428 75.5236 1.21428 75.8113L1.21428 78H5.58138ZM12.0285 76.7978L12.0285 72.3485C12.0285 72.1532 11.9771 71.9991 11.8332 71.8552L11.3503 71.3723C11.2064 71.2284 11.0317 71.1462 10.8262 71.1462H8.86361C8.6581 71.1462 8.48341 71.2284 8.33956 71.3723L7.85661 71.8552C7.71275 71.9991 7.66137 72.1532 7.66137 72.3485L7.66137 76.7978C7.66137 76.993 7.71275 77.1471 7.85661 77.291L8.33956 77.7739C8.48341 77.9178 8.6581 78 8.86361 78H10.8262C11.0317 78 11.2064 77.9178 11.3503 77.7739L11.8332 77.291C11.9771 77.1471 12.0285 76.993 12.0285 76.7978ZM11.1551 76.7464C11.1551 76.808 11.1448 76.8594 11.1037 76.9005L10.8673 77.1369C10.8262 77.178 10.7749 77.1985 10.7132 77.1985H8.97664C8.91499 77.1985 8.86361 77.178 8.82251 77.1369L8.58617 76.9005C8.54507 76.8594 8.53479 76.808 8.53479 76.7567L8.53479 72.3896C8.53479 72.3382 8.54507 72.2868 8.58617 72.2457L8.82251 72.0094C8.86361 71.9683 8.91499 71.9477 8.97664 71.9477H10.7132C10.7749 71.9477 10.8262 71.9683 10.8673 72.0094L11.1037 72.2457C11.1448 72.2868 11.1551 72.3382 11.1551 72.3896L11.1551 76.7464ZM18.4756 76.7978V72.3485C18.4756 72.1532 18.4242 71.9991 18.2803 71.8552L17.7974 71.3723C17.6535 71.2284 17.4788 71.1462 17.2733 71.1462H15.3107C15.1052 71.1462 14.9305 71.2284 14.7867 71.3723L14.3037 71.8552C14.1598 71.9991 14.1085 72.1532 14.1085 72.3485L14.1085 76.7978C14.1085 76.993 14.1598 77.1471 14.3037 77.291L14.7867 77.7739C14.9305 77.9178 15.1052 78 15.3107 78H17.2733C17.4788 78 17.6535 77.9178 17.7974 77.7739L18.2803 77.291C18.4242 77.1471 18.4756 76.993 18.4756 76.7978ZM17.6021 76.7464C17.6021 76.808 17.5919 76.8594 17.5508 76.9005L17.3144 77.1369C17.2733 77.178 17.222 77.1985 17.1603 77.1985H15.4237C15.3621 77.1985 15.3107 77.178 15.2696 77.1369L15.0333 76.9005C14.9922 76.8594 14.9819 76.808 14.9819 76.7567L14.9819 72.3896C14.9819 72.3382 14.9922 72.2868 15.0333 72.2457L15.2696 72.0094C15.3107 71.9683 15.3621 71.9477 15.4237 71.9477H17.1603C17.222 71.9477 17.2733 71.9683 17.3144 72.0094L17.5508 72.2457C17.5919 72.2868 17.6021 72.3382 17.6021 72.3896V76.7464ZM24.9227 76.7978V72.3485C24.9227 72.1532 24.8713 71.9991 24.7274 71.8552L24.2445 71.3723C24.1006 71.2284 23.9259 71.1462 23.7204 71.1462H21.7578C21.5523 71.1462 21.3776 71.2284 21.2337 71.3723L20.7508 71.8552C20.6069 71.9991 20.5556 72.1532 20.5556 72.3485V76.7978C20.5556 76.993 20.6069 77.1471 20.7508 77.291L21.2337 77.7739C21.3776 77.9178 21.5523 78 21.7578 78H23.7204C23.9259 78 24.1006 77.9178 24.2445 77.7739L24.7274 77.291C24.8713 77.1471 24.9227 76.993 24.9227 76.7978ZM24.0492 76.7464C24.0492 76.808 24.039 76.8594 23.9979 76.9005L23.7615 77.1369C23.7204 77.178 23.669 77.1985 23.6074 77.1985H21.8708C21.8092 77.1985 21.7578 77.178 21.7167 77.1369L21.4804 76.9005C21.4393 76.8594 21.429 76.808 21.429 76.7567V72.3896C21.429 72.3382 21.4393 72.2868 21.4804 72.2457L21.7167 72.0094C21.7578 71.9683 21.8092 71.9477 21.8708 71.9477H23.6074C23.669 71.9477 23.7204 71.9683 23.7615 72.0094L23.9979 72.2457C24.039 72.2868 24.0492 72.3382 24.0492 72.3896V76.7464Z" fill="white"/>
<path d="M5.20118 217V216.199H3.88591L3.88591 210.146H2.84809L1.59447 211.266L2.14935 211.811L3.02277 211.03L3.02277 216.199H1.69723V217H5.20118ZM12.0285 215.798L12.0285 211.348C12.0285 211.153 11.9771 210.999 11.8332 210.855L11.3503 210.372C11.2064 210.228 11.0317 210.146 10.8262 210.146H8.86361C8.6581 210.146 8.48341 210.228 8.33956 210.372L7.85661 210.855C7.71275 210.999 7.66137 211.153 7.66137 211.348L7.66137 215.798C7.66137 215.993 7.71275 216.147 7.85661 216.291L8.33956 216.774C8.48341 216.918 8.6581 217 8.86361 217H10.8262C11.0317 217 11.2064 216.918 11.3503 216.774L11.8332 216.291C11.9771 216.147 12.0285 215.993 12.0285 215.798ZM11.1551 215.746C11.1551 215.808 11.1448 215.859 11.1037 215.901L10.8673 216.137C10.8262 216.178 10.7749 216.199 10.7132 216.199H8.97664C8.91499 216.199 8.86361 216.178 8.82251 216.137L8.58617 215.901C8.54507 215.859 8.53479 215.808 8.53479 215.757L8.53479 211.39C8.53479 211.338 8.54507 211.287 8.58617 211.246L8.82251 211.009C8.86361 210.968 8.91499 210.948 8.97664 210.948H10.7132C10.7749 210.948 10.8262 210.968 10.8673 211.009L11.1037 211.246C11.1448 211.287 11.1551 211.338 11.1551 211.39L11.1551 215.746ZM18.4756 215.798V211.348C18.4756 211.153 18.4242 210.999 18.2803 210.855L17.7974 210.372C17.6535 210.228 17.4788 210.146 17.2733 210.146H15.3107C15.1052 210.146 14.9305 210.228 14.7867 210.372L14.3037 210.855C14.1598 210.999 14.1085 211.153 14.1085 211.348L14.1085 215.798C14.1085 215.993 14.1598 216.147 14.3037 216.291L14.7867 216.774C14.9305 216.918 15.1052 217 15.3107 217H17.2733C17.4788 217 17.6535 216.918 17.7974 216.774L18.2803 216.291C18.4242 216.147 18.4756 215.993 18.4756 215.798ZM17.6021 215.746C17.6021 215.808 17.5919 215.859 17.5508 215.901L17.3144 216.137C17.2733 216.178 17.222 216.199 17.1603 216.199H15.4237C15.3621 216.199 15.3107 216.178 15.2696 216.137L15.0333 215.901C14.9922 215.859 14.9819 215.808 14.9819 215.757L14.9819 211.39C14.9819 211.338 14.9922 211.287 15.0333 211.246L15.2696 211.009C15.3107 210.968 15.3621 210.948 15.4237 210.948H17.1603C17.222 210.948 17.2733 210.968 17.3144 211.009L17.5508 211.246C17.5919 211.287 17.6021 211.338 17.6021 211.39V215.746ZM24.9227 215.798V211.348C24.9227 211.153 24.8713 210.999 24.7274 210.855L24.2445 210.372C24.1006 210.228 23.9259 210.146 23.7204 210.146H21.7578C21.5523 210.146 21.3776 210.228 21.2337 210.372L20.7508 210.855C20.6069 210.999 20.5556 211.153 20.5556 211.348V215.798C20.5556 215.993 20.6069 216.147 20.7508 216.291L21.2337 216.774C21.3776 216.918 21.5523 217 21.7578 217H23.7204C23.9259 217 24.1006 216.918 24.2445 216.774L24.7274 216.291C24.8713 216.147 24.9227 215.993 24.9227 215.798ZM24.0492 215.746C24.0492 215.808 24.039 215.859 23.9979 215.901L23.7615 216.137C23.7204 216.178 23.669 216.199 23.6074 216.199H21.8708C21.8092 216.199 21.7578 216.178 21.7167 216.137L21.4804 215.901C21.4393 215.859 21.429 215.808 21.429 215.757V211.39C21.429 211.338 21.4393 211.287 21.4804 211.246L21.7167 211.009C21.7578 210.968 21.8092 210.948 21.8708 210.948H23.6074C23.669 210.948 23.7204 210.968 23.7615 211.009L23.9979 211.246C24.039 211.287 24.0492 211.338 24.0492 211.39V215.746Z" fill="white"/>
<path d="M5.20118 149V148.199H3.88591L3.88591 142.146H2.84809L1.59447 143.266L2.14935 143.811L3.02277 143.03L3.02277 148.199H1.69723V149H5.20118ZM12.0285 147.798V145.938C12.0285 145.743 11.9771 145.609 11.8332 145.465L11.3503 144.982C11.2064 144.838 11.0317 144.756 10.8262 144.756H8.82251L8.82251 142.948H11.7408V142.146H7.94909V145.558H10.7132C10.7749 145.558 10.8262 145.578 10.8673 145.619L11.1037 145.856C11.1448 145.897 11.1551 145.928 11.1551 145.979V147.757C11.1551 147.808 11.1448 147.859 11.1037 147.901L10.8673 148.137C10.8262 148.178 10.7749 148.199 10.7132 148.199H8.97664C8.91499 148.199 8.86361 148.178 8.82251 148.137L8.1957 147.51L7.63054 148.065L8.33956 148.774C8.48341 148.918 8.6581 149 8.86361 149H10.8262C11.0317 149 11.2064 148.918 11.3503 148.774L11.8332 148.291C11.9771 148.147 12.0285 147.993 12.0285 147.798ZM18.4756 147.798V143.348C18.4756 143.153 18.4242 142.999 18.2803 142.855L17.7974 142.372C17.6535 142.228 17.4788 142.146 17.2733 142.146H15.3107C15.1052 142.146 14.9305 142.228 14.7867 142.372L14.3037 142.855C14.1598 142.999 14.1085 143.153 14.1085 143.348L14.1085 147.798C14.1085 147.993 14.1598 148.147 14.3037 148.291L14.7867 148.774C14.9305 148.918 15.1052 149 15.3107 149H17.2733C17.4788 149 17.6535 148.918 17.7974 148.774L18.2803 148.291C18.4242 148.147 18.4756 147.993 18.4756 147.798ZM17.6021 147.746C17.6021 147.808 17.5919 147.859 17.5508 147.901L17.3144 148.137C17.2733 148.178 17.222 148.199 17.1603 148.199H15.4237C15.3621 148.199 15.3107 148.178 15.2696 148.137L15.0333 147.901C14.9922 147.859 14.9819 147.808 14.9819 147.757L14.9819 143.39C14.9819 143.338 14.9922 143.287 15.0333 143.246L15.2696 143.009C15.3107 142.968 15.3621 142.948 15.4237 142.948H17.1603C17.222 142.948 17.2733 142.968 17.3144 143.009L17.5508 143.246C17.5919 143.287 17.6021 143.338 17.6021 143.39V147.746ZM24.9227 147.798V143.348C24.9227 143.153 24.8713 142.999 24.7274 142.855L24.2445 142.372C24.1006 142.228 23.9259 142.146 23.7204 142.146H21.7578C21.5523 142.146 21.3776 142.228 21.2337 142.372L20.7508 142.855C20.6069 142.999 20.5556 143.153 20.5556 143.348V147.798C20.5556 147.993 20.6069 148.147 20.7508 148.291L21.2337 148.774C21.3776 148.918 21.5523 149 21.7578 149H23.7204C23.9259 149 24.1006 148.918 24.2445 148.774L24.7274 148.291C24.8713 148.147 24.9227 147.993 24.9227 147.798ZM24.0492 147.746C24.0492 147.808 24.039 147.859 23.9979 147.901L23.7615 148.137C23.7204 148.178 23.669 148.199 23.6074 148.199H21.8708C21.8092 148.199 21.7578 148.178 21.7167 148.137L21.4804 147.901C21.4393 147.859 21.429 147.808 21.429 147.757V143.39C21.429 143.338 21.4393 143.287 21.4804 143.246L21.7167 143.009C21.7578 142.968 21.8092 142.948 21.8708 142.948H23.6074C23.669 142.948 23.7204 142.968 23.7615 143.009L23.9979 143.246C24.039 143.287 24.0492 143.338 24.0492 143.39V147.746Z" fill="white"/>
<path d="M12.3782 285.798L12.3782 283.938C12.3782 283.743 12.3268 283.609 12.183 283.465L11.7 282.982C11.5562 282.838 11.3815 282.756 11.176 282.756L9.17226 282.756V280.948H12.0905V280.146H8.29883L8.29883 283.558H11.063C11.1246 283.558 11.176 283.578 11.2171 283.619L11.4534 283.856C11.4945 283.897 11.5048 283.928 11.5048 283.979L11.5048 285.757C11.5048 285.808 11.4945 285.859 11.4534 285.901L11.2171 286.137C11.176 286.178 11.1246 286.199 11.063 286.199H9.32639C9.26474 286.199 9.21336 286.178 9.17226 286.137L8.54545 285.51L7.98029 286.065L8.6893 286.774C8.83316 286.918 9.00785 287 9.21336 287H11.176C11.3815 287 11.5562 286.918 11.7 286.774L12.183 286.291C12.3268 286.147 12.3782 285.993 12.3782 285.798ZM18.8253 285.798V281.348C18.8253 281.153 18.7739 280.999 18.6301 280.855L18.1471 280.372C18.0033 280.228 17.8286 280.146 17.6231 280.146H15.6605C15.4549 280.146 15.2803 280.228 15.1364 280.372L14.6534 280.855C14.5096 280.999 14.4582 281.153 14.4582 281.348L14.4582 285.798C14.4582 285.993 14.5096 286.147 14.6534 286.291L15.1364 286.774C15.2803 286.918 15.4549 287 15.6605 287H17.6231C17.8286 287 18.0033 286.918 18.1471 286.774L18.6301 286.291C18.7739 286.147 18.8253 285.993 18.8253 285.798ZM17.9519 285.746C17.9519 285.808 17.9416 285.859 17.9005 285.901L17.6642 286.137C17.6231 286.178 17.5717 286.199 17.51 286.199H15.7735C15.7118 286.199 15.6605 286.178 15.6194 286.137L15.383 285.901C15.3419 285.859 15.3316 285.808 15.3316 285.757L15.3316 281.39C15.3316 281.338 15.3419 281.287 15.383 281.246L15.6194 281.009C15.6605 280.968 15.7118 280.948 15.7735 280.948H17.51C17.5717 280.948 17.6231 280.968 17.6642 281.009L17.9005 281.246C17.9416 281.287 17.9519 281.338 17.9519 281.39V285.746ZM25.2724 285.798V281.348C25.2724 281.153 25.221 280.999 25.0772 280.855L24.5942 280.372C24.4504 280.228 24.2757 280.146 24.0702 280.146H22.1075C21.902 280.146 21.7274 280.228 21.5835 280.372L21.1005 280.855C20.9567 280.999 20.9053 281.153 20.9053 281.348V285.798C20.9053 285.993 20.9567 286.147 21.1005 286.291L21.5835 286.774C21.7274 286.918 21.902 287 22.1075 287H24.0702C24.2757 287 24.4504 286.918 24.5942 286.774L25.0772 286.291C25.221 286.147 25.2724 285.993 25.2724 285.798ZM24.399 285.746C24.399 285.808 24.3887 285.859 24.3476 285.901L24.1113 286.137C24.0702 286.178 24.0188 286.199 23.9571 286.199H22.2206C22.1589 286.199 22.1075 286.178 22.0664 286.137L21.8301 285.901C21.789 285.859 21.7787 285.808 21.7787 285.757V281.39C21.7787 281.338 21.789 281.287 21.8301 281.246L22.0664 281.009C22.1075 280.968 22.1589 280.948 22.2206 280.948H23.9571C24.0188 280.948 24.0702 280.968 24.1113 281.009L24.3476 281.246C24.3887 281.287 24.399 281.338 24.399 281.39V285.746Z" fill="white"/>
<path d="M40.8571 359.468L748 359.468" stroke="#B77FF8" stroke-width="14.7783"/>
<path d="M46.7676 283.36H747.999" stroke="#B77FF8" stroke-width="0.738916" stroke-miterlimit="10"/>
<path d="M46.7676 212.424H747.999" stroke="#B77FF8" stroke-width="0.738916" stroke-miterlimit="10"/>
<path d="M46.7676 145.183H747.999" stroke="#B77FF8" stroke-width="0.738916" stroke-miterlimit="10"/>
<path d="M46.7676 74.2466H747.999" stroke="#B77FF8" stroke-width="0.738916" stroke-miterlimit="10"/>
<path d="M46.7676 4.78857H747.999" stroke="#B77FF8" stroke-width="0.738916" stroke-miterlimit="10"/>
<rect x="298" y="327" width="23" height="25" fill="white"/>
<rect x="63" y="351" width="22" height="1" fill="white"/>
<rect x="121" y="346" width="23" height="6" fill="white"/>
<rect x="180" y="342" width="23" height="10" fill="white"/>
<rect x="239" y="338" width="23" height="14" fill="white"/>
<rect x="357" y="308" width="23" height="44" fill="white"/>
<rect x="417" y="299" width="23" height="53" fill="white"/>
<rect x="476" y="280" width="24" height="72" fill="white"/>
<rect x="595" y="179" width="23" height="173" fill="white"/>
<rect x="654" y="125" width="23" height="227" fill="white"/>
<rect x="713" y="59" width="22" height="293" fill="white"/>
<rect x="536" y="232" width="23" height="120" fill="white"/>
<path d="M52.54 377.47V372.33H49.66V373.21H51.63V377.35C51.63 377.4 51.61 377.45 51.57 377.49L51 378.06C50.96 378.1 50.92 378.12 50.86 378.12H49.73C49.67 378.12 49.63 378.1 49.59 378.06L48.76 377.23L48.14 377.85L49.08 378.79C49.22 378.93 49.39 379 49.58 379H51.01C51.2 379 51.37 378.93 51.51 378.79L52.33 377.97C52.47 377.83 52.54 377.66 52.54 377.47ZM60.3259 379L57.8359 372.33H56.6359L54.1359 379H55.0459L55.7259 377.21H58.7159L59.3959 379H60.3259ZM58.3859 376.37H56.0459L57.2259 373.15L58.3859 376.37ZM66.9905 379V372.33H66.0905V377.96L63.4305 372.33H62.0705V379H62.9705V373.37L65.6305 379H66.9905ZM70.4352 379V377.94H69.3652V379H70.4352ZM76.7823 379V378.22H73.3823V377.05C73.3823 376.97 73.4323 376.9 73.5023 376.87L76.3723 375.58C76.6323 375.47 76.7823 375.22 76.7823 374.94V373.5C76.7823 373.31 76.7323 373.16 76.5923 373.02L76.1223 372.55C75.9823 372.41 75.8123 372.33 75.6123 372.33H73.7023C73.5023 372.33 73.3323 372.41 73.1923 372.55L72.5023 373.24L73.0523 373.78L73.6623 373.17C73.7023 373.13 73.7523 373.11 73.8123 373.11H75.5023C75.5623 373.11 75.6123 373.13 75.6523 373.17L75.8823 373.4C75.9223 373.44 75.9323 373.49 75.9323 373.54V374.77C75.9323 374.85 75.8823 374.92 75.8123 374.95L72.9423 376.23C72.6823 376.35 72.5323 376.59 72.5323 376.87V379H76.7823ZM83.0565 377.83V373.5C83.0565 373.31 83.0065 373.16 82.8665 373.02L82.3965 372.55C82.2565 372.41 82.0865 372.33 81.8865 372.33H79.9765C79.7765 372.33 79.6065 372.41 79.4665 372.55L78.9965 373.02C78.8565 373.16 78.8065 373.31 78.8065 373.5V377.83C78.8065 378.02 78.8565 378.17 78.9965 378.31L79.4665 378.78C79.6065 378.92 79.7765 379 79.9765 379H81.8865C82.0865 379 82.2565 378.92 82.3965 378.78L82.8665 378.31C83.0065 378.17 83.0565 378.02 83.0565 377.83ZM82.2065 377.78C82.2065 377.84 82.1965 377.89 82.1565 377.93L81.9265 378.16C81.8865 378.2 81.8365 378.22 81.7765 378.22H80.0865C80.0265 378.22 79.9765 378.2 79.9365 378.16L79.7065 377.93C79.6665 377.89 79.6565 377.84 79.6565 377.79V373.54C79.6565 373.49 79.6665 373.44 79.7065 373.4L79.9365 373.17C79.9765 373.13 80.0265 373.11 80.0865 373.11H81.7765C81.8365 373.11 81.8865 373.13 81.9265 373.17L82.1565 373.4C82.1965 373.44 82.2065 373.49 82.2065 373.54V377.78ZM88.9607 379V378.22H87.6807V372.33H86.6707L85.4507 373.42L85.9907 373.95L86.8407 373.19V378.22H85.5507V379H88.9607ZM95.6049 377.83V376.36C95.6049 376.16 95.5349 376.01 95.3949 375.87L95.0449 375.51L95.3949 375.16C95.5349 375.02 95.6049 374.85 95.6049 374.66V373.5C95.6049 373.31 95.5549 373.16 95.4149 373.02L94.9449 372.55C94.8049 372.41 94.6249 372.33 94.4349 372.33H92.5249C92.3249 372.33 92.1549 372.41 92.0149 372.55L91.5449 373.02C91.4049 373.16 91.3549 373.31 91.3549 373.5V374.66C91.3549 374.85 91.4249 375.03 91.5649 375.17L91.9149 375.52L91.5549 375.87C91.4249 376.01 91.3549 376.16 91.3549 376.37V377.83C91.3549 378.02 91.4149 378.17 91.5449 378.31L92.0149 378.78C92.1549 378.92 92.3249 379 92.5249 379H94.4349C94.6349 379 94.8049 378.92 94.9449 378.78L95.4149 378.31C95.5549 378.17 95.6049 378.02 95.6049 377.83ZM94.7549 374.62C94.7549 374.68 94.7449 374.73 94.7049 374.77L94.4049 375.07C94.3749 375.1 94.3149 375.13 94.2549 375.13H92.7049C92.6449 375.13 92.5949 375.1 92.5549 375.06L92.2549 374.76C92.2149 374.73 92.2049 374.67 92.2049 374.62V373.54C92.2049 373.49 92.2149 373.44 92.2549 373.4L92.4849 373.17C92.5249 373.13 92.5749 373.11 92.6349 373.11H94.3249C94.3849 373.11 94.4349 373.13 94.4749 373.17L94.7049 373.4C94.7449 373.44 94.7549 373.49 94.7549 373.54V374.62ZM94.7549 377.78C94.7549 377.83 94.7449 377.89 94.7049 377.93L94.4749 378.16C94.4349 378.2 94.3849 378.22 94.3249 378.22H92.6349C92.5749 378.22 92.5249 378.2 92.4849 378.16L92.2549 377.93C92.2149 377.89 92.2049 377.84 92.2049 377.79V376.4C92.2049 376.35 92.2149 376.3 92.2549 376.26L92.5549 375.96C92.5949 375.93 92.6449 375.9 92.7049 375.9H94.2549C94.3149 375.9 94.3649 375.93 94.4049 375.97L94.7049 376.27C94.7449 376.3 94.7549 376.35 94.7549 376.41V377.78Z" fill="white"/>
<path d="M114.67 379V372.33H113.18L111.43 377.75L109.68 372.33H108.19V379H109.09V373.18L110.97 379H111.89L113.78 373.18V379H114.67ZM122.597 379L120.107 372.33H118.907L116.407 379H117.317L117.997 377.21H120.987L121.667 379H122.597ZM120.657 376.37H118.317L119.497 373.15L120.657 376.37ZM129.742 379L127.732 376.17H127.982C128.162 376.17 128.332 376.1 128.462 375.97L129.052 375.38C129.182 375.25 129.262 375.08 129.262 374.88V373.62C129.262 373.42 129.182 373.26 129.042 373.12L128.452 372.53C128.322 372.4 128.162 372.33 127.972 372.33H124.342V379H125.252V376.17H126.572C126.632 376.17 126.692 376.2 126.742 376.26L128.642 379H129.742ZM128.342 374.76C128.342 374.82 128.322 374.86 128.282 374.9L127.952 375.23C127.922 375.27 127.872 375.29 127.812 375.29H125.252V373.21H127.822C127.882 373.21 127.922 373.23 127.962 373.27L128.292 373.6C128.322 373.63 128.352 373.68 128.352 373.74L128.342 374.76ZM132.619 379V377.94H131.549V379H132.619ZM138.966 379V378.22H135.566V377.05C135.566 376.97 135.616 376.9 135.686 376.87L138.556 375.58C138.816 375.47 138.966 375.22 138.966 374.94V373.5C138.966 373.31 138.916 373.16 138.776 373.02L138.306 372.55C138.166 372.41 137.996 372.33 137.796 372.33H135.886C135.686 372.33 135.516 372.41 135.376 372.55L134.686 373.24L135.236 373.78L135.846 373.17C135.886 373.13 135.936 373.11 135.996 373.11H137.686C137.746 373.11 137.796 373.13 137.836 373.17L138.066 373.4C138.106 373.44 138.116 373.49 138.116 373.54V374.77C138.116 374.85 138.066 374.92 137.996 374.95L135.126 376.23C134.866 376.35 134.716 376.59 134.716 376.87V379H138.966ZM145.24 377.83V373.5C145.24 373.31 145.19 373.16 145.05 373.02L144.58 372.55C144.44 372.41 144.27 372.33 144.07 372.33H142.16C141.96 372.33 141.79 372.41 141.65 372.55L141.18 373.02C141.04 373.16 140.99 373.31 140.99 373.5V377.83C140.99 378.02 141.04 378.17 141.18 378.31L141.65 378.78C141.79 378.92 141.96 379 142.16 379H144.07C144.27 379 144.44 378.92 144.58 378.78L145.05 378.31C145.19 378.17 145.24 378.02 145.24 377.83ZM144.39 377.78C144.39 377.84 144.38 377.89 144.34 377.93L144.11 378.16C144.07 378.2 144.02 378.22 143.96 378.22H142.27C142.21 378.22 142.16 378.2 142.12 378.16L141.89 377.93C141.85 377.89 141.84 377.84 141.84 377.79V373.54C141.84 373.49 141.85 373.44 141.89 373.4L142.12 373.17C142.16 373.13 142.21 373.11 142.27 373.11H143.96C144.02 373.11 144.07 373.13 144.11 373.17L144.34 373.4C144.38 373.44 144.39 373.49 144.39 373.54V377.78ZM151.144 379V378.22H149.864V372.33H148.854L147.634 373.42L148.174 373.95L149.024 373.19V378.22H147.734V379H151.144ZM157.789 377.83V376.36C157.789 376.16 157.719 376.01 157.579 375.87L157.229 375.51L157.579 375.16C157.719 375.02 157.789 374.85 157.789 374.66V373.5C157.789 373.31 157.739 373.16 157.599 373.02L157.129 372.55C156.989 372.41 156.809 372.33 156.619 372.33H154.709C154.509 372.33 154.339 372.41 154.199 372.55L153.729 373.02C153.589 373.16 153.539 373.31 153.539 373.5V374.66C153.539 374.85 153.609 375.03 153.749 375.17L154.099 375.52L153.739 375.87C153.609 376.01 153.539 376.16 153.539 376.37V377.83C153.539 378.02 153.599 378.17 153.729 378.31L154.199 378.78C154.339 378.92 154.509 379 154.709 379H156.619C156.819 379 156.989 378.92 157.129 378.78L157.599 378.31C157.739 378.17 157.789 378.02 157.789 377.83ZM156.939 374.62C156.939 374.68 156.929 374.73 156.889 374.77L156.589 375.07C156.559 375.1 156.499 375.13 156.439 375.13H154.889C154.829 375.13 154.779 375.1 154.739 375.06L154.439 374.76C154.399 374.73 154.389 374.67 154.389 374.62V373.54C154.389 373.49 154.399 373.44 154.439 373.4L154.669 373.17C154.709 373.13 154.759 373.11 154.819 373.11H156.509C156.569 373.11 156.619 373.13 156.659 373.17L156.889 373.4C156.929 373.44 156.939 373.49 156.939 373.54V374.62ZM156.939 377.78C156.939 377.83 156.929 377.89 156.889 377.93L156.659 378.16C156.619 378.2 156.569 378.22 156.509 378.22H154.819C154.759 378.22 154.709 378.2 154.669 378.16L154.439 377.93C154.399 377.89 154.389 377.84 154.389 377.79V376.4C154.389 376.35 154.399 376.3 154.439 376.26L154.739 375.96C154.779 375.93 154.829 375.9 154.889 375.9H156.439C156.499 375.9 156.549 375.93 156.589 375.97L156.889 376.27C156.929 376.3 156.939 376.35 156.939 376.41V377.78Z" fill="white"/>
<path d="M173.67 379V372.33H172.18L170.43 377.75L168.68 372.33H167.19V379H168.09V373.18L169.97 379H170.89L172.78 373.18V379H173.67ZM181.597 379L179.107 372.33H177.907L175.407 379H176.317L176.997 377.21H179.987L180.667 379H181.597ZM179.657 376.37H177.317L178.497 373.15L179.657 376.37ZM187.922 372.33H186.922L185.152 375.16L183.382 372.33H182.362L184.692 376.05V379H185.602V376.05L187.922 372.33ZM190.379 379V377.94H189.309V379H190.379ZM196.726 379V378.22H193.326V377.05C193.326 376.97 193.376 376.9 193.446 376.87L196.316 375.58C196.576 375.47 196.726 375.22 196.726 374.94V373.5C196.726 373.31 196.676 373.16 196.536 373.02L196.066 372.55C195.926 372.41 195.756 372.33 195.556 372.33H193.646C193.446 372.33 193.276 372.41 193.136 372.55L192.446 373.24L192.996 373.78L193.606 373.17C193.646 373.13 193.696 373.11 193.756 373.11H195.446C195.506 373.11 195.556 373.13 195.596 373.17L195.826 373.4C195.866 373.44 195.876 373.49 195.876 373.54V374.77C195.876 374.85 195.826 374.92 195.756 374.95L192.886 376.23C192.626 376.35 192.476 376.59 192.476 376.87V379H196.726ZM203 377.83V373.5C203 373.31 202.95 373.16 202.81 373.02L202.34 372.55C202.2 372.41 202.03 372.33 201.83 372.33H199.92C199.72 372.33 199.55 372.41 199.41 372.55L198.94 373.02C198.8 373.16 198.75 373.31 198.75 373.5V377.83C198.75 378.02 198.8 378.17 198.94 378.31L199.41 378.78C199.55 378.92 199.72 379 199.92 379H201.83C202.03 379 202.2 378.92 202.34 378.78L202.81 378.31C202.95 378.17 203 378.02 203 377.83ZM202.15 377.78C202.15 377.84 202.14 377.89 202.1 377.93L201.87 378.16C201.83 378.2 201.78 378.22 201.72 378.22H200.03C199.97 378.22 199.92 378.2 199.88 378.16L199.65 377.93C199.61 377.89 199.6 377.84 199.6 377.79V373.54C199.6 373.49 199.61 373.44 199.65 373.4L199.88 373.17C199.92 373.13 199.97 373.11 200.03 373.11H201.72C201.78 373.11 201.83 373.13 201.87 373.17L202.1 373.4C202.14 373.44 202.15 373.49 202.15 373.54V377.78ZM208.904 379V378.22H207.624V372.33H206.614L205.394 373.42L205.934 373.95L206.784 373.19V378.22H205.494V379H208.904ZM215.548 377.83V376.36C215.548 376.16 215.478 376.01 215.338 375.87L214.988 375.51L215.338 375.16C215.478 375.02 215.548 374.85 215.548 374.66V373.5C215.548 373.31 215.498 373.16 215.358 373.02L214.888 372.55C214.748 372.41 214.568 372.33 214.378 372.33H212.468C212.268 372.33 212.098 372.41 211.958 372.55L211.488 373.02C211.348 373.16 211.298 373.31 211.298 373.5V374.66C211.298 374.85 211.368 375.03 211.508 375.17L211.858 375.52L211.498 375.87C211.368 376.01 211.298 376.16 211.298 376.37V377.83C211.298 378.02 211.358 378.17 211.488 378.31L211.958 378.78C212.098 378.92 212.268 379 212.468 379H214.378C214.578 379 214.748 378.92 214.888 378.78L215.358 378.31C215.498 378.17 215.548 378.02 215.548 377.83ZM214.698 374.62C214.698 374.68 214.688 374.73 214.648 374.77L214.348 375.07C214.318 375.1 214.258 375.13 214.198 375.13H212.648C212.588 375.13 212.538 375.1 212.498 375.06L212.198 374.76C212.158 374.73 212.148 374.67 212.148 374.62V373.54C212.148 373.49 212.158 373.44 212.198 373.4L212.428 373.17C212.468 373.13 212.518 373.11 212.578 373.11H214.268C214.328 373.11 214.378 373.13 214.418 373.17L214.648 373.4C214.688 373.44 214.698 373.49 214.698 373.54V374.62ZM214.698 377.78C214.698 377.83 214.688 377.89 214.648 377.93L214.418 378.16C214.378 378.2 214.328 378.22 214.268 378.22H212.578C212.518 378.22 212.468 378.2 212.428 378.16L212.198 377.93C212.158 377.89 212.148 377.84 212.148 377.79V376.4C212.148 376.35 212.158 376.3 212.198 376.26L212.498 375.96C212.538 375.93 212.588 375.9 212.648 375.9H214.198C214.258 375.9 214.308 375.93 214.348 375.97L214.648 376.27C214.688 376.3 214.698 376.35 214.698 376.41V377.78Z" fill="white"/>
<path d="M290.3 377.47V376.23C290.3 375.86 290.01 375.54 289.64 375.49L285.86 375C285.76 374.99 285.68 374.9 285.68 374.8V373.98C285.68 373.93 285.7 373.88 285.74 373.84L286.31 373.27C286.35 373.23 286.39 373.21 286.45 373.21H288.71C288.76 373.21 288.81 373.23 288.85 373.27L289.68 374.1L290.3 373.48L289.35 372.54C289.22 372.4 289.04 372.33 288.85 372.33H286.3C286.11 372.33 285.94 372.4 285.8 372.54L284.98 373.36C284.84 373.5 284.77 373.67 284.77 373.86V375.1C284.77 375.47 285.06 375.79 285.43 375.84L289.2 376.33C289.29 376.34 289.39 376.42 289.39 376.53V377.35C289.39 377.4 289.36 377.45 289.32 377.49L288.75 378.06C288.72 378.1 288.67 378.12 288.61 378.12H286.36C286.3 378.12 286.26 378.1 286.22 378.06L285.39 377.23L284.77 377.85L285.71 378.79C285.85 378.93 286.02 379 286.21 379H288.77C288.95 379 289.13 378.93 289.27 378.79L290.09 377.97C290.22 377.83 290.3 377.66 290.3 377.47ZM296.77 379V378.12H293.37V376.1H296.77V375.22H293.37V373.21H296.77V372.33H292.46V379H296.77ZM303.987 374.88V373.62C303.987 373.42 303.907 373.26 303.767 373.12L303.177 372.53C303.047 372.4 302.887 372.33 302.697 372.33H299.067V379H299.977V376.17H302.707C302.887 376.17 303.057 376.1 303.187 375.97L303.777 375.38C303.907 375.25 303.987 375.08 303.987 374.88ZM303.067 374.76C303.067 374.82 303.047 374.86 303.007 374.9L302.677 375.23C302.647 375.27 302.597 375.29 302.537 375.29H299.977V373.21H302.547C302.607 373.21 302.647 373.23 302.687 373.27L303.017 373.6C303.047 373.63 303.077 373.68 303.077 373.74L303.067 374.76ZM306.757 379V377.94H305.687V379H306.757ZM313.105 379V378.22H309.705V377.05C309.705 376.97 309.755 376.9 309.825 376.87L312.695 375.58C312.955 375.47 313.105 375.22 313.105 374.94V373.5C313.105 373.31 313.055 373.16 312.915 373.02L312.445 372.55C312.305 372.41 312.135 372.33 311.935 372.33H310.025C309.825 372.33 309.655 372.41 309.515 372.55L308.825 373.24L309.375 373.78L309.985 373.17C310.025 373.13 310.075 373.11 310.135 373.11H311.825C311.885 373.11 311.935 373.13 311.975 373.17L312.205 373.4C312.245 373.44 312.255 373.49 312.255 373.54V374.77C312.255 374.85 312.205 374.92 312.135 374.95L309.265 376.23C309.005 376.35 308.855 376.59 308.855 376.87V379H313.105ZM319.379 377.83V373.5C319.379 373.31 319.329 373.16 319.189 373.02L318.719 372.55C318.579 372.41 318.409 372.33 318.209 372.33H316.299C316.099 372.33 315.929 372.41 315.789 372.55L315.319 373.02C315.179 373.16 315.129 373.31 315.129 373.5V377.83C315.129 378.02 315.179 378.17 315.319 378.31L315.789 378.78C315.929 378.92 316.099 379 316.299 379H318.209C318.409 379 318.579 378.92 318.719 378.78L319.189 378.31C319.329 378.17 319.379 378.02 319.379 377.83ZM318.529 377.78C318.529 377.84 318.519 377.89 318.479 377.93L318.249 378.16C318.209 378.2 318.159 378.22 318.099 378.22H316.409C316.349 378.22 316.299 378.2 316.259 378.16L316.029 377.93C315.989 377.89 315.979 377.84 315.979 377.79V373.54C315.979 373.49 315.989 373.44 316.029 373.4L316.259 373.17C316.299 373.13 316.349 373.11 316.409 373.11H318.099C318.159 373.11 318.209 373.13 318.249 373.17L318.479 373.4C318.519 373.44 318.529 373.49 318.529 373.54V377.78ZM325.283 379V378.22H324.003V372.33H322.993L321.773 373.42L322.313 373.95L323.163 373.19V378.22H321.873V379H325.283ZM331.927 377.83V376.36C331.927 376.16 331.857 376.01 331.717 375.87L331.367 375.51L331.717 375.16C331.857 375.02 331.927 374.85 331.927 374.66V373.5C331.927 373.31 331.877 373.16 331.737 373.02L331.267 372.55C331.127 372.41 330.947 372.33 330.757 372.33H328.847C328.647 372.33 328.477 372.41 328.337 372.55L327.867 373.02C327.727 373.16 327.677 373.31 327.677 373.5V374.66C327.677 374.85 327.747 375.03 327.887 375.17L328.237 375.52L327.877 375.87C327.747 376.01 327.677 376.16 327.677 376.37V377.83C327.677 378.02 327.737 378.17 327.867 378.31L328.337 378.78C328.477 378.92 328.647 379 328.847 379H330.757C330.957 379 331.127 378.92 331.267 378.78L331.737 378.31C331.877 378.17 331.927 378.02 331.927 377.83ZM331.077 374.62C331.077 374.68 331.067 374.73 331.027 374.77L330.727 375.07C330.697 375.1 330.637 375.13 330.577 375.13H329.027C328.967 375.13 328.917 375.1 328.877 375.06L328.577 374.76C328.537 374.73 328.527 374.67 328.527 374.62V373.54C328.527 373.49 328.537 373.44 328.577 373.4L328.807 373.17C328.847 373.13 328.897 373.11 328.957 373.11H330.647C330.707 373.11 330.757 373.13 330.797 373.17L331.027 373.4C331.067 373.44 331.077 373.49 331.077 373.54V374.62ZM331.077 377.78C331.077 377.83 331.067 377.89 331.027 377.93L330.797 378.16C330.757 378.2 330.707 378.22 330.647 378.22H328.957C328.897 378.22 328.847 378.2 328.807 378.16L328.577 377.93C328.537 377.89 328.527 377.84 328.527 377.79V376.4C328.527 376.35 328.537 376.3 328.577 376.26L328.877 375.96C328.917 375.93 328.967 375.9 329.027 375.9H330.577C330.637 375.9 330.687 375.93 330.727 375.97L331.027 376.27C331.067 376.3 331.077 376.35 331.077 376.41V377.78Z" fill="white"/>
<path d="M349.11 379V372.33H348.21V377.96L345.55 372.33H344.19V379H345.09V373.37L347.75 379H349.11ZM356.945 377.47V373.86C356.945 373.67 356.865 373.5 356.725 373.36L355.905 372.54C355.775 372.4 355.595 372.33 355.405 372.33H352.945C352.755 372.33 352.585 372.4 352.445 372.54L351.625 373.36C351.485 373.5 351.415 373.67 351.415 373.86V377.47C351.415 377.66 351.485 377.83 351.625 377.97L352.445 378.79C352.585 378.93 352.755 379 352.945 379H355.415C355.595 379 355.775 378.93 355.915 378.79L356.735 377.97C356.865 377.83 356.945 377.66 356.945 377.47ZM356.025 377.35C356.025 377.4 356.005 377.45 355.965 377.49L355.395 378.06C355.365 378.1 355.315 378.12 355.255 378.12H353.095C353.035 378.12 352.995 378.1 352.955 378.06L352.385 377.49C352.345 377.45 352.325 377.4 352.325 377.35V373.98C352.325 373.93 352.345 373.88 352.385 373.84L352.955 373.27C352.995 373.23 353.035 373.21 353.095 373.21H355.265C355.315 373.21 355.365 373.23 355.405 373.27L355.975 373.84C356.005 373.88 356.035 373.93 356.035 373.98L356.025 377.35ZM363.888 372.33H362.978L361.088 378.16L359.198 372.33H358.268L360.468 379H361.678L363.888 372.33ZM366.343 379V377.94H365.273V379H366.343ZM372.69 379V378.22H369.29V377.05C369.29 376.97 369.34 376.9 369.41 376.87L372.28 375.58C372.54 375.47 372.69 375.22 372.69 374.94V373.5C372.69 373.31 372.64 373.16 372.5 373.02L372.03 372.55C371.89 372.41 371.72 372.33 371.52 372.33H369.61C369.41 372.33 369.24 372.41 369.1 372.55L368.41 373.24L368.96 373.78L369.57 373.17C369.61 373.13 369.66 373.11 369.72 373.11H371.41C371.47 373.11 371.52 373.13 371.56 373.17L371.79 373.4C371.83 373.44 371.84 373.49 371.84 373.54V374.77C371.84 374.85 371.79 374.92 371.72 374.95L368.85 376.23C368.59 376.35 368.44 376.59 368.44 376.87V379H372.69ZM378.965 377.83V373.5C378.965 373.31 378.915 373.16 378.775 373.02L378.305 372.55C378.165 372.41 377.995 372.33 377.795 372.33H375.885C375.685 372.33 375.515 372.41 375.375 372.55L374.905 373.02C374.765 373.16 374.715 373.31 374.715 373.5V377.83C374.715 378.02 374.765 378.17 374.905 378.31L375.375 378.78C375.515 378.92 375.685 379 375.885 379H377.795C377.995 379 378.165 378.92 378.305 378.78L378.775 378.31C378.915 378.17 378.965 378.02 378.965 377.83ZM378.115 377.78C378.115 377.84 378.105 377.89 378.065 377.93L377.835 378.16C377.795 378.2 377.745 378.22 377.685 378.22H375.995C375.935 378.22 375.885 378.2 375.845 378.16L375.615 377.93C375.575 377.89 375.565 377.84 375.565 377.79V373.54C375.565 373.49 375.575 373.44 375.615 373.4L375.845 373.17C375.885 373.13 375.935 373.11 375.995 373.11H377.685C377.745 373.11 377.795 373.13 377.835 373.17L378.065 373.4C378.105 373.44 378.115 373.49 378.115 373.54V377.78ZM384.869 379V378.22H383.589V372.33H382.579L381.359 373.42L381.899 373.95L382.749 373.19V378.22H381.459V379H384.869ZM391.513 377.83V376.36C391.513 376.16 391.443 376.01 391.303 375.87L390.953 375.51L391.303 375.16C391.443 375.02 391.513 374.85 391.513 374.66V373.5C391.513 373.31 391.463 373.16 391.323 373.02L390.853 372.55C390.713 372.41 390.533 372.33 390.343 372.33H388.433C388.233 372.33 388.063 372.41 387.923 372.55L387.453 373.02C387.313 373.16 387.263 373.31 387.263 373.5V374.66C387.263 374.85 387.333 375.03 387.473 375.17L387.823 375.52L387.463 375.87C387.333 376.01 387.263 376.16 387.263 376.37V377.83C387.263 378.02 387.323 378.17 387.453 378.31L387.923 378.78C388.063 378.92 388.233 379 388.433 379H390.343C390.543 379 390.713 378.92 390.853 378.78L391.323 378.31C391.463 378.17 391.513 378.02 391.513 377.83ZM390.663 374.62C390.663 374.68 390.653 374.73 390.613 374.77L390.313 375.07C390.283 375.1 390.223 375.13 390.163 375.13H388.613C388.553 375.13 388.503 375.1 388.463 375.06L388.163 374.76C388.123 374.73 388.113 374.67 388.113 374.62V373.54C388.113 373.49 388.123 373.44 388.163 373.4L388.393 373.17C388.433 373.13 388.483 373.11 388.543 373.11H390.233C390.293 373.11 390.343 373.13 390.383 373.17L390.613 373.4C390.653 373.44 390.663 373.49 390.663 373.54V374.62ZM390.663 377.78C390.663 377.83 390.653 377.89 390.613 377.93L390.383 378.16C390.343 378.2 390.293 378.22 390.233 378.22H388.543C388.483 378.22 388.433 378.2 388.393 378.16L388.163 377.93C388.123 377.89 388.113 377.84 388.113 377.79V376.4C388.113 376.35 388.123 376.3 388.163 376.26L388.463 375.96C388.503 375.93 388.553 375.9 388.613 375.9H390.163C390.223 375.9 390.273 375.93 390.313 375.97L390.613 376.27C390.653 376.3 390.663 376.35 390.663 376.41V377.78Z" fill="white"/>
<path d="M229.54 377.47V372.33H226.66V373.21H228.63V377.35C228.63 377.4 228.61 377.45 228.57 377.49L228 378.06C227.96 378.1 227.92 378.12 227.86 378.12H226.73C226.67 378.12 226.63 378.1 226.59 378.06L225.76 377.23L225.14 377.85L226.08 378.79C226.22 378.93 226.39 379 226.58 379H228.01C228.2 379 228.37 378.93 228.51 378.79L229.33 377.97C229.47 377.83 229.54 377.66 229.54 377.47ZM236.756 377.47V372.33H235.836V377.35C235.836 377.4 235.816 377.45 235.776 377.49L235.206 378.06C235.176 378.1 235.126 378.12 235.066 378.12H233.516C233.456 378.12 233.416 378.1 233.376 378.06L232.806 377.49C232.766 377.45 232.746 377.4 232.746 377.35V372.33H231.836V377.47C231.836 377.66 231.906 377.83 232.046 377.97L232.866 378.79C233.006 378.93 233.176 379 233.366 379H235.226C235.406 379 235.586 378.93 235.726 378.79L236.546 377.97C236.676 377.83 236.756 377.66 236.756 377.47ZM243.507 379V378.12H240.107V372.33H239.197V379H243.507ZM246 379V377.94H244.93V379H246ZM252.347 379V378.22H248.947V377.05C248.947 376.97 248.997 376.9 249.067 376.87L251.937 375.58C252.197 375.47 252.347 375.22 252.347 374.94V373.5C252.347 373.31 252.297 373.16 252.157 373.02L251.687 372.55C251.547 372.41 251.377 372.33 251.177 372.33H249.267C249.067 372.33 248.897 372.41 248.757 372.55L248.067 373.24L248.617 373.78L249.227 373.17C249.267 373.13 249.317 373.11 249.377 373.11H251.067C251.127 373.11 251.177 373.13 251.217 373.17L251.447 373.4C251.487 373.44 251.497 373.49 251.497 373.54V374.77C251.497 374.85 251.447 374.92 251.377 374.95L248.507 376.23C248.247 376.35 248.097 376.59 248.097 376.87V379H252.347ZM258.621 377.83V373.5C258.621 373.31 258.571 373.16 258.431 373.02L257.961 372.55C257.821 372.41 257.651 372.33 257.451 372.33H255.541C255.341 372.33 255.171 372.41 255.031 372.55L254.561 373.02C254.421 373.16 254.371 373.31 254.371 373.5V377.83C254.371 378.02 254.421 378.17 254.561 378.31L255.031 378.78C255.171 378.92 255.341 379 255.541 379H257.451C257.651 379 257.821 378.92 257.961 378.78L258.431 378.31C258.571 378.17 258.621 378.02 258.621 377.83ZM257.771 377.78C257.771 377.84 257.761 377.89 257.721 377.93L257.491 378.16C257.451 378.2 257.401 378.22 257.341 378.22H255.651C255.591 378.22 255.541 378.2 255.501 378.16L255.271 377.93C255.231 377.89 255.221 377.84 255.221 377.79V373.54C255.221 373.49 255.231 373.44 255.271 373.4L255.501 373.17C255.541 373.13 255.591 373.11 255.651 373.11H257.341C257.401 373.11 257.451 373.13 257.491 373.17L257.721 373.4C257.761 373.44 257.771 373.49 257.771 373.54V377.78ZM264.525 379V378.22H263.245V372.33H262.235L261.015 373.42L261.555 373.95L262.405 373.19V378.22H261.115V379H264.525ZM271.169 377.83V376.36C271.169 376.16 271.099 376.01 270.959 375.87L270.609 375.51L270.959 375.16C271.099 375.02 271.169 374.85 271.169 374.66V373.5C271.169 373.31 271.119 373.16 270.979 373.02L270.509 372.55C270.369 372.41 270.189 372.33 269.999 372.33H268.089C267.889 372.33 267.719 372.41 267.579 372.55L267.109 373.02C266.969 373.16 266.919 373.31 266.919 373.5V374.66C266.919 374.85 266.989 375.03 267.129 375.17L267.479 375.52L267.119 375.87C266.989 376.01 266.919 376.16 266.919 376.37V377.83C266.919 378.02 266.979 378.17 267.109 378.31L267.579 378.78C267.719 378.92 267.889 379 268.089 379H269.999C270.199 379 270.369 378.92 270.509 378.78L270.979 378.31C271.119 378.17 271.169 378.02 271.169 377.83ZM270.319 374.62C270.319 374.68 270.309 374.73 270.269 374.77L269.969 375.07C269.939 375.1 269.879 375.13 269.819 375.13H268.269C268.209 375.13 268.159 375.1 268.119 375.06L267.819 374.76C267.779 374.73 267.769 374.67 267.769 374.62V373.54C267.769 373.49 267.779 373.44 267.819 373.4L268.049 373.17C268.089 373.13 268.139 373.11 268.199 373.11H269.889C269.949 373.11 269.999 373.13 270.039 373.17L270.269 373.4C270.309 373.44 270.319 373.49 270.319 373.54V374.62ZM270.319 377.78C270.319 377.83 270.309 377.89 270.269 377.93L270.039 378.16C269.999 378.2 269.949 378.22 269.889 378.22H268.199C268.139 378.22 268.089 378.2 268.049 378.16L267.819 377.93C267.779 377.89 267.769 377.84 267.769 377.79V376.4C267.769 376.35 267.779 376.3 267.819 376.26L268.119 375.96C268.159 375.93 268.209 375.9 268.269 375.9H269.819C269.879 375.9 269.929 375.93 269.969 375.97L270.269 376.27C270.309 376.3 270.319 376.35 270.319 376.41V377.78Z" fill="white"/>
<path d="M406.54 377.47V372.33H403.66V373.21H405.63V377.35C405.63 377.4 405.61 377.45 405.57 377.49L405 378.06C404.96 378.1 404.92 378.12 404.86 378.12H403.73C403.67 378.12 403.63 378.1 403.59 378.06L402.76 377.23L402.14 377.85L403.08 378.79C403.22 378.93 403.39 379 403.58 379H405.01C405.2 379 405.37 378.93 405.51 378.79L406.33 377.97C406.47 377.83 406.54 377.66 406.54 377.47ZM414.326 379L411.836 372.33H410.636L408.136 379H409.046L409.726 377.21H412.716L413.396 379H414.326ZM412.386 376.37H410.046L411.226 373.15L412.386 376.37ZM420.99 379V372.33H420.09V377.96L417.43 372.33H416.07V379H416.97V373.37L419.63 379H420.99ZM424.435 379V377.94H423.365V379H424.435ZM430.782 379V378.22H427.382V377.05C427.382 376.97 427.432 376.9 427.502 376.87L430.372 375.58C430.632 375.47 430.782 375.22 430.782 374.94V373.5C430.782 373.31 430.732 373.16 430.592 373.02L430.122 372.55C429.982 372.41 429.812 372.33 429.612 372.33H427.702C427.502 372.33 427.332 372.41 427.192 372.55L426.502 373.24L427.052 373.78L427.662 373.17C427.702 373.13 427.752 373.11 427.812 373.11H429.502C429.562 373.11 429.612 373.13 429.652 373.17L429.882 373.4C429.922 373.44 429.932 373.49 429.932 373.54V374.77C429.932 374.85 429.882 374.92 429.812 374.95L426.942 376.23C426.682 376.35 426.532 376.59 426.532 376.87V379H430.782ZM437.056 377.83V373.5C437.056 373.31 437.006 373.16 436.866 373.02L436.396 372.55C436.256 372.41 436.086 372.33 435.886 372.33H433.976C433.776 372.33 433.606 372.41 433.466 372.55L432.996 373.02C432.856 373.16 432.806 373.31 432.806 373.5V377.83C432.806 378.02 432.856 378.17 432.996 378.31L433.466 378.78C433.606 378.92 433.776 379 433.976 379H435.886C436.086 379 436.256 378.92 436.396 378.78L436.866 378.31C437.006 378.17 437.056 378.02 437.056 377.83ZM436.206 377.78C436.206 377.84 436.196 377.89 436.156 377.93L435.926 378.16C435.886 378.2 435.836 378.22 435.776 378.22H434.086C434.026 378.22 433.976 378.2 433.936 378.16L433.706 377.93C433.666 377.89 433.656 377.84 433.656 377.79V373.54C433.656 373.49 433.666 373.44 433.706 373.4L433.936 373.17C433.976 373.13 434.026 373.11 434.086 373.11H435.776C435.836 373.11 435.886 373.13 435.926 373.17L436.156 373.4C436.196 373.44 436.206 373.49 436.206 373.54V377.78ZM442.961 379V378.22H441.681V372.33H440.671L439.451 373.42L439.991 373.95L440.841 373.19V378.22H439.551V379H442.961ZM449.605 377.83V373.5C449.605 373.31 449.555 373.16 449.415 373.02L448.945 372.55C448.805 372.41 448.635 372.33 448.435 372.33H446.525C446.325 372.33 446.155 372.41 446.015 372.55L445.545 373.02C445.405 373.16 445.355 373.31 445.355 373.5V375.29C445.355 375.48 445.405 375.63 445.545 375.77L446.015 376.24C446.155 376.38 446.325 376.46 446.525 376.46H447.765C447.965 376.46 448.135 376.38 448.275 376.24L448.755 375.76V377.79C448.755 377.84 448.745 377.89 448.705 377.93L448.475 378.16C448.435 378.2 448.385 378.22 448.325 378.22H446.635C446.575 378.22 446.525 378.2 446.485 378.16L445.875 377.55L445.325 378.09L446.015 378.78C446.155 378.92 446.325 379 446.525 379H448.435C448.635 379 448.805 378.92 448.945 378.78L449.415 378.31C449.555 378.17 449.605 378.02 449.605 377.83ZM448.755 374.65C448.755 374.71 448.745 374.76 448.705 374.8L447.875 375.62C447.845 375.66 447.785 375.68 447.725 375.68H446.635C446.575 375.68 446.525 375.66 446.485 375.62L446.255 375.39C446.215 375.35 446.205 375.29 446.205 375.24V373.54C446.205 373.49 446.215 373.44 446.255 373.4L446.485 373.17C446.525 373.13 446.575 373.11 446.635 373.11H448.325C448.385 373.11 448.435 373.13 448.475 373.17L448.705 373.4C448.745 373.44 448.755 373.49 448.755 373.54V374.65Z" fill="white"/>
<path d="M468.67 379V372.33H467.18L465.43 377.75L463.68 372.33H462.19V379H463.09V373.18L464.97 379H465.89L467.78 373.18V379H468.67ZM476.597 379L474.107 372.33H472.907L470.407 379H471.317L471.997 377.21H474.987L475.667 379H476.597ZM474.657 376.37H472.317L473.497 373.15L474.657 376.37ZM483.742 379L481.732 376.17H481.982C482.162 376.17 482.332 376.1 482.462 375.97L483.052 375.38C483.182 375.25 483.262 375.08 483.262 374.88V373.62C483.262 373.42 483.182 373.26 483.042 373.12L482.452 372.53C482.322 372.4 482.162 372.33 481.972 372.33H478.342V379H479.252V376.17H480.572C480.632 376.17 480.692 376.2 480.742 376.26L482.642 379H483.742ZM482.342 374.76C482.342 374.82 482.322 374.86 482.282 374.9L481.952 375.23C481.922 375.27 481.872 375.29 481.812 375.29H479.252V373.21H481.822C481.882 373.21 481.922 373.23 481.962 373.27L482.292 373.6C482.322 373.63 482.352 373.68 482.352 373.74L482.342 374.76ZM486.619 379V377.94H485.549V379H486.619ZM492.966 379V378.22H489.566V377.05C489.566 376.97 489.616 376.9 489.686 376.87L492.556 375.58C492.816 375.47 492.966 375.22 492.966 374.94V373.5C492.966 373.31 492.916 373.16 492.776 373.02L492.306 372.55C492.166 372.41 491.996 372.33 491.796 372.33H489.886C489.686 372.33 489.516 372.41 489.376 372.55L488.686 373.24L489.236 373.78L489.846 373.17C489.886 373.13 489.936 373.11 489.996 373.11H491.686C491.746 373.11 491.796 373.13 491.836 373.17L492.066 373.4C492.106 373.44 492.116 373.49 492.116 373.54V374.77C492.116 374.85 492.066 374.92 491.996 374.95L489.126 376.23C488.866 376.35 488.716 376.59 488.716 376.87V379H492.966ZM499.24 377.83V373.5C499.24 373.31 499.19 373.16 499.05 373.02L498.58 372.55C498.44 372.41 498.27 372.33 498.07 372.33H496.16C495.96 372.33 495.79 372.41 495.65 372.55L495.18 373.02C495.04 373.16 494.99 373.31 494.99 373.5V377.83C494.99 378.02 495.04 378.17 495.18 378.31L495.65 378.78C495.79 378.92 495.96 379 496.16 379H498.07C498.27 379 498.44 378.92 498.58 378.78L499.05 378.31C499.19 378.17 499.24 378.02 499.24 377.83ZM498.39 377.78C498.39 377.84 498.38 377.89 498.34 377.93L498.11 378.16C498.07 378.2 498.02 378.22 497.96 378.22H496.27C496.21 378.22 496.16 378.2 496.12 378.16L495.89 377.93C495.85 377.89 495.84 377.84 495.84 377.79V373.54C495.84 373.49 495.85 373.44 495.89 373.4L496.12 373.17C496.16 373.13 496.21 373.11 496.27 373.11H497.96C498.02 373.11 498.07 373.13 498.11 373.17L498.34 373.4C498.38 373.44 498.39 373.49 498.39 373.54V377.78ZM505.144 379V378.22H503.864V372.33H502.854L501.634 373.42L502.174 373.95L503.024 373.19V378.22H501.734V379H505.144ZM511.789 377.83V373.5C511.789 373.31 511.739 373.16 511.599 373.02L511.129 372.55C510.989 372.41 510.819 372.33 510.619 372.33H508.709C508.509 372.33 508.339 372.41 508.199 372.55L507.729 373.02C507.589 373.16 507.539 373.31 507.539 373.5V375.29C507.539 375.48 507.589 375.63 507.729 375.77L508.199 376.24C508.339 376.38 508.509 376.46 508.709 376.46H509.949C510.149 376.46 510.319 376.38 510.459 376.24L510.939 375.76V377.79C510.939 377.84 510.929 377.89 510.889 377.93L510.659 378.16C510.619 378.2 510.569 378.22 510.509 378.22H508.819C508.759 378.22 508.709 378.2 508.669 378.16L508.059 377.55L507.509 378.09L508.199 378.78C508.339 378.92 508.509 379 508.709 379H510.619C510.819 379 510.989 378.92 511.129 378.78L511.599 378.31C511.739 378.17 511.789 378.02 511.789 377.83ZM510.939 374.65C510.939 374.71 510.929 374.76 510.889 374.8L510.059 375.62C510.029 375.66 509.969 375.68 509.909 375.68H508.819C508.759 375.68 508.709 375.66 508.669 375.62L508.439 375.39C508.399 375.35 508.389 375.29 508.389 375.24V373.54C508.389 373.49 508.399 373.44 508.439 373.4L508.669 373.17C508.709 373.13 508.759 373.11 508.819 373.11H510.509C510.569 373.11 510.619 373.13 510.659 373.17L510.889 373.4C510.929 373.44 510.939 373.49 510.939 373.54V374.65Z" fill="white"/>
<path d="M527.67 379.739V373.069H526.18L524.43 378.489L522.68 373.069H521.19V379.739H522.09V373.919L523.97 379.739H524.89L526.78 373.919V379.739H527.67ZM535.597 379.739L533.107 373.069H531.907L529.407 379.739H530.317L530.997 377.949H533.987L534.667 379.739H535.597ZM533.657 377.109H531.317L532.497 373.889L533.657 377.109ZM541.922 373.069H540.922L539.152 375.899L537.382 373.069H536.362L538.692 376.789V379.739H539.602V376.789L541.922 373.069ZM544.379 379.739V378.679H543.309V379.739H544.379ZM550.726 379.739V378.959H547.326V377.789C547.326 377.709 547.376 377.639 547.446 377.609L550.316 376.319C550.576 376.209 550.726 375.959 550.726 375.679V374.239C550.726 374.049 550.676 373.899 550.536 373.759L550.066 373.289C549.926 373.149 549.756 373.069 549.556 373.069H547.646C547.446 373.069 547.276 373.149 547.136 373.289L546.446 373.979L546.996 374.519L547.606 373.909C547.646 373.869 547.696 373.849 547.756 373.849H549.446C549.506 373.849 549.556 373.869 549.596 373.909L549.826 374.139C549.866 374.179 549.876 374.229 549.876 374.279V375.509C549.876 375.589 549.826 375.659 549.756 375.689L546.886 376.969C546.626 377.089 546.476 377.329 546.476 377.609V379.739H550.726ZM557 378.569V374.239C557 374.049 556.95 373.899 556.81 373.759L556.34 373.289C556.2 373.149 556.03 373.069 555.83 373.069H553.92C553.72 373.069 553.55 373.149 553.41 373.289L552.94 373.759C552.8 373.899 552.75 374.049 552.75 374.239V378.569C552.75 378.759 552.8 378.909 552.94 379.049L553.41 379.519C553.55 379.659 553.72 379.739 553.92 379.739H555.83C556.03 379.739 556.2 379.659 556.34 379.519L556.81 379.049C556.95 378.909 557 378.759 557 378.569ZM556.15 378.519C556.15 378.579 556.14 378.629 556.1 378.669L555.87 378.899C555.83 378.939 555.78 378.959 555.72 378.959H554.03C553.97 378.959 553.92 378.939 553.88 378.899L553.65 378.669C553.61 378.629 553.6 378.579 553.6 378.529V374.279C553.6 374.229 553.61 374.179 553.65 374.139L553.88 373.909C553.92 373.869 553.97 373.849 554.03 373.849H555.72C555.78 373.849 555.83 373.869 555.87 373.909L556.1 374.139C556.14 374.179 556.15 374.229 556.15 374.279V378.519ZM562.904 379.739V378.959H561.624V373.069H560.614L559.394 374.159L559.934 374.689L560.784 373.929V378.959H559.494V379.739H562.904ZM569.548 378.569V374.239C569.548 374.049 569.498 373.899 569.358 373.759L568.888 373.289C568.748 373.149 568.578 373.069 568.378 373.069H566.468C566.268 373.069 566.098 373.149 565.958 373.289L565.488 373.759C565.348 373.899 565.298 374.049 565.298 374.239V376.029C565.298 376.219 565.348 376.369 565.488 376.509L565.958 376.979C566.098 377.119 566.268 377.199 566.468 377.199H567.708C567.908 377.199 568.078 377.119 568.218 376.979L568.698 376.499V378.529C568.698 378.579 568.688 378.629 568.648 378.669L568.418 378.899C568.378 378.939 568.328 378.959 568.268 378.959H566.578C566.518 378.959 566.468 378.939 566.428 378.899L565.818 378.289L565.268 378.829L565.958 379.519C566.098 379.659 566.268 379.739 566.468 379.739H568.378C568.578 379.739 568.748 379.659 568.888 379.519L569.358 379.049C569.498 378.909 569.548 378.759 569.548 378.569ZM568.698 375.389C568.698 375.449 568.688 375.499 568.648 375.539L567.818 376.359C567.788 376.399 567.728 376.419 567.668 376.419H566.578C566.518 376.419 566.468 376.399 566.428 376.359L566.198 376.129C566.158 376.089 566.148 376.029 566.148 375.979V374.279C566.148 374.229 566.158 374.179 566.198 374.139L566.428 373.909C566.468 373.869 566.518 373.849 566.578 373.849H568.268C568.328 373.849 568.378 373.869 568.418 373.909L568.648 374.139C568.688 374.179 568.698 374.229 568.698 374.279V375.389Z" fill="white"/>
<path d="M583.54 378.209V373.069H580.66V373.949H582.63V378.089C582.63 378.139 582.61 378.189 582.57 378.229L582 378.799C581.96 378.839 581.92 378.859 581.86 378.859H580.73C580.67 378.859 580.63 378.839 580.59 378.799L579.76 377.969L579.14 378.589L580.08 379.529C580.22 379.669 580.39 379.739 580.58 379.739H582.01C582.2 379.739 582.37 379.669 582.51 379.529L583.33 378.709C583.47 378.569 583.54 378.399 583.54 378.209ZM590.756 378.209V373.069H589.836V378.089C589.836 378.139 589.816 378.189 589.776 378.229L589.206 378.799C589.176 378.839 589.126 378.859 589.066 378.859H587.516C587.456 378.859 587.416 378.839 587.376 378.799L586.806 378.229C586.766 378.189 586.746 378.139 586.746 378.089V373.069H585.836V378.209C585.836 378.399 585.906 378.569 586.046 378.709L586.866 379.529C587.006 379.669 587.176 379.739 587.366 379.739H589.226C589.406 379.739 589.586 379.669 589.726 379.529L590.546 378.709C590.676 378.569 590.756 378.399 590.756 378.209ZM597.507 379.739V378.859H594.107V373.069H593.197V379.739H597.507ZM600 379.739V378.679H598.93V379.739H600ZM606.347 379.739V378.959H602.947V377.789C602.947 377.709 602.997 377.639 603.067 377.609L605.937 376.319C606.197 376.209 606.347 375.959 606.347 375.679V374.239C606.347 374.049 606.297 373.899 606.157 373.759L605.687 373.289C605.547 373.149 605.377 373.069 605.177 373.069H603.267C603.067 373.069 602.897 373.149 602.757 373.289L602.067 373.979L602.617 374.519L603.227 373.909C603.267 373.869 603.317 373.849 603.377 373.849H605.067C605.127 373.849 605.177 373.869 605.217 373.909L605.447 374.139C605.487 374.179 605.497 374.229 605.497 374.279V375.509C605.497 375.589 605.447 375.659 605.377 375.689L602.507 376.969C602.247 377.089 602.097 377.329 602.097 377.609V379.739H606.347ZM612.621 378.569V374.239C612.621 374.049 612.571 373.899 612.431 373.759L611.961 373.289C611.821 373.149 611.651 373.069 611.451 373.069H609.541C609.341 373.069 609.171 373.149 609.031 373.289L608.561 373.759C608.421 373.899 608.371 374.049 608.371 374.239V378.569C608.371 378.759 608.421 378.909 608.561 379.049L609.031 379.519C609.171 379.659 609.341 379.739 609.541 379.739H611.451C611.651 379.739 611.821 379.659 611.961 379.519L612.431 379.049C612.571 378.909 612.621 378.759 612.621 378.569ZM611.771 378.519C611.771 378.579 611.761 378.629 611.721 378.669L611.491 378.899C611.451 378.939 611.401 378.959 611.341 378.959H609.651C609.591 378.959 609.541 378.939 609.501 378.899L609.271 378.669C609.231 378.629 609.221 378.579 609.221 378.529V374.279C609.221 374.229 609.231 374.179 609.271 374.139L609.501 373.909C609.541 373.869 609.591 373.849 609.651 373.849H611.341C611.401 373.849 611.451 373.869 611.491 373.909L611.721 374.139C611.761 374.179 611.771 374.229 611.771 374.279V378.519ZM618.525 379.739V378.959H617.245V373.069H616.235L615.015 374.159L615.555 374.689L616.405 373.929V378.959H615.115V379.739H618.525ZM625.169 378.569V374.239C625.169 374.049 625.119 373.899 624.979 373.759L624.509 373.289C624.369 373.149 624.199 373.069 623.999 373.069H622.089C621.889 373.069 621.719 373.149 621.579 373.289L621.109 373.759C620.969 373.899 620.919 374.049 620.919 374.239V376.029C620.919 376.219 620.969 376.369 621.109 376.509L621.579 376.979C621.719 377.119 621.889 377.199 622.089 377.199H623.329C623.529 377.199 623.699 377.119 623.839 376.979L624.319 376.499V378.529C624.319 378.579 624.309 378.629 624.269 378.669L624.039 378.899C623.999 378.939 623.949 378.959 623.889 378.959H622.199C622.139 378.959 622.089 378.939 622.049 378.899L621.439 378.289L620.889 378.829L621.579 379.519C621.719 379.659 621.889 379.739 622.089 379.739H623.999C624.199 379.739 624.369 379.659 624.509 379.519L624.979 379.049C625.119 378.909 625.169 378.759 625.169 378.569ZM624.319 375.389C624.319 375.449 624.309 375.499 624.269 375.539L623.439 376.359C623.409 376.399 623.349 376.419 623.289 376.419H622.199C622.139 376.419 622.089 376.399 622.049 376.359L621.819 376.129C621.779 376.089 621.769 376.029 621.769 375.979V374.279C621.769 374.229 621.779 374.179 621.819 374.139L622.049 373.909C622.089 373.869 622.139 373.849 622.199 373.849H623.889C623.949 373.849 623.999 373.869 624.039 373.909L624.269 374.139C624.309 374.179 624.319 374.229 624.319 374.279V375.389Z" fill="white"/>
<path d="M644.3 378.209V376.969C644.3 376.599 644.01 376.279 643.64 376.229L639.86 375.739C639.76 375.729 639.68 375.639 639.68 375.539V374.719C639.68 374.669 639.7 374.619 639.74 374.579L640.31 374.009C640.35 373.969 640.39 373.949 640.45 373.949H642.71C642.76 373.949 642.81 373.969 642.85 374.009L643.68 374.839L644.3 374.219L643.35 373.279C643.22 373.139 643.04 373.069 642.85 373.069H640.3C640.11 373.069 639.94 373.139 639.8 373.279L638.98 374.099C638.84 374.239 638.77 374.409 638.77 374.599V375.839C638.77 376.209 639.06 376.529 639.43 376.579L643.2 377.069C643.29 377.079 643.39 377.159 643.39 377.269V378.089C643.39 378.139 643.36 378.189 643.32 378.229L642.75 378.799C642.72 378.839 642.67 378.859 642.61 378.859H640.36C640.3 378.859 640.26 378.839 640.22 378.799L639.39 377.969L638.77 378.589L639.71 379.529C639.85 379.669 640.02 379.739 640.21 379.739H642.77C642.95 379.739 643.13 379.669 643.27 379.529L644.09 378.709C644.22 378.569 644.3 378.399 644.3 378.209ZM650.77 379.739V378.859H647.37V376.839H650.77V375.959H647.37V373.949H650.77V373.069H646.46V379.739H650.77ZM657.987 375.619V374.359C657.987 374.159 657.907 373.999 657.767 373.859L657.177 373.269C657.047 373.139 656.887 373.069 656.697 373.069H653.067V379.739H653.977V376.909H656.707C656.887 376.909 657.057 376.839 657.187 376.709L657.777 376.119C657.907 375.989 657.987 375.819 657.987 375.619ZM657.067 375.499C657.067 375.559 657.047 375.599 657.007 375.639L656.677 375.969C656.647 376.009 656.597 376.029 656.537 376.029H653.977V373.949H656.547C656.607 373.949 656.647 373.969 656.687 374.009L657.017 374.339C657.047 374.369 657.077 374.419 657.077 374.479L657.067 375.499ZM660.757 379.739V378.679H659.687V379.739H660.757ZM667.105 379.739V378.959H663.705V377.789C663.705 377.709 663.755 377.639 663.825 377.609L666.695 376.319C666.955 376.209 667.105 375.959 667.105 375.679V374.239C667.105 374.049 667.055 373.899 666.915 373.759L666.445 373.289C666.305 373.149 666.135 373.069 665.935 373.069H664.025C663.825 373.069 663.655 373.149 663.515 373.289L662.825 373.979L663.375 374.519L663.985 373.909C664.025 373.869 664.075 373.849 664.135 373.849H665.825C665.885 373.849 665.935 373.869 665.975 373.909L666.205 374.139C666.245 374.179 666.255 374.229 666.255 374.279V375.509C666.255 375.589 666.205 375.659 666.135 375.689L663.265 376.969C663.005 377.089 662.855 377.329 662.855 377.609V379.739H667.105ZM673.379 378.569V374.239C673.379 374.049 673.329 373.899 673.189 373.759L672.719 373.289C672.579 373.149 672.409 373.069 672.209 373.069H670.299C670.099 373.069 669.929 373.149 669.789 373.289L669.319 373.759C669.179 373.899 669.129 374.049 669.129 374.239V378.569C669.129 378.759 669.179 378.909 669.319 379.049L669.789 379.519C669.929 379.659 670.099 379.739 670.299 379.739H672.209C672.409 379.739 672.579 379.659 672.719 379.519L673.189 379.049C673.329 378.909 673.379 378.759 673.379 378.569ZM672.529 378.519C672.529 378.579 672.519 378.629 672.479 378.669L672.249 378.899C672.209 378.939 672.159 378.959 672.099 378.959H670.409C670.349 378.959 670.299 378.939 670.259 378.899L670.029 378.669C669.989 378.629 669.979 378.579 669.979 378.529V374.279C669.979 374.229 669.989 374.179 670.029 374.139L670.259 373.909C670.299 373.869 670.349 373.849 670.409 373.849H672.099C672.159 373.849 672.209 373.869 672.249 373.909L672.479 374.139C672.519 374.179 672.529 374.229 672.529 374.279V378.519ZM679.283 379.739V378.959H678.003V373.069H676.993L675.773 374.159L676.313 374.689L677.163 373.929V378.959H675.873V379.739H679.283ZM685.927 378.569V374.239C685.927 374.049 685.877 373.899 685.737 373.759L685.267 373.289C685.127 373.149 684.957 373.069 684.757 373.069H682.847C682.647 373.069 682.477 373.149 682.337 373.289L681.867 373.759C681.727 373.899 681.677 374.049 681.677 374.239V376.029C681.677 376.219 681.727 376.369 681.867 376.509L682.337 376.979C682.477 377.119 682.647 377.199 682.847 377.199H684.087C684.287 377.199 684.457 377.119 684.597 376.979L685.077 376.499V378.529C685.077 378.579 685.067 378.629 685.027 378.669L684.797 378.899C684.757 378.939 684.707 378.959 684.647 378.959H682.957C682.897 378.959 682.847 378.939 682.807 378.899L682.197 378.289L681.647 378.829L682.337 379.519C682.477 379.659 682.647 379.739 682.847 379.739H684.757C684.957 379.739 685.127 379.659 685.267 379.519L685.737 379.049C685.877 378.909 685.927 378.759 685.927 378.569ZM685.077 375.389C685.077 375.449 685.067 375.499 685.027 375.539L684.197 376.359C684.167 376.399 684.107 376.419 684.047 376.419H682.957C682.897 376.419 682.847 376.399 682.807 376.359L682.577 376.129C682.537 376.089 682.527 376.029 682.527 375.979V374.279C682.527 374.229 682.537 374.179 682.577 374.139L682.807 373.909C682.847 373.869 682.897 373.849 682.957 373.849H684.647C684.707 373.849 684.757 373.869 684.797 373.909L685.027 374.139C685.067 374.179 685.077 374.229 685.077 374.279V375.389Z" fill="white"/>
<path d="M703.11 379.739V373.069H702.21V378.699L699.55 373.069H698.19V379.739H699.09V374.109L701.75 379.739H703.11ZM710.945 378.209V374.599C710.945 374.409 710.865 374.239 710.725 374.099L709.905 373.279C709.775 373.139 709.595 373.069 709.405 373.069H706.945C706.755 373.069 706.585 373.139 706.445 373.279L705.625 374.099C705.485 374.239 705.415 374.409 705.415 374.599V378.209C705.415 378.399 705.485 378.569 705.625 378.709L706.445 379.529C706.585 379.669 706.755 379.739 706.945 379.739H709.415C709.595 379.739 709.775 379.669 709.915 379.529L710.735 378.709C710.865 378.569 710.945 378.399 710.945 378.209ZM710.025 378.089C710.025 378.139 710.005 378.189 709.965 378.229L709.395 378.799C709.365 378.839 709.315 378.859 709.255 378.859H707.095C707.035 378.859 706.995 378.839 706.955 378.799L706.385 378.229C706.345 378.189 706.325 378.139 706.325 378.089V374.719C706.325 374.669 706.345 374.619 706.385 374.579L706.955 374.009C706.995 373.969 707.035 373.949 707.095 373.949H709.265C709.315 373.949 709.365 373.969 709.405 374.009L709.975 374.579C710.005 374.619 710.035 374.669 710.035 374.719L710.025 378.089ZM717.888 373.069H716.978L715.088 378.899L713.198 373.069H712.268L714.468 379.739H715.678L717.888 373.069ZM720.343 379.739V378.679H719.273V379.739H720.343ZM726.69 379.739V378.959H723.29V377.789C723.29 377.709 723.34 377.639 723.41 377.609L726.28 376.319C726.54 376.209 726.69 375.959 726.69 375.679V374.239C726.69 374.049 726.64 373.899 726.5 373.759L726.03 373.289C725.89 373.149 725.72 373.069 725.52 373.069H723.61C723.41 373.069 723.24 373.149 723.1 373.289L722.41 373.979L722.96 374.519L723.57 373.909C723.61 373.869 723.66 373.849 723.72 373.849H725.41C725.47 373.849 725.52 373.869 725.56 373.909L725.79 374.139C725.83 374.179 725.84 374.229 725.84 374.279V375.509C725.84 375.589 725.79 375.659 725.72 375.689L722.85 376.969C722.59 377.089 722.44 377.329 722.44 377.609V379.739H726.69ZM732.965 378.569V374.239C732.965 374.049 732.915 373.899 732.775 373.759L732.305 373.289C732.165 373.149 731.995 373.069 731.795 373.069H729.885C729.685 373.069 729.515 373.149 729.375 373.289L728.905 373.759C728.765 373.899 728.715 374.049 728.715 374.239V378.569C728.715 378.759 728.765 378.909 728.905 379.049L729.375 379.519C729.515 379.659 729.685 379.739 729.885 379.739H731.795C731.995 379.739 732.165 379.659 732.305 379.519L732.775 379.049C732.915 378.909 732.965 378.759 732.965 378.569ZM732.115 378.519C732.115 378.579 732.105 378.629 732.065 378.669L731.835 378.899C731.795 378.939 731.745 378.959 731.685 378.959H729.995C729.935 378.959 729.885 378.939 729.845 378.899L729.615 378.669C729.575 378.629 729.565 378.579 729.565 378.529V374.279C729.565 374.229 729.575 374.179 729.615 374.139L729.845 373.909C729.885 373.869 729.935 373.849 729.995 373.849H731.685C731.745 373.849 731.795 373.869 731.835 373.909L732.065 374.139C732.105 374.179 732.115 374.229 732.115 374.279V378.519ZM738.869 379.739V378.959H737.589V373.069H736.579L735.359 374.159L735.899 374.689L736.749 373.929V378.959H735.459V379.739H738.869ZM745.513 378.569V374.239C745.513 374.049 745.463 373.899 745.323 373.759L744.853 373.289C744.713 373.149 744.543 373.069 744.343 373.069H742.433C742.233 373.069 742.063 373.149 741.923 373.289L741.453 373.759C741.313 373.899 741.263 374.049 741.263 374.239V376.029C741.263 376.219 741.313 376.369 741.453 376.509L741.923 376.979C742.063 377.119 742.233 377.199 742.433 377.199H743.673C743.873 377.199 744.043 377.119 744.183 376.979L744.663 376.499V378.529C744.663 378.579 744.653 378.629 744.613 378.669L744.383 378.899C744.343 378.939 744.293 378.959 744.233 378.959H742.543C742.483 378.959 742.433 378.939 742.393 378.899L741.783 378.289L741.233 378.829L741.923 379.519C742.063 379.659 742.233 379.739 742.433 379.739H744.343C744.543 379.739 744.713 379.659 744.853 379.519L745.323 379.049C745.463 378.909 745.513 378.759 745.513 378.569ZM744.663 375.389C744.663 375.449 744.653 375.499 744.613 375.539L743.783 376.359C743.753 376.399 743.693 376.419 743.633 376.419H742.543C742.483 376.419 742.433 376.399 742.393 376.359L742.163 376.129C742.123 376.089 742.113 376.029 742.113 375.979V374.279C742.113 374.229 742.123 374.179 742.163 374.139L742.393 373.909C742.433 373.869 742.483 373.849 742.543 373.849H744.233C744.293 373.849 744.343 373.869 744.383 373.909L744.613 374.139C744.653 374.179 744.663 374.229 744.663 374.279V375.389Z" fill="white"/>
</svg>
