<svg width="461" height="1471" viewBox="0 0 461 1471" fill="none" xmlns="http://www.w3.org/2000/svg">
<g clip-path="url(#clip0)">
<path d="M183.89 413.3H230.73V460.14H183.89V413.3Z" fill="#D75568"/>
<path d="M183.89 367.43H230.73V414.27H183.89V367.43Z" fill="#FF8B98"/>
<path d="M183.89 321.57H230.73V368.41H183.89V321.57Z" fill="#FF8B98"/>
<path d="M230.17 321.57H277V368.41H230.17V321.57Z" fill="#FF8B98"/>
<path d="M275.93 321.57H322.77V368.41H275.93V321.57Z" fill="#D75568"/>
<path d="M321.79 321.57H368.63V368.41H321.79V321.57Z" fill="#D75568"/>
<path d="M183.89 275.7H230.73V322.54H183.89V275.7Z" fill="#FF8B98"/>
<path d="M230.17 275.7H277V322.54H230.17V275.7Z" fill="#FF8B98"/>
<path d="M276.44 275.7H323.28V322.54H276.44V275.7Z" fill="#FF8B98"/>
<path d="M321.79 275.7H368.63V322.54H321.79V275.7Z" fill="#FF8B98"/>
<path d="M183.89 229.83H230.73V276.67H183.89V229.83Z" fill="#FF8B98"/>
<path d="M230.17 229.83H277V276.67H230.17V229.83Z" fill="#FF8B98"/>
<path d="M276.44 229.83H323.28V276.67H276.44V229.83Z" fill="#FF8B98"/>
<path d="M321.79 229.83H368.63V276.67H321.79V229.83Z" fill="#D75568"/>
<path d="M183.89 184H230.73V230.84H183.89V184Z" fill="#FF8B98"/>
<path d="M230.17 184H277V230.84H230.17V184Z" fill="white"/>
<path d="M230.06 182.62H276.9V229.46H230.06V182.62Z" fill="black"/>
<path d="M367.66 184H414.5V230.84H367.66V184Z" fill="white"/>
<path d="M230.17 229.83H277V276.67H230.17V229.83Z" fill="#FF8B98"/>
<path d="M276.44 184H323.28V230.84H276.44V184Z" fill="#FF8B98"/>
<path d="M321.79 184H368.63V230.84H321.79V184Z" fill="#D75568"/>
<path d="M91.3799 138.1H138.22V184.94H91.3799V138.1Z" fill="#FF8B98"/>
<path d="M91.3799 138.1H138.22V184.94H91.3799V138.1Z" fill="#2346FA"/>
<path d="M413.53 46.3701H460.37V93.2101H413.53V46.3701Z" fill="#4463FC"/>
<path d="M367.66 321.57H414.5V368.41H367.66V321.57Z" fill="#FF8B98"/>
<path d="M367.66 275.7H414.5V322.54H367.66V275.7Z" fill="#FF8B98"/>
<path d="M367.66 229.83H414.5V276.67H367.66V229.83Z" fill="#FF8B98"/>
<path d="M369 182.62H415.84V229.46H369V182.62Z" fill="black"/>
<path d="M230.17 229.83H277V276.67H230.17V229.83Z" fill="#FF8B98"/>
<path d="M230.17 184H277V230.84H230.17V184Z" fill="white"/>
<path d="M254 182.62H276.9V229.83H254V182.62Z" fill="black"/>
<path d="M367.66 184H414.5V230.84H367.66V184Z" fill="white"/>
<path d="M321.79 321.57H275.93V368.41H321.79H322.77H368.63V321.57H322.77H321.79Z" fill="#D75568" stroke="#D75568" stroke-miterlimit="10"/>
<path d="M321.79 183.97V229.83V230.81V276.67H368.63V230.81V229.83V183.97H321.79Z" fill="#D75568" stroke="#D75568" stroke-miterlimit="10"/>
<path d="M91.3799 138.1H138.22V184.94H91.3799V138.1Z" fill="#FF8B98"/>
<path d="M91.9503 183.97V138.1H45.1104V183.97V184.94V229.83V230.81V275.7V276.67V322.54H91.3803H91.9503H138.22V276.67V275.7V230.81V229.83V183.97H91.9503Z" fill="#0B2BD0" stroke="#0B2BD0" stroke-miterlimit="10"/>
<path d="M414.5 46.37V0.5H368.63H367.66H321.79V47.34H367.66H368.63H413.53V93.21H460.37V46.37H414.5Z" fill="#4463FC" stroke="#4463FC" stroke-miterlimit="10"/>
<path d="M413.53 183.97V229.83V230.81V275.7V276.67V322.54H460.37V276.67V275.7V230.81V229.83V183.97H413.53Z" fill="#0B2BD0" stroke="#0B2BD0" stroke-miterlimit="10"/>
<path d="M367.66 229.83V275.7H323.28V184H276.44V229.86H230.73V184H183.89V414.3H230.17V460.17H277V414.27H368.62V368.41H414.5V229.83H367.66ZM321.79 367.43H277V322.54H367.65V367.43H321.79Z" fill="#FF8B98" stroke="#FF8B98" stroke-miterlimit="10"/>
<path d="M392.92 182.62H415.85V229.83H392.92V182.62Z" fill="black"/>
<path d="M414.5 92.23V46.37H368.63H367.66H323.28V0.5H277.01H276.44H230.73H230.17H185.17H183.89H138.32V46.37H138.22H137.66H91.3803V92.23H45.1104V139.07H91.3803V184.94H137.66H138.22H183.89H184.5H230.17H230.73H276.44H277.01H321.79H323.28H367.66H368.63H413.53H414.5H460.37V139.07V138.1V92.23H414.5Z" fill="#2346FA" stroke="#2346FA" stroke-miterlimit="10"/>
<path d="M230.73 413.3H184.5V368.41V367.43V322.54V321.57V276.67V275.7V230.81V229.83V183.97H137.66V229.83V230.81V275.7V276.67V321.57V322.54V367.43V368.41V413.3V414.27V460.14H183.85V506.08H230.69V460.14H230.73V413.3Z" fill="#D75568" stroke="#D75568" stroke-miterlimit="10"/>
<path d="M137.82 1422.81H91.9697V1469.65H137.82H138.81H184.66V1422.81H138.81H137.82Z" fill="#EC36A5" stroke="#EC36A5" stroke-miterlimit="10"/>
<path d="M276.66 1422.29H275.67H229.82V1469.13H275.67H276.66H322.51V1422.29H276.66Z" fill="#EC36A5" stroke="#EC36A5" stroke-miterlimit="10"/>
<path d="M137.82 1101.56H91.9697V1147.45V1148.4V1193.35V1194.3V1239.24V1240.19V1285.13V1286.08V1331.03V1331.97V1376.92V1377.87V1423.76H137.82H138.81H184.66V1377.87V1376.92V1331.97V1331.03V1286.08V1285.13V1240.19V1239.24V1194.3V1193.35V1148.4V1147.45V1101.56H138.81H137.82Z" fill="#FF8B98" stroke="#FF8B98" stroke-miterlimit="10"/>
<path d="M276.66 1101.56H275.67H229.82V1147.45V1148.4V1193.34V1194.3V1238.77V1240.18V1284.66V1285.61V1330.55V1331.5V1376.4V1377.39V1423.24H275.67H276.66H322.51V1377.39V1376.4V1331.5V1330.55V1285.61V1284.66V1240.18V1238.77V1194.3V1193.34V1148.4V1147.45V1101.56H276.66Z" fill="#FF8B98" stroke="#FF8B98" stroke-miterlimit="10"/>
<path d="M0.5 688.62V689.61V734.51V735.46V780.4V781.35V826.29V827.24V872.18V873.13V918.04V919.02V963.93V964.88V1010.77H47.34V964.88V963.93V919.02V918.04V873.13V872.18V827.24V826.29V781.35V780.4V735.46V734.51V689.61V688.62V642.77H0.5V688.62Z" fill="#FF8B98" stroke="#FF8B98" stroke-miterlimit="10"/>
<path d="M367.2 642.77V688.62V689.61V734.51V735.46V780.4V781.35V826.29V827.24V872.18V873.13V918.04V919.02V963.93V964.88V1010.77H414.04V964.88V963.93V919.02V918.04V873.13V872.18V827.24V826.29V781.35V780.4V735.46V734.51V689.61V688.62V642.77H367.2Z" fill="#FF8B98" stroke="#FF8B98" stroke-miterlimit="10"/>
<path d="M322.38 459.24H321.39H276.54H275.54H229.7V505.09H184.88V459.24H139.04H138.04H92.2002V505.09V506.08V550.98V551.93V596.88V597.82V642.77V643.72V688.62V689.61V734.51V735.46V780.4V781.35V826.29V827.24V872.18V873.13V918.04V919.02V963.93V964.88V1009.82V1010.77V1055.71V1056.66V1102.55H138.04H139.04H183.85H184.88H229.7H230.69H275.54H276.54H321.39H322.38H368.23V1056.66V1055.71V1010.77V1009.82V964.88V963.93V919.02V918.04V873.13V872.18V827.24V826.29V781.35V780.4V735.46V734.51V689.61V688.62V643.72V642.77V597.82V596.88V551.93V550.98V506.08V505.09V459.24H322.38Z" fill="#EC36A5" stroke="#EC36A5" stroke-miterlimit="10"/>
<path d="M367.2 505.09V550.98V551.93V596.88V597.82V643.72H414.04V597.82V596.88V551.93V550.98V505.09H367.2Z" fill="#861865" stroke="#861865" stroke-miterlimit="10"/>
<path d="M46.35 505.09H0.5V550.98V551.93V596.88V597.82V643.72H46.35V688.62V689.61V734.51V735.46V780.4V781.35V826.29V827.24V872.18V873.13V918.04V919.02V963.93V964.88V1009.82V1010.77V1055.71V1056.66V1102.55H93.19V1056.66V1055.71V1010.77V1009.82V964.88V963.93V919.02V918.04V873.13V872.18V827.24V826.29V781.35V780.4V735.46V734.51V689.61V688.62V643.72V642.77V597.82V596.88V551.93V550.98V506.08V505.09V459.24H46.35V505.09Z" fill="#861865" stroke="#861865" stroke-miterlimit="10"/>
</g>
<defs>
<clipPath id="clip0">
<rect width="460.87" height="1470.15" fill="white"/>
</clipPath>
</defs>
</svg>
