<svg width="418" height="1535" viewBox="0 0 418 1535" fill="none" xmlns="http://www.w3.org/2000/svg">
<g clip-path="url(#clip0)">
<path d="M185.51 418.68H138.87V465.31H185.51V418.68Z" fill="#EF55B3"/>
<path d="M94.2699 327.44H47.6299V374.07H94.2699V327.44Z" fill="#EF55B3"/>
<path d="M185.51 234.17H138.87V280.8H185.51V234.17Z" fill="#EF55B3"/>
<path d="M185.51 187.54H138.87V234.17H185.51V187.54Z" fill="white"/>
<path d="M165.23 187.54H140.9V234.17H165.23V187.54Z" fill="black"/>
<path d="M47.63 187.54H1V234.17H47.63V187.54Z" fill="white"/>
<path d="M278.78 140.9H232.14V187.54H278.78V140.9Z" fill="#EF55B3"/>
<path d="M94.2699 140.9H47.6299V187.54H94.2699V140.9Z" fill="#EF55B3"/>
<path d="M94.2699 1H47.6299V47.63H94.2699V1Z" fill="#4463FC" stroke="#4463FC" stroke-width="2" stroke-miterlimit="10"/>
<path d="M47.63 47.6299H1V94.2699H47.63V47.6299Z" fill="#4463FC" stroke="#4463FC" stroke-width="2" stroke-miterlimit="10"/>
<path d="M325.41 94.27V47.63H232.14V1H94.27V47.63H47.63V94.27H232.14V140.9H278.78V280.8H185.51V327.44H140.9V280.8H1V420.71H232.14V327.44H370V94.27H325.41ZM94.27 374.07H47.63V327.44H94.27V374.07Z" fill="#2346FA" stroke="#2346FA" stroke-width="2" stroke-miterlimit="10"/>
<path d="M25.33 187.54H1V234.17H25.33V187.54Z" fill="black"/>
<path d="M232.14 140.9V94.2695H1V187.54H94.27V280.8H138.87V327.44H185.51V280.8H232.14V187.54H278.78V140.9H232.14ZM185.51 234.17H140.9V187.54H185.51V234.17Z" fill="#EF55B3" stroke="#EF55B3" stroke-width="2" stroke-miterlimit="10"/>
<path d="M47.63 234.17H1V280.8H47.63V234.17Z" fill="#EF55B3" stroke="#EF55B3" stroke-width="2" stroke-miterlimit="10"/>
<path d="M278.78 327.44H232.14V374.07V418.68H185.51V465.31V511.95H232.14V465.31H278.78H325.41V420.71V418.68V374.07V327.44H278.78Z" fill="#A72572" stroke="#A72572" stroke-width="2" stroke-miterlimit="10"/>
<path d="M327.44 1487.2H325.41H280.8V1533.84H325.41H327.44H372.04V1487.2H327.44Z" fill="#171743" stroke="#171743" stroke-width="2" stroke-miterlimit="10"/>
<path d="M47.6299 1487.2V1533.84H94.2699H140.9V1487.2H94.2699H47.6299Z" fill="#171743" stroke="#171743" stroke-width="2" stroke-miterlimit="10"/>
<path d="M47.6299 929.62V976.26V1022.89V1069.53V1116.16V1162.79V1209.43V1254.03V1256.06V1300.67V1347.3V1393.94V1440.57V1487.2H94.2699V1440.57V1393.94V1347.3V1300.67V1256.06V1254.03V1209.43V1162.79V1116.16V1069.53V1022.89V976.26V929.62H47.6299Z" fill="#4463FC" stroke="#4463FC" stroke-width="2" stroke-miterlimit="10"/>
<path d="M416.65 976.26H370V1022.89H416.63L416.65 976.26Z" fill="#A72572" stroke="#A72572" stroke-width="2" stroke-miterlimit="10"/>
<path d="M47.63 976.26H1V1022.89H47.63V976.26Z" fill="#A72572" stroke="#A72572" stroke-width="2" stroke-miterlimit="10"/>
<path d="M370.02 651.85V698.48V745.12V791.75V836.36V838.38V882.99V929.62V976.26H416.65V929.62V882.99V838.38V836.36V791.75V745.12V698.48V651.85H370.02Z" fill="#EF55B3" stroke="#EF55B3" stroke-width="2" stroke-miterlimit="10"/>
<path d="M1 698.48V745.12V791.75V836.36V838.38V882.99V929.62V976.26H47.63V929.62V882.99V838.38V836.36V791.75V745.12V698.48V651.85H1V698.48Z" fill="#EF55B3" stroke="#EF55B3" stroke-width="2" stroke-miterlimit="10"/>
<path d="M325.41 929.62H323.38H278.78H232.14H185.51H140.9H138.87H94.2695V976.26V1022.89V1069.53V1116.16V1162.79V1209.43V1254.03V1256.06V1300.67V1347.3V1393.94V1440.57V1487.2H140.9V1440.57V1393.94V1347.3V1300.67V1256.06V1254.03V1209.43V1162.79V1116.16H185.51H232.14H278.78V1162.79V1209.43V1254.03V1256.06V1300.67V1347.3V1393.94V1440.57V1487.2H323.38H325.41H370.02V1440.57V1393.94V1347.3V1300.67V1256.06V1254.03V1209.43V1162.79V1116.16V1069.53V1022.89V976.26V929.62H325.41Z" fill="#2346FA" stroke="#2346FA" stroke-width="2" stroke-miterlimit="10"/>
<path d="M140.9 883V836.36H94.27V465.36H47.63V512H1V651.9H47.63V929.62H185.51V883H140.9Z" fill="#3F0071" stroke="#3F0071" stroke-width="2" stroke-miterlimit="10"/>
<path d="M370.02 511.95V465.31H325.41H323.38H278.78H232.14V511.95H185.51V465.31H140.9H138.87H94.2695V511.95V558.58V605.21V651.85V698.48V745.12V791.75V838.38H138.87V882.99H185.51V929.62H232.14H278.78H323.38H325.41H370.02V882.99V838.38V836.36V791.75V745.12V698.48V651.85H416.65V605.21V558.58V511.95H370.02Z" fill="#6A07BB" stroke="#6A07BB" stroke-width="2" stroke-miterlimit="10"/>
<path d="M232.14 187.54V234.17V280.8H278.78V234.17V187.54H232.14Z" fill="#A72572" stroke="#A72572" stroke-width="2" stroke-miterlimit="10"/>
<path d="M47.6299 234.17V280.8H94.2699V234.17V187.54H47.6299V234.17Z" fill="#A72572" stroke="#A72572" stroke-width="2" stroke-miterlimit="10"/>
</g>
<defs>
<clipPath id="clip0">
<rect width="417.65" height="1534.84" fill="white"/>
</clipPath>
</defs>
</svg>
