<svg width="437" height="1393" viewBox="0 0 437 1393" fill="none" xmlns="http://www.w3.org/2000/svg">
<g clip-path="url(#clip0)">
<path d="M392.12 131.38V174.83H348.67V218.29V261.75V305.21V348.67H392.12H435.58V305.21V261.75V218.29V174.83V131.38H392.12Z" fill="#3F0071" stroke="#3F0071" stroke-width="2" stroke-miterlimit="10"/>
<path d="M392.12 87.92V44.46H348.67V1H305.21H261.75H218.29H174.83V44.46H131.38H87.92V87.92H44.46V131.38H87.92H131.38H174.83H218.29H261.75H305.21H348.67V174.83H392.12V131.38H435.58V87.92H392.12Z" fill="#6A07BB" stroke="#6A07BB" stroke-width="2" stroke-miterlimit="10"/>
<path d="M392.12 479.04V522.5V565.96V609.41V652.87V696.33V739.79V783.25V826.71V870.16V913.62H435.58V870.16V826.71V783.25V739.79V696.33V652.87V609.41V565.96V522.5V479.04H392.12Z" fill="#0095C7" stroke="#0095C7" stroke-width="2" stroke-miterlimit="10"/>
<path d="M174.83 305.21H131.38V348.67H174.83H218.29V305.21H174.83Z" fill="#D75568" stroke="#D75568" stroke-width="2" stroke-miterlimit="10"/>
<path d="M305.21 174.83V218.29V261.75V305.21V348.67V392.12H261.75V435.58H305.21H348.67V392.12V348.67V305.21V261.75V218.29V174.83H305.21Z" fill="#D75568" stroke="#D75568" stroke-width="2" stroke-miterlimit="10"/>
<path d="M131.38 174.83V218.29V261.75H174.83V218.29V174.83H131.38Z" fill="#D75568" stroke="#D75568" stroke-width="2" stroke-miterlimit="10"/>
<path d="M131.38 1H87.9199V44.46H131.38H174.83V1H131.38Z" fill="#9229F6" stroke="#9229F6" stroke-width="2" stroke-miterlimit="10"/>
<path d="M87.92 44.46H44.46V87.92H87.92V44.46Z" fill="#9229F6" stroke="#9229F6" stroke-width="2" stroke-miterlimit="10"/>
<path d="M44.46 261.75V305.21V348.67H87.92V305.21V261.75H44.46Z" fill="#9229F6" stroke="#9229F6" stroke-width="2" stroke-miterlimit="10"/>
<path d="M305.21 131.38H261.75H218.29H174.83H131.38H87.92H44.46H1V174.83V218.29H44.46V261.75H87.92V218.29H131.38V174.83H174.83V218.29H218.29V261.75H261.75V218.29H305.21V174.83H348.67V131.38H305.21Z" fill="black" stroke="black" stroke-width="2" stroke-miterlimit="10"/>
<path d="M348.67 1348.2H305.21V1391.66H348.67H392.12V1348.2H348.67Z" fill="#171743" stroke="#171743" stroke-width="2" stroke-miterlimit="10"/>
<path d="M348.67 1044H305.21V1087.45V1130.91V1174.37V1217.83V1261.29V1304.74V1348.2H348.67H392.12V1304.74V1261.29V1217.83V1174.37V1130.91V1087.45V1044H348.67Z" fill="#6A07BB" stroke="#6A07BB" stroke-width="2" stroke-miterlimit="10"/>
<path d="M261.75 218.29V261.75H218.29V218.29H174.83V261.75H131.38V218.29H87.9199V261.75V305.21V348.67H131.38V305.21H174.83H218.29V348.67H174.83H131.38V392.12H174.83H218.29V435.58V479.04H261.75V435.58V392.12H305.21V348.67V305.21V261.75V218.29H261.75Z" fill="#FF8996" stroke="#FF8996" stroke-width="2" stroke-miterlimit="10"/>
<path d="M131.38 1044V1087.45V1130.91V1174.37V1217.83V1261.29V1304.74V1348.2H174.83V1304.74V1261.29V1217.83V1174.37V1130.91V1087.45V1044H131.38Z" fill="#6A07BB" stroke="#6A07BB" stroke-width="2" stroke-miterlimit="10"/>
<path d="M87.9199 1044V1087.45V1130.91V1174.37V1217.83V1261.29V1304.74V1348.2H131.38V1304.74V1261.29V1217.83V1174.37V1130.91V1087.45V1044H87.9199Z" fill="#9229F6" stroke="#9229F6" stroke-width="2" stroke-miterlimit="10"/>
<path d="M435.58 913.62H392.12V957.08H435.58V913.62Z" fill="#FF8996" stroke="#FF8996" stroke-width="2" stroke-miterlimit="10"/>
<path d="M87.92 913.62H44.46V957.08H87.92V913.62Z" fill="#FF8996" stroke="#FF8996" stroke-width="2" stroke-miterlimit="10"/>
<path d="M44.46 479.04V522.5V565.96V609.41V652.87V696.33V739.79V783.25V826.71V870.16V913.62H87.92V870.16V826.71V783.25V739.79V696.33V652.87V609.41V565.96V522.5V479.04H44.46Z" fill="#0095C7" stroke="#0095C7" stroke-width="2" stroke-miterlimit="10"/>
<path d="M348.67 435.58H305.21H261.75V479.04H218.29V435.58H174.83H131.38H87.9199V479.04V522.5V565.96V609.41V652.87V696.33V739.79V783.25V826.71V870.16V913.62V957.08V1000.54V1044H131.38H174.83H218.29H261.75H305.21H348.67H392.12V1000.54V957.08V913.62V870.16V826.71V783.25V739.79V696.33V652.87V609.41V565.96V522.5V479.04V435.58H348.67Z" fill="#00D9DA" stroke="#00D9DA" stroke-width="2" stroke-miterlimit="10"/>
<path d="M131.38 1348.2H87.9199V1391.66H131.38H174.83V1348.2H131.38Z" fill="#171743" stroke="#171743" stroke-width="2" stroke-miterlimit="10"/>
</g>
<defs>
<clipPath id="clip0">
<rect width="436.58" height="1392.66" fill="white"/>
</clipPath>
</defs>
</svg>
