<svg width="508" height="1516" viewBox="0 0 508 1516" fill="none" xmlns="http://www.w3.org/2000/svg">
<g clip-path="url(#clip0)">
<path d="M369 138.1H139.34V184.66H230.2V275.19H185.9V229.49H139.34V367.49H185V413.19H276.28V458.89H322.84V413.19H369V184.66H415.08V138.1H369ZM322.44 184.66V229.49H276.76V184.66H322.44ZM231.6 366.59H185.9V321.75H276.32V366.59H231.6Z" fill="#EF55B3" stroke="#EF55B3" stroke-width="2" stroke-miterlimit="10"/>
<path d="M185.9 183.79H139.34V230.35H185.9V183.79Z" fill="white"/>
<path d="M163 183.19H140.68V229.75H163V183.19Z" fill="black"/>
<path d="M414.66 1467.52H413.94H368.1V1514.08H413.94H414.66H460.5V1467.52H414.66Z" fill="#171743" stroke="#171743" stroke-width="2" stroke-miterlimit="10"/>
<path d="M184.81 1467.52H138.98V1514.08H184.81H185.54H231.37V1467.52H185.54H184.81Z" fill="#171743" stroke="#171743" stroke-width="2" stroke-miterlimit="10"/>
<path d="M138.98 962.85V1008.73V1009.41V1054.62V1055.29V1100.45V1101.18V1146.33V1147.01V1192.21V1192.89V1238.09V1238.77V1284.05V1284.65V1329.92V1330.61V1375.79V1376.48V1421.63V1422.35V1468.19H185.54V1422.35V1421.63V1376.48V1375.79V1330.61V1329.92V1284.65V1284.05V1238.77V1238.09V1192.89V1192.21V1147.01V1146.33V1101.18V1100.45V1055.29V1054.62V1009.41V1008.73V962.85H138.98Z" fill="#005E9E" stroke="#005E9E" stroke-width="2" stroke-miterlimit="10"/>
<path d="M506.32 962.85H459.76V1009.41H506.32V962.85Z" fill="#A72572" stroke="#A72572" stroke-width="2" stroke-miterlimit="10"/>
<path d="M139.74 962.85H93.1797V1009.41H139.74V962.85Z" fill="#A72572" stroke="#A72572" stroke-width="2" stroke-miterlimit="10"/>
<path d="M459.76 641.78V687.62V688.35V733.51V734.18V779.39V780.07V825.26V825.95V871.14V871.82V916.97V917.7V963.53H506.32V917.7V916.97V871.82V871.14V825.95V825.26V780.07V779.39V734.18V733.51V688.35V687.62V641.78H459.76Z" fill="#EF55B3" stroke="#EF55B3" stroke-width="2" stroke-miterlimit="10"/>
<path d="M93.1797 687.62V688.35V733.51V734.18V779.39V780.07V825.26V825.95V871.14V871.82V916.97V917.7V963.53H139.74V917.7V916.97V871.82V871.14V825.95V825.26V780.07V779.39V734.18V733.51V688.35V687.62V641.78H93.1797V687.62Z" fill="#EF55B3" stroke="#EF55B3" stroke-width="2" stroke-miterlimit="10"/>
<path fill-rule="evenodd" clip-rule="evenodd" d="M414.66 962.85H413.94H368.83H368.1H323.03H322.27H277.2H276.47H231.37H230.65H184.81V1008.73V1009.41V1054.62V1055.29V1100.45V1101.18V1146.33V1147.01V1192.21V1192.89V1238.09V1238.77V1284.05V1284.65V1329.92V1330.61V1375.79V1376.48V1421.63V1422.35V1468.19H231.37V1422.35V1421.63V1376.48V1375.79V1330.61V1329.92V1284.65V1284.05V1238.77V1238.09V1192.89V1192.21V1147.01V1146.33V1101.18H276.47H277.2H322.27H323.03H368.1V1146.33V1147.01V1192.21V1192.89V1238.09V1238.77V1284.05V1284.65V1329.92V1330.61V1375.79V1376.48V1421.63V1422.35V1468.19H413.94V1468.66H460.5V1422.35V1422.1V1376.48V1375.79V1330.61V1329.92V1284.65V1284.05V1238.77V1238.09V1192.89V1192.21V1147.01V1146.33V1101.18V1100.45V1055.29V1054.62V1009.41V1008.73V962.85H414.66Z" fill="#002E73" stroke="#002E73" stroke-width="2" stroke-miterlimit="10"/>
<path d="M231.37 916.969V871.14H185.54V825.95V825.26V780.07V779.39V734.18V733.51V688.349V687.62V642.469V641.78V595.909H139.74V550.02H93.1797V595.909V596.59V642.469H138.98V687.62V688.349V733.51V734.18V779.39V780.07V825.26V825.95V871.14V871.82V916.969V917.7V963.53H184.81H185.54H230.65H231.37H277.2V916.969H231.37Z" fill="#3F0071" stroke="#3F0071" stroke-width="2" stroke-miterlimit="10"/>
<path d="M460.5 504.16H459.76H414.66V458.31H368.83H368.1H322.27V504.16H277.2V458.31H231.37H230.65H184.81V504.16V504.88V550.02V550.72V595.91V596.59V641.78V642.47V687.62V688.35V733.51V734.18V779.39V780.07V825.26V825.95V871.82H230.65V917.7H276.47V963.53H322.27H323.03H368.1H368.83H413.94H414.66H460.5V917.7V916.97V871.82V871.14V825.95V825.26V780.07V779.39V734.18V733.51V688.35V687.62V642.47H506.32V596.59V595.91V550.72V550.02V504.16H460.5Z" fill="#6600CC" stroke="#6600CC" stroke-width="2" stroke-miterlimit="10"/>
<path d="M322.88 183.79H276.32V230.35H322.88V183.79Z" fill="white"/>
<path d="M300.17 182.39H276.31V231.52H300.17V182.39Z" fill="black"/>
<path d="M277.3 320.89H231.6H230.73H185.04V367.45H230.73H231.6H277.3V320.89Z" fill="#A72572"/>
<path d="M231.6 230.35V229.49V183.79H185.04V229.49V230.35V276.05H231.6V230.35Z" fill="#A72572"/>
<path d="M368.52 183.79V229.49V230.35V275.19V276.05V320.89V321.75V366.59V367.45V412.29H322.44V458.31H276.47V504.88H323.03V458.85H368.52H369H415.08V413.15V412.29V367.45V366.59V321.75V320.89V276.05V275.19V230.35V229.49V183.79H368.52Z" fill="#A72572"/>
<path d="M369 46.7V1H322.44V47.56H368.52V93.26H415.08V46.7H369Z" fill="#DD5065" stroke="#DD5065" stroke-width="2" stroke-miterlimit="10"/>
<path d="M230.73 412.29H185.9V366.59H139.34V412.29V413.15V457.99V458.85V503.69V504.55V549.38V550.25V595.95H185.04H185.9H230.73H231.6H277.3V550.25V549.38V504.55V503.69V458.85V457.99V412.29H231.6H230.73Z" fill="#00D9DA" stroke="#00D9DA" stroke-width="2" stroke-miterlimit="10"/>
<path d="M140.68 185.22V183.79V138.66H94.1201V183.79V185.22V230.35H140.68V185.22Z" fill="#00D9DA" stroke="#00D9DA" stroke-width="2" stroke-miterlimit="10"/>
<path d="M414.65 138.1V183.79V184.66V229.49V230.35V275.19V276.05V320.89V321.75V366.59V367.45V412.29V413.15V457.99V458.31H413.94V504.88H414.65V549.38V550.25V595.95H461.21V550.25V549.38V504.55V503.69V458.85V457.99V413.15V412.29V367.45V366.59V321.75V320.89V276.05V275.19V230.35V229.49V184.66V183.79V138.1H414.65Z" fill="#00D9DA" stroke="#00D9DA" stroke-width="2" stroke-miterlimit="10"/>
<path d="M93.6397 229.49V275.19V276.05V320.89V321.75V366.59V367.45V412.29V413.15V457.99V458.85V503.69V504.16H93.1797V550.72H139.74V550.25H140.2V504.55V503.69V458.85V457.99V413.15V412.29V367.45V366.59V321.75V320.89V276.05V275.19V229.49H93.6397Z" fill="#0095C7" stroke="#0095C7" stroke-width="2" stroke-miterlimit="10"/>
<path d="M415.08 92.4H414.65H369V46.7H322.88V1H276.76H276.32H231.6H230.2H185.04V46.7H139.34V92.4H93.88H93.64H47.56H47.32H1V138.96H47.32H47.56H93.64H93.88H139.34H140.2H185.04H185.9H230.2H231.6H276.32H276.76H322.44H322.88H368.52H369H414.65H415.08H461.21V92.4H415.08Z" fill="#FF8996" stroke="#FF8996" stroke-width="2" stroke-miterlimit="10"/>
</g>
<defs>
<clipPath id="clip0">
<rect width="507.32" height="1515.08" fill="white"/>
</clipPath>
</defs>
</svg>
