<svg width="750" height="422" viewBox="0 0 750 422" fill="none" xmlns="http://www.w3.org/2000/svg">
<path d="M67 0L67 400.07" stroke="#B77FF8" stroke-width="21.0121"/>
<path d="M77.9297 385.073L78.8328 381.849L79.7359 377.819L80.639 376.207L81.5421 371.371L82.4452 370.162L83.3483 368.953L84.2514 368.147L85.1545 367.341L86.3587 364.923L87.2618 364.117L88.1649 360.893L89.068 360.087L89.9711 359.281L90.8742 358.878L91.7773 358.072L92.6804 357.669L93.8845 357.266L94.7877 356.863L95.6907 356.46L96.5939 356.057L97.497 355.654L98.4001 355.251L99.3032 354.848L100.206 354.445L101.109 354.042L102.314 353.236L103.217 352.027H104.12L105.023 351.221L105.926 350.818L106.829 350.415H107.732L108.635 350.012L109.839 349.206L110.743 348.803L111.646 347.997L112.549 347.594L113.452 346.788L114.355 346.385H115.258L116.161 345.579L117.064 344.37L118.268 343.564L119.171 342.355L120.075 341.549L120.978 340.743L121.881 340.34L122.784 339.937L123.687 339.534L124.59 339.131L125.794 338.728L126.697 338.325H127.6L128.504 337.922L129.407 337.519H130.31H131.213L132.116 337.116H133.019H134.223L135.126 336.713L136.029 336.31H136.933H137.836L138.739 335.907H139.642H140.545L141.749 335.504H142.652L143.555 335.101H144.458L145.362 334.698H146.265L147.168 334.295L148.071 333.892H148.974H150.178L151.081 333.086L151.984 332.683L152.887 332.28L153.791 331.877H154.694L155.597 331.474L156.5 331.071H157.403L158.607 330.668L159.51 329.862H160.413L161.316 329.459L162.22 329.056L163.123 327.847L164.026 326.638L164.929 326.235L166.133 325.832L167.036 325.429L167.939 325.026L168.842 324.22H169.745L170.648 323.817L171.552 323.414H172.455L173.358 322.608L174.562 322.205H175.465H176.368L177.271 321.802L178.174 320.995H179.077L179.981 320.593H180.884H182.088H182.991L183.894 320.19L184.797 319.787H185.7L186.603 319.384L187.506 318.98H188.41L189.313 318.577L190.517 318.174L191.42 317.771L192.323 317.368H193.226H194.129L195.032 316.562L195.935 316.159L196.839 315.756L198.043 315.354L198.946 314.95L199.849 314.547H200.752L201.655 314.144L202.558 313.741H203.461H204.364L205.268 313.338H206.472H207.375H208.278L209.181 312.935H210.084L210.987 312.532H211.89H212.793H213.998H214.901L215.804 312.129H216.707H217.61L218.513 311.726H219.416L220.319 311.323H221.222H222.427H223.33H224.233L225.136 310.92H226.039L226.942 310.517H227.845L228.748 310.114H229.952L230.855 309.711H231.759L232.662 309.308L233.565 308.905H234.468L235.371 308.502L236.274 308.099L237.177 307.696L238.381 307.293H239.284L240.188 306.89L241.091 306.487L241.994 304.875L242.897 304.472L243.8 302.457L244.703 300.039L245.907 298.024L246.81 296.412L247.713 293.994L248.617 293.188L249.52 291.979L250.423 290.367L251.326 288.755L252.229 287.949L253.132 287.546L254.336 284.725L255.239 283.919L256.142 283.516L257.046 282.71L257.949 282.307L258.852 281.904L259.755 281.098L260.658 280.695L261.561 279.889L262.765 279.083L263.668 276.665L264.571 275.053L265.475 273.844L266.378 273.441L267.281 272.635L268.184 271.829L269.087 271.023L270.291 269.814L271.194 268.202L272.097 265.784L273 264.172L273.904 263.366L274.807 262.157L275.71 261.754L276.613 260.948L277.516 259.739L278.72 258.933L279.623 258.53L280.526 258.127L281.429 255.306L282.332 254.097L283.236 252.888L284.139 252.082L285.042 251.679L286.246 251.276L287.149 250.47L288.052 250.067L288.955 248.052H289.858L290.761 247.246L291.665 246.037L292.568 245.634L293.471 245.231L294.675 240.798L295.578 239.589L296.481 237.977L297.384 236.365L298.287 235.962L299.19 235.156L300.094 231.932L300.997 231.126L302.201 229.111L303.104 227.499L304.007 226.29L304.91 225.484L305.813 225.081L306.716 224.678L307.619 223.469L308.523 222.663H309.426L310.63 222.26L311.533 221.454L312.436 221.051H313.339L314.242 220.648L315.145 220.245H316.048L316.951 219.036L318.156 218.633H319.059L319.962 217.827H320.865L321.768 217.424L322.671 217.021L323.574 216.618H324.477L325.38 215.409L326.585 215.006L327.488 214.603L328.391 211.782L329.294 211.379L330.197 210.976L331.1 210.573L332.003 210.17H332.906L334.11 209.767L335.014 209.364L335.917 208.558L336.82 207.349L337.723 204.125L338.626 202.513L339.529 200.901L340.432 200.095L341.335 198.886H342.539L343.443 198.483L344.346 197.677H345.249L346.152 196.871L347.055 196.065H347.958L348.861 195.662L349.764 195.259L350.968 194.856L351.872 194.453L352.775 194.05H353.678L354.581 193.244L355.484 192.841L356.387 192.438L357.29 192.035L358.494 191.229L359.397 190.02L360.301 188.408H361.204L362.107 187.602H363.01L363.913 186.796H364.816L365.719 185.99L366.923 185.587H367.826H368.73H369.633L370.536 185.184H371.439L372.342 184.781L373.245 184.378H374.449L375.352 183.975H376.255H377.159L378.062 183.572H378.965L379.868 183.169L380.771 182.363L381.674 181.96H382.878L383.781 181.557L384.684 181.154L385.587 180.751H386.491H387.394L388.297 180.348H389.2L390.404 179.945H391.307L392.21 179.542L393.113 179.139H394.016L394.92 178.736H395.823L396.726 178.333H397.629L398.833 177.93L399.736 177.527L400.639 177.124L401.542 176.721L402.445 176.318L403.349 175.915H404.252L405.155 175.109L406.359 174.303H407.262L408.165 173.9H409.068L409.971 173.497L410.874 172.691L411.778 172.288L412.681 171.079L413.584 170.676L414.788 169.87L415.691 169.467L416.594 169.064L417.497 168.661L418.4 168.258H419.303H420.207L421.11 167.855H422.314L423.217 167.452L424.12 166.646L425.023 166.243L425.926 165.84H426.829L427.732 163.825H428.636H429.539L430.743 163.422L431.646 163.019L432.549 162.213L433.452 161.81L434.355 161.407L435.258 161.004H436.161L437.065 160.601L438.269 160.198L439.172 159.794H440.075H440.978L441.881 159.391L442.784 158.988H443.687L444.59 158.585H445.493H446.698H447.601L448.504 158.183H449.407L450.31 157.779H451.213H452.116L453.019 157.376H453.922L455.127 156.973L456.03 156.167H456.933L457.836 155.764H458.739H459.642L460.545 155.361H461.448L462.652 154.958L463.556 154.555H464.459H465.362H466.265L467.168 154.152H468.071L468.974 153.749L469.877 153.346L471.081 152.943H471.985H472.888H473.791L474.694 152.137L475.597 151.734H476.5L477.403 151.331L478.607 150.928L479.51 150.525H480.414L481.317 148.913L482.22 148.51H483.123L484.026 147.704H484.929L485.832 147.301H487.036L487.939 146.898L488.843 146.495L489.746 145.689L490.649 145.286L491.552 144.883L492.455 144.48L493.358 144.077L494.562 143.674H495.465L496.368 143.271H497.272H498.175H499.078L499.981 142.868H500.884L501.787 142.062H502.991L503.894 141.256L504.797 140.853L505.7 140.45L506.604 140.047L507.507 139.644H508.41L509.313 138.032H510.517L511.42 137.629L512.323 137.226H513.226L514.129 136.823L515.033 136.42H515.936H516.839H517.742L518.946 136.017H519.849H520.752L521.655 135.614L522.558 135.211L523.462 134.405L524.365 133.599L525.268 133.196L526.472 132.793H527.375L528.278 132.39H529.181L530.084 131.584H530.987L531.891 131.181H532.794H533.697H534.901L535.804 130.778H536.707H537.61H538.513H539.416L540.319 130.375H541.223H542.427H543.33L544.233 129.972L545.136 129.166H546.039H546.942H547.845H548.748L549.652 128.763H550.856L551.759 128.36H552.662H553.565H554.468L555.371 126.748H556.274H557.177L558.081 126.345H559.285H560.188H561.091H561.994H562.897L563.8 125.942L564.703 125.539H565.606L566.811 125.136H567.714H568.617H569.52L570.423 124.33H571.326H572.229L573.132 123.927H574.035H575.24L576.143 123.524L577.046 122.718H577.949H578.852H579.755L580.658 122.315L581.561 121.912H582.765H583.669H584.572H585.475L586.378 121.509H587.281H588.184H589.087H589.99H591.194L592.098 121.106H593.001H593.904H594.807H595.71H596.613L597.516 120.703H598.72H599.623H600.526L601.43 120.3H602.333H603.236L604.139 119.897H605.042H605.945H607.149L608.052 119.494H608.956H609.859H610.762H611.665H612.568L613.471 119.091H614.675H615.578H616.481L617.384 118.688H618.288H619.191H620.094H620.997H621.9H623.104L624.007 118.285L624.91 117.882H625.813H626.717H627.62L628.523 117.479H629.426H630.63H631.533H632.436H633.339H634.242L635.146 117.076H636.049H636.952H637.855L639.059 116.673L639.962 116.27H640.865H641.768H642.671H643.575L644.478 115.867H645.381H646.284H647.488H648.391H649.294L650.197 115.464H651.1L652.004 115.061H652.907L653.81 114.658H655.014H655.917H656.82L657.723 114.255H658.626H659.529L660.432 113.852H661.336L662.239 113.449H663.443L664.346 113.046L665.249 112.643H666.152H667.055H667.958H668.862H669.765L670.969 112.24L671.872 111.837H672.775H673.678L674.581 111.434H675.484H676.387H677.29H678.194H679.398L680.301 111.031H681.204H682.107L683.01 110.628H683.913L684.816 110.225H685.719H686.924H687.827L688.73 109.822H689.633H690.536H691.439L692.342 109.419H693.245L694.148 109.016H695.353H696.256L697.159 108.613H698.062H698.965L699.868 108.21L700.771 107.807H701.674L702.878 107.404L703.782 107.001H704.685L705.588 106.598H706.491L707.394 106.195H708.297L709.2 105.792H710.103L711.307 105.389H712.211L713.114 104.986H714.017L714.92 104.583L715.823 104.18L716.726 103.777H717.629L718.833 103.374L719.736 102.971L720.639 100.553L721.543 99.3441L722.446 95.3141L723.349 93.2991L724.252 92.0901L725.155 90.8811L726.058 90.4781L727.262 89.6721L728.165 88.0601L729.068 87.254L729.972 86.851L730.875 86.448L731.778 84.433L732.681 84.03L733.584 83.627L734.788 82.821H735.691L736.594 82.418L737.497 82.015L738.401 81.612H739.304L740.207 81.209H741.11L742.013 80.806H743.217L744.12 80.403H745.023H745.927L746.83 80H747.733H748.636V385.073H747.733H746.83H745.927H745.023H744.12H743.217H742.013H741.11H740.207H739.304H738.401H737.497H736.594H735.691H734.788H733.584H732.681H731.778H730.875H729.972H729.068H728.165H727.262H726.058H725.155H724.252H723.349H722.446H721.543H720.639H719.736H718.833H717.629H716.726H715.823H714.92H714.017H713.114H712.211H711.307H710.103H709.2H708.297H707.394H706.491H705.588H704.685H703.782H702.878H701.674H700.771H699.868H698.965H698.062H697.159H696.256H695.353H694.148H693.245H692.342H691.439H690.536H689.633H688.73H687.827H686.924H685.719H684.816H683.913H683.01H682.107H681.204H680.301H679.398H678.194H677.29H676.387H675.484H674.581H673.678H672.775H671.872H670.969H669.765H668.862H667.958H667.055H666.152H665.249H664.346H663.443H662.239H661.336H660.432H659.529H658.626H657.723H656.82H655.917H655.014H653.81H652.907H652.004H651.1H650.197H649.294H648.391H647.488H646.284H645.381H644.478H643.575H642.671H641.768H640.865H639.962H639.059H637.855H636.952H636.049H635.146H634.242H633.339H632.436H631.533H630.63H629.426H628.523H627.62H626.717H625.813H624.91H624.007H623.104H621.9H620.997H620.094H619.191H618.288H617.384H616.481H615.578H614.675H613.471H612.568H611.665H610.762H609.859H608.956H608.052H607.149H605.945H605.042H604.139H603.236H602.333H601.43H600.526H599.623H598.72H597.516H596.613H595.71H594.807H593.904H593.001H592.098H591.194H589.99H589.087H588.184H587.281H586.378H585.475H584.572H583.669H582.765H581.561H580.658H579.755H578.852H577.949H577.046H576.143H575.24H574.035H573.132H572.229H571.326H570.423H569.52H568.617H567.714H566.811H565.606H564.703H563.8H562.897H561.994H561.091H560.188H559.285H558.081H557.177H556.274H555.371H554.468H553.565H552.662H551.759H550.856H549.652H548.748H547.845H546.942H546.039H545.136H544.233H543.33H542.427H541.223H540.319H539.416H538.513H537.61H536.707H535.804H534.901H533.697H532.794H531.891H530.987H530.084H529.181H528.278H527.375H526.472H525.268H524.365H523.462H522.558H521.655H520.752H519.849H518.946H517.742H516.839H515.936H515.033H514.129H513.226H512.323H511.42H510.517H509.313H508.41H507.507H506.604H505.7H504.797H503.894H502.991H501.787H500.884H499.981H499.078H498.175H497.272H496.368H495.465H494.562H493.358H492.455H491.552H490.649H489.746H488.843H487.939H487.036H485.832H484.929H484.026H483.123H482.22H481.317H480.414H479.51H478.607H477.403H476.5H475.597H474.694H473.791H472.888H471.985H471.081H469.877H468.974H468.071H467.168H466.265H465.362H464.459H463.556H462.652H461.448H460.545H459.642H458.739H457.836H456.933H456.03H455.127H453.922H453.019H452.116H451.213H450.31H449.407H448.504H447.601H446.698H445.493H444.59H443.687H442.784H441.881H440.978H440.075H439.172H438.269H437.065H436.161H435.258H434.355H433.452H432.549H431.646H430.743H429.539H428.636H427.732H426.829H425.926H425.023H424.12H423.217H422.314H421.11H420.207H419.303H418.4H417.497H416.594H415.691H414.788H413.584H412.681H411.778H410.874H409.971H409.068H408.165H407.262H406.359H405.155H404.252H403.349H402.445H401.542H400.639H399.736H398.833H397.629H396.726H395.823H394.92H394.016H393.113H392.21H391.307H390.404H389.2H388.297H387.394H386.491H385.587H384.684H383.781H382.878H381.674H380.771H379.868H378.965H378.062H377.159H376.255H375.352H374.449H373.245H372.342H371.439H370.536H369.633H368.73H367.826H366.923H365.719H364.816H363.913H363.01H362.107H361.204H360.301H359.397H358.494H357.29H356.387H355.484H354.581H353.678H352.775H351.872H350.968H349.764H348.861H347.958H347.055H346.152H345.249H344.346H343.443H342.539H341.335H340.432H339.529H338.626H337.723H336.82H335.917H335.014H334.11H332.906H332.003H331.1H330.197H329.294H328.391H327.488H326.585H325.38H324.477H323.574H322.671H321.768H320.865H319.962H319.059H318.156H316.951H316.048H315.145H314.242H313.339H312.436H311.533H310.63H309.426H308.523H307.619H306.716H305.813H304.91H304.007H303.104H302.201H300.997H300.094H299.19H298.287H297.384H296.481H295.578H294.675H293.471H292.568H291.665H290.761H289.858H288.955H288.052H287.149H286.246H285.042H284.139H283.236H282.332H281.429H280.526H279.623H278.72H277.516H276.613H275.71H274.807H273.904H273H272.097H271.194H270.291H269.087H268.184H267.281H266.378H265.475H264.571H263.668H262.765H261.561H260.658H259.755H258.852H257.949H257.046H256.142H255.239H254.336H253.132H252.229H251.326H250.423H249.52H248.617H247.713H246.81H245.907H244.703H243.8H242.897H241.994H241.091H240.188H239.284H238.381H237.177H236.274H235.371H234.468H233.565H232.662H231.759H230.855H229.952H228.748H227.845H226.942H226.039H225.136H224.233H223.33H222.427H221.222H220.319H219.416H218.513H217.61H216.707H215.804H214.901H213.998H212.793H211.89H210.987H210.084H209.181H208.278H207.375H206.472H205.268H204.364H203.461H202.558H201.655H200.752H199.849H198.946H198.043H196.839H195.935H195.032H194.129H193.226H192.323H191.42H190.517H189.313H188.41H187.506H186.603H185.7H184.797H183.894H182.991H182.088H180.884H179.981H179.077H178.174H177.271H176.368H175.465H174.562H173.358H172.455H171.552H170.648H169.745H168.842H167.939H167.036H166.133H164.929H164.026H163.123H162.22H161.316H160.413H159.51H158.607H157.403H156.5H155.597H154.694H153.791H152.887H151.984H151.081H150.178H148.974H148.071H147.168H146.265H145.362H144.458H143.555H142.652H141.749H140.545H139.642H138.739H137.836H136.933H136.029H135.126H134.223H133.019H132.116H131.213H130.31H129.407H128.504H127.6H126.697H125.794H124.59H123.687H122.784H121.881H120.978H120.075H119.171H118.268H117.064H116.161H115.258H114.355H113.452H112.549H111.646H110.743H109.839H108.635H107.732H106.829H105.926H105.023H104.12H103.217H102.314H101.109H100.206H99.3032H98.4001H97.497H96.5939H95.6907H94.7877H93.8845H92.6804H91.7773H90.8742H89.9711H89.068H88.1649H87.2618H86.3587H85.1545H84.2514H83.3483H82.4452H81.5421H80.639H79.7359H78.8328H77.9297Z" fill="white"/>
<path d="M67.0005 391.666L748.633 391.666" stroke="#B77FF8" stroke-width="16.8097"/>
<path d="M77.9258 304.255H748.632" stroke="#B77FF8" stroke-width="0.840484" stroke-miterlimit="10"/>
<path d="M77.9258 207.6H748.632" stroke="#B77FF8" stroke-width="0.840484" stroke-miterlimit="10"/>
<path d="M77.9258 110.944H748.632" stroke="#B77FF8" stroke-width="0.840484" stroke-miterlimit="10"/>
<path d="M77.9258 14.2881H748.632" stroke="#B77FF8" stroke-width="0.840484" stroke-miterlimit="10"/>
<path d="M22.6509 388.204V386.09C22.6509 385.626 22.2641 385.2 21.7999 385.136L20.1495 384.942V382.118H21.0134C21.0778 382.118 21.1423 382.144 21.1939 382.196L21.9546 382.956L22.6509 382.234L21.787 381.37C21.6065 381.19 21.4002 381.113 21.1552 381.113H20.1495V379.888H19.479V381.113H18.499C18.254 381.113 18.0348 381.203 17.8543 381.383L17.2483 381.989C17.0678 382.17 16.9904 382.376 16.9904 382.621V384.736C16.9904 385.2 17.3773 385.626 17.8414 385.69L19.4919 385.896V388.707H18.628C18.5635 388.707 18.499 388.681 18.4475 388.63L17.6867 387.869L16.9904 388.591L17.8543 389.455C18.0348 389.636 18.2412 389.713 18.4861 389.713H19.4919V390.938H20.1624V389.713H21.1423C21.3873 389.713 21.6065 389.623 21.787 389.442L22.393 388.836C22.5735 388.656 22.6509 388.449 22.6509 388.204ZM19.479 384.878L18.3185 384.736C18.1896 384.723 18.0864 384.607 18.0864 384.478V382.66C18.0864 382.583 18.1122 382.531 18.1638 382.479L18.4604 382.196C18.499 382.144 18.5635 382.118 18.6409 382.118H19.4919L19.479 384.878ZM21.5549 388.166C21.5549 388.243 21.5291 388.295 21.4775 388.346L21.181 388.63C21.1423 388.681 21.0778 388.707 21.0005 388.707H20.1495V385.961L21.3228 386.09C21.4518 386.103 21.5549 386.219 21.5549 386.348V388.166ZM30.6506 388.204L30.6506 382.621C30.6506 382.376 30.5861 382.183 30.4056 382.002L29.7996 381.396C29.6191 381.216 29.3999 381.113 29.142 381.113H26.6793C26.4214 381.113 26.2022 381.216 26.0217 381.396L25.4156 382.002C25.2351 382.183 25.1707 382.376 25.1707 382.621L25.1707 388.204C25.1707 388.449 25.2351 388.643 25.4156 388.823L26.0217 389.429C26.2022 389.61 26.4214 389.713 26.6793 389.713H29.142C29.3999 389.713 29.6191 389.61 29.7996 389.429L30.4056 388.823C30.5861 388.643 30.6506 388.449 30.6506 388.204ZM29.5546 388.14C29.5546 388.217 29.5417 388.282 29.4901 388.333L29.1936 388.63C29.142 388.681 29.0775 388.707 29.0002 388.707H26.8211C26.7437 388.707 26.6793 388.681 26.6277 388.63L26.3311 388.333C26.2795 388.282 26.2666 388.217 26.2666 388.153L26.2666 382.673C26.2666 382.608 26.2795 382.544 26.3311 382.492L26.6277 382.196C26.6793 382.144 26.7437 382.118 26.8211 382.118H29.0002C29.0775 382.118 29.142 382.144 29.1936 382.196L29.4901 382.492C29.5417 382.544 29.5546 382.608 29.5546 382.673L29.5546 388.14ZM46.1509 389.713V381.113H44.2297L41.9732 388.101L39.7168 381.113H37.7956V389.713H38.956V382.209L41.3801 389.713H42.5663L45.0033 382.209V389.713H46.1509Z" fill="white"/>
<path d="M15.1569 16.4914V14.3768C15.1569 13.9126 14.7701 13.4871 14.3059 13.4226L12.6555 13.2292V10.4054H13.5194C13.5838 10.4054 13.6483 10.4312 13.6999 10.4828L14.4606 11.2436L15.1569 10.5215L14.293 9.6576C14.1125 9.47708 13.9062 9.39972 13.6612 9.39972H12.6555L12.6555 8.17479H11.985L11.985 9.39972L11.0051 9.39972C10.7601 9.39972 10.5409 9.48998 10.3604 9.67049L9.75434 10.2765C9.57382 10.457 9.49646 10.6633 9.49646 10.9083V13.0229C9.49646 13.4871 9.88328 13.9126 10.3475 13.9771L11.9979 14.1834V16.9943H11.134C11.0695 16.9943 11.0051 16.9685 10.9535 16.9169L10.1927 16.1562L9.49646 16.8782L10.3604 17.7421C10.5409 17.9226 10.7472 18 10.9922 18H11.9979V19.2249H12.6684V18H13.6483C13.8933 18 14.1125 17.9097 14.293 17.7292L14.899 17.1232C15.0795 16.9427 15.1569 16.7364 15.1569 16.4914ZM11.985 13.1648L10.8245 13.0229C10.6956 13.01 10.5924 12.894 10.5924 12.765V10.947C10.5924 10.8696 10.6182 10.8181 10.6698 10.7665L10.9664 10.4828C11.0051 10.4312 11.0695 10.4054 11.1469 10.4054L11.9979 10.4054L11.985 13.1648ZM14.0609 16.4527C14.0609 16.5301 14.0351 16.5817 13.9836 16.6332L13.687 16.9169C13.6483 16.9685 13.5838 16.9943 13.5065 16.9943H12.6555V14.2479L13.8288 14.3768C13.9578 14.3897 14.0609 14.5057 14.0609 14.6347V16.4527ZM23.1566 18V16.9943L18.7727 16.9943V15.4857C18.7727 15.3825 18.8371 15.2923 18.9274 15.2536L22.628 13.5903C22.9632 13.4484 23.1566 13.1261 23.1566 12.765V10.9083C23.1566 10.6633 23.0921 10.4699 22.9116 10.2894L22.3056 9.68339C22.1251 9.50287 21.9059 9.39972 21.648 9.39972L19.1853 9.39972C18.9274 9.39972 18.7082 9.50287 18.5277 9.68339L17.638 10.5731L18.3472 11.2693L19.1337 10.4828C19.1853 10.4312 19.2497 10.4054 19.3271 10.4054H21.5062C21.5836 10.4054 21.648 10.4312 21.6996 10.4828L21.9962 10.7794C22.0477 10.8309 22.0606 10.8954 22.0606 10.9599V12.5458C22.0606 12.649 21.9962 12.7393 21.9059 12.7779L18.2053 14.4284C17.8701 14.5831 17.6767 14.8926 17.6767 15.2536V18L23.1566 18ZM31.2466 16.4914L31.2466 10.9083C31.2466 10.6633 31.1821 10.4699 31.0016 10.2894L30.3956 9.68339C30.2151 9.50287 29.9959 9.39972 29.738 9.39972H27.2752C27.0174 9.39972 26.7982 9.50287 26.6176 9.68339L26.0116 10.2894C25.8311 10.4699 25.7666 10.6633 25.7666 10.9083L25.7666 16.4914C25.7666 16.7364 25.8311 16.9298 26.0116 17.1103L26.6176 17.7163C26.7982 17.8968 27.0174 18 27.2752 18H29.738C29.9959 18 30.2151 17.8968 30.3956 17.7163L31.0016 17.1103C31.1821 16.9298 31.2466 16.7364 31.2466 16.4914ZM30.1506 16.4269C30.1506 16.5043 30.1377 16.5688 30.0861 16.6203L29.7896 16.9169C29.738 16.9685 29.6735 16.9943 29.5962 16.9943H27.4171C27.3397 16.9943 27.2752 16.9685 27.2237 16.9169L26.9271 16.6203C26.8755 16.5688 26.8626 16.5043 26.8626 16.4398L26.8626 10.9599C26.8626 10.8954 26.8755 10.8309 26.9271 10.7794L27.2237 10.4828C27.2752 10.4312 27.3397 10.4054 27.4171 10.4054H29.5962C29.6735 10.4054 29.738 10.4312 29.7896 10.4828L30.0861 10.7794C30.1377 10.8309 30.1506 10.8954 30.1506 10.9599L30.1506 16.4269ZM46.7468 18V9.39972H44.8256L42.5692 16.3883L40.3128 9.39972H38.3916V18H39.552V10.4957L41.9761 18H43.1623L45.5993 10.4957V18H46.7468Z" fill="white"/>
<path d="M15.1569 113.491V111.377C15.1569 110.913 14.7701 110.487 14.3059 110.423L12.6555 110.229V107.405H13.5194C13.5838 107.405 13.6483 107.431 13.6999 107.483L14.4606 108.244L15.1569 107.521L14.293 106.658C14.1125 106.477 13.9062 106.4 13.6612 106.4H12.6555L12.6555 105.175H11.985L11.985 106.4H11.0051C10.7601 106.4 10.5409 106.49 10.3604 106.67L9.75434 107.277C9.57382 107.457 9.49646 107.663 9.49646 107.908V110.023C9.49646 110.487 9.88328 110.913 10.3475 110.977L11.9979 111.183V113.994H11.134C11.0695 113.994 11.0051 113.968 10.9535 113.917L10.1927 113.156L9.49646 113.878L10.3604 114.742C10.5409 114.923 10.7472 115 10.9922 115H11.9979V116.225H12.6684V115H13.6483C13.8933 115 14.1125 114.91 14.293 114.729L14.899 114.123C15.0795 113.943 15.1569 113.736 15.1569 113.491ZM11.985 110.165L10.8245 110.023C10.6956 110.01 10.5924 109.894 10.5924 109.765V107.947C10.5924 107.87 10.6182 107.818 10.6698 107.766L10.9664 107.483C11.0051 107.431 11.0695 107.405 11.1469 107.405H11.9979L11.985 110.165ZM14.0609 113.453C14.0609 113.53 14.0351 113.582 13.9836 113.633L13.687 113.917C13.6483 113.968 13.5838 113.994 13.5065 113.994H12.6555V111.248L13.8288 111.377C13.9578 111.39 14.0609 111.506 14.0609 111.635V113.453ZM22.6795 115V113.994H21.0291L21.0291 106.4H19.7268L18.1538 107.805L18.85 108.489L19.946 107.509L19.946 113.994H18.2827V115H22.6795ZM31.2466 113.491V111.158C31.2466 110.913 31.1821 110.745 31.0016 110.564L30.3956 109.958C30.2151 109.778 29.9959 109.675 29.738 109.675H27.2237V107.405H30.8855V106.4H26.1277L26.1277 110.681H29.5962C29.6735 110.681 29.738 110.706 29.7896 110.758L30.0861 111.054C30.1377 111.106 30.1506 111.145 30.1506 111.209V113.44C30.1506 113.504 30.1377 113.569 30.0861 113.62L29.7896 113.917C29.738 113.968 29.6735 113.994 29.5962 113.994H27.4171C27.3397 113.994 27.2752 113.968 27.2237 113.917L26.4371 113.13L25.728 113.827L26.6176 114.716C26.7982 114.897 27.0174 115 27.2752 115H29.738C29.9959 115 30.2151 114.897 30.3956 114.716L31.0016 114.11C31.1821 113.93 31.2466 113.736 31.2466 113.491ZM46.7468 115V106.4H44.8256L42.5692 113.388L40.3128 106.4H38.3916V115H39.552V107.496L41.9761 115H43.1623L45.5993 107.496V115H46.7468Z" fill="white"/>
<path d="M15.2314 209.838V207.723C15.2314 207.259 14.8446 206.834 14.3804 206.769L12.73 206.576V203.752H13.5939C13.6583 203.752 13.7228 203.778 13.7744 203.829L14.5351 204.59L15.2314 203.868L14.3675 203.004C14.187 202.824 13.9807 202.746 13.7357 202.746H12.73L12.73 201.521H12.0595L12.0595 202.746H11.0796C10.8346 202.746 10.6154 202.836 10.4349 203.017L9.82884 203.623C9.64832 203.803 9.57096 204.01 9.57096 204.255V206.369C9.57096 206.834 9.95777 207.259 10.422 207.324L12.0724 207.53V210.341H11.2085C11.144 210.341 11.0796 210.315 11.028 210.263L10.2672 209.503L9.57096 210.225L10.4349 211.089C10.6154 211.269 10.8217 211.346 11.0667 211.346H12.0724V212.571H12.7429V211.346H13.7228C13.9678 211.346 14.187 211.256 14.3675 211.076L14.9735 210.47C15.154 210.289 15.2314 210.083 15.2314 209.838ZM12.0595 206.511L10.899 206.369C10.7701 206.356 10.6669 206.24 10.6669 206.111V204.293C10.6669 204.216 10.6927 204.164 10.7443 204.113L11.0409 203.829C11.0796 203.778 11.144 203.752 11.2214 203.752H12.0724L12.0595 206.511ZM14.1354 209.799C14.1354 209.877 14.1096 209.928 14.0581 209.98L13.7615 210.263C13.7228 210.315 13.6583 210.341 13.581 210.341H12.73V207.594L13.9033 207.723C14.0323 207.736 14.1354 207.852 14.1354 207.981V209.799ZM22.754 211.346V210.341H21.1036L21.1036 202.746H19.8013L18.2283 204.152L18.9245 204.835L20.0205 203.855L20.0205 210.341H18.3572V211.346H22.754ZM31.3211 209.838L31.3211 204.255C31.3211 204.01 31.2566 203.816 31.0761 203.636L30.4701 203.03C30.2896 202.849 30.0704 202.746 29.8125 202.746H27.3497C27.0919 202.746 26.8727 202.849 26.6921 203.03L26.0861 203.636C25.9056 203.816 25.8411 204.01 25.8411 204.255L25.8411 209.838C25.8411 210.083 25.9056 210.276 26.0861 210.457L26.6921 211.063C26.8727 211.243 27.0919 211.346 27.3497 211.346H29.8125C30.0704 211.346 30.2896 211.243 30.4701 211.063L31.0761 210.457C31.2566 210.276 31.3211 210.083 31.3211 209.838ZM30.2251 209.773C30.2251 209.851 30.2122 209.915 30.1606 209.967L29.8641 210.263C29.8125 210.315 29.748 210.341 29.6706 210.341H27.4916C27.4142 210.341 27.3497 210.315 27.2982 210.263L27.0016 209.967C26.95 209.915 26.9371 209.851 26.9371 209.786L26.9371 204.306C26.9371 204.242 26.95 204.177 27.0016 204.126L27.2982 203.829C27.3497 203.778 27.4142 203.752 27.4916 203.752H29.6706C29.748 203.752 29.8125 203.778 29.8641 203.829L30.1606 204.126C30.2122 204.177 30.2251 204.242 30.2251 204.306L30.2251 209.773ZM46.8214 211.346V202.746H44.9001L42.6437 209.735L40.3873 202.746H38.4661V211.346H39.6265V203.842L42.0506 211.346H43.2368L45.6738 203.842V211.346H46.8214Z" fill="white"/>
<path d="M22.6509 306.543V304.428C22.6509 303.964 22.2641 303.538 21.7999 303.474L20.1495 303.28V300.457H21.0134C21.0778 300.457 21.1423 300.483 21.1939 300.534L21.9546 301.295L22.6509 300.573L21.787 299.709C21.6065 299.528 21.4002 299.451 21.1552 299.451H20.1495V298.226H19.479V299.451H18.499C18.254 299.451 18.0348 299.541 17.8543 299.722L17.2483 300.328C17.0678 300.508 16.9904 300.715 16.9904 300.96V303.074C16.9904 303.538 17.3773 303.964 17.8414 304.028L19.4919 304.235V307.046H18.628C18.5635 307.046 18.499 307.02 18.4475 306.968L17.6867 306.207L16.9904 306.929L17.8543 307.793C18.0348 307.974 18.2412 308.051 18.4861 308.051H19.4919V309.276H20.1624V308.051H21.1423C21.3873 308.051 21.6065 307.961 21.787 307.78L22.393 307.174C22.5735 306.994 22.6509 306.788 22.6509 306.543ZM19.479 303.216L18.3185 303.074C18.1896 303.061 18.0864 302.945 18.0864 302.816V300.998C18.0864 300.921 18.1122 300.869 18.1638 300.818L18.4604 300.534C18.499 300.483 18.5635 300.457 18.6409 300.457H19.4919L19.479 303.216ZM21.5549 306.504C21.5549 306.581 21.5291 306.633 21.4775 306.685L21.181 306.968C21.1423 307.02 21.0778 307.046 21.0005 307.046H20.1495V304.299L21.3228 304.428C21.4518 304.441 21.5549 304.557 21.5549 304.686V306.504ZM30.6506 306.543V304.209C30.6506 303.964 30.5861 303.796 30.4056 303.616L29.7996 303.01C29.6191 302.829 29.3999 302.726 29.142 302.726H26.6277V300.457H30.2896V299.451H25.5317L25.5317 303.732H29.0002C29.0775 303.732 29.142 303.758 29.1936 303.809L29.4901 304.106C29.5417 304.157 29.5546 304.196 29.5546 304.26V306.491C29.5546 306.556 29.5417 306.62 29.4901 306.672L29.1936 306.968C29.142 307.02 29.0775 307.046 29.0002 307.046H26.8211C26.7437 307.046 26.6793 307.02 26.6277 306.968L25.8411 306.182L25.132 306.878L26.0217 307.768C26.2022 307.948 26.4214 308.051 26.6793 308.051H29.142C29.3999 308.051 29.6191 307.948 29.7996 307.768L30.4056 307.162C30.5861 306.981 30.6506 306.788 30.6506 306.543ZM46.1509 308.051V299.451H44.2297L41.9732 306.44L39.7168 299.451H37.7956V308.051H38.956V300.547L41.3801 308.051H42.5663L45.0033 300.547V308.051H46.1509Z" fill="white"/>
<path d="M289.649 417.027V412.372C289.649 412.128 289.545 411.908 289.365 411.728L288.308 410.67C288.14 410.49 287.908 410.4 287.663 410.4H284.491C284.246 410.4 284.027 410.49 283.846 410.67L282.789 411.728C282.608 411.908 282.518 412.128 282.518 412.372V417.027C282.518 417.272 282.608 417.491 282.789 417.672L283.846 418.729C284.027 418.91 284.246 419 284.491 419H287.676C287.908 419 288.14 418.91 288.32 418.729L289.378 417.672C289.545 417.491 289.649 417.272 289.649 417.027ZM288.462 416.872C288.462 416.937 288.436 417.001 288.385 417.053L287.65 417.788C287.611 417.84 287.547 417.865 287.469 417.865H284.684C284.607 417.865 284.555 417.84 284.504 417.788L283.769 417.053C283.717 417.001 283.691 416.937 283.691 416.872V412.527C283.691 412.463 283.717 412.398 283.769 412.347L284.504 411.612C284.555 411.56 284.607 411.534 284.684 411.534H287.482C287.547 411.534 287.611 411.56 287.663 411.612L288.398 412.347C288.436 412.398 288.475 412.463 288.475 412.527L288.462 416.872ZM298.601 417.517L297.789 416.718L296.732 417.788C296.68 417.84 296.629 417.865 296.551 417.865H294.424C294.346 417.865 294.295 417.84 294.243 417.788L293.508 417.053C293.457 417.001 293.431 416.937 293.431 416.872V412.527C293.431 412.463 293.457 412.398 293.508 412.347L294.243 411.612C294.295 411.56 294.346 411.534 294.424 411.534H296.551C296.629 411.534 296.68 411.56 296.732 411.612L297.802 412.682L298.601 411.883L297.389 410.67C297.209 410.49 296.99 410.4 296.745 410.4H294.23C293.985 410.4 293.766 410.49 293.586 410.67L292.528 411.728C292.348 411.908 292.258 412.128 292.258 412.372V417.027C292.258 417.272 292.348 417.491 292.528 417.672L293.586 418.729C293.766 418.91 293.985 419 294.23 419H296.745C296.99 419 297.209 418.91 297.389 418.729L298.601 417.517ZM306.271 411.534V410.4H299.94V411.534H302.519V419H303.692V411.534H306.271ZM309.618 419V417.633H308.238V419H309.618ZM317.802 419V417.994H313.418V416.486C313.418 416.383 313.482 416.292 313.573 416.254L317.273 414.59C317.608 414.448 317.802 414.126 317.802 413.765V411.908C317.802 411.663 317.737 411.47 317.557 411.289L316.951 410.683C316.77 410.503 316.551 410.4 316.293 410.4H313.83C313.573 410.4 313.353 410.503 313.173 410.683L312.283 411.573L312.992 412.269L313.779 411.483C313.83 411.431 313.895 411.405 313.972 411.405H316.151C316.229 411.405 316.293 411.431 316.345 411.483L316.641 411.779C316.693 411.831 316.706 411.895 316.706 411.96V413.546C316.706 413.649 316.641 413.739 316.551 413.778L312.851 415.428C312.515 415.583 312.322 415.893 312.322 416.254V419H317.802ZM325.892 417.491V411.908C325.892 411.663 325.827 411.47 325.647 411.289L325.041 410.683C324.86 410.503 324.641 410.4 324.383 410.4H321.92C321.663 410.4 321.443 410.503 321.263 410.683L320.657 411.289C320.476 411.47 320.412 411.663 320.412 411.908V417.491C320.412 417.736 320.476 417.93 320.657 418.11L321.263 418.716C321.443 418.897 321.663 419 321.92 419H324.383C324.641 419 324.86 418.897 325.041 418.716L325.647 418.11C325.827 417.93 325.892 417.736 325.892 417.491ZM324.796 417.427C324.796 417.504 324.783 417.569 324.731 417.62L324.435 417.917C324.383 417.968 324.319 417.994 324.241 417.994H322.062C321.985 417.994 321.92 417.968 321.869 417.917L321.572 417.62C321.521 417.569 321.508 417.504 321.508 417.44V411.96C321.508 411.895 321.521 411.831 321.572 411.779L321.869 411.483C321.92 411.431 321.985 411.405 322.062 411.405H324.241C324.319 411.405 324.383 411.431 324.435 411.483L324.731 411.779C324.783 411.831 324.796 411.895 324.796 411.96V417.427ZM333.505 419V417.994H331.854V410.4H330.552L328.979 411.805L329.675 412.489L330.771 411.509V417.994H329.108V419H333.505ZM342.072 417.491V415.596C342.072 415.338 341.981 415.145 341.801 414.964L341.35 414.5L341.801 414.049C341.981 413.868 342.072 413.649 342.072 413.404V411.908C342.072 411.663 342.007 411.47 341.827 411.289L341.221 410.683C341.04 410.503 340.808 410.4 340.563 410.4H338.1C337.842 410.4 337.623 410.503 337.443 410.683L336.837 411.289C336.656 411.47 336.592 411.663 336.592 411.908V413.404C336.592 413.649 336.682 413.881 336.863 414.062L337.314 414.513L336.85 414.964C336.682 415.145 336.592 415.338 336.592 415.609V417.491C336.592 417.736 336.669 417.93 336.837 418.11L337.443 418.716C337.623 418.897 337.842 419 338.1 419H340.563C340.821 419 341.04 418.897 341.221 418.716L341.827 418.11C342.007 417.93 342.072 417.736 342.072 417.491ZM340.976 413.352C340.976 413.43 340.963 413.494 340.911 413.546L340.524 413.933C340.486 413.971 340.408 414.01 340.331 414.01H338.332C338.255 414.01 338.191 413.971 338.139 413.92L337.752 413.533C337.701 413.494 337.688 413.417 337.688 413.352V411.96C337.688 411.895 337.701 411.831 337.752 411.779L338.049 411.483C338.1 411.431 338.165 411.405 338.242 411.405H340.421C340.499 411.405 340.563 411.431 340.615 411.483L340.911 411.779C340.963 411.831 340.976 411.895 340.976 411.96V413.352ZM340.976 417.427C340.976 417.491 340.963 417.569 340.911 417.62L340.615 417.917C340.563 417.968 340.499 417.994 340.421 417.994H338.242C338.165 417.994 338.1 417.968 338.049 417.917L337.752 417.62C337.701 417.569 337.688 417.504 337.688 417.44V415.648C337.688 415.583 337.701 415.519 337.752 415.467L338.139 415.08C338.191 415.042 338.255 415.003 338.332 415.003H340.331C340.408 415.003 340.473 415.042 340.524 415.093L340.911 415.48C340.963 415.519 340.976 415.583 340.976 415.66V417.427Z" fill="white"/>
<path d="M87.4782 419V410.4H85.557L83.3005 417.388L81.0441 410.4H79.1229V419H80.2833V411.496L82.7074 419H83.8937L86.3306 411.496V419H87.4782ZM97.6998 419L94.4892 410.4H92.9419L89.7184 419H90.8918L91.7685 416.692H95.6238L96.5006 419H97.6998ZM95.1983 415.609H92.1812L93.7026 411.457L95.1983 415.609ZM106.912 419L104.32 415.351H104.643C104.875 415.351 105.094 415.261 105.261 415.093L106.022 414.332C106.19 414.165 106.293 413.946 106.293 413.688V412.063C106.293 411.805 106.19 411.599 106.009 411.418L105.249 410.658C105.081 410.49 104.875 410.4 104.63 410.4H99.9492V419H101.123V415.351H102.825C102.902 415.351 102.979 415.39 103.044 415.467L105.494 419H106.912ZM105.107 413.533C105.107 413.61 105.081 413.662 105.029 413.713L104.604 414.139C104.565 414.191 104.501 414.216 104.423 414.216H101.123V411.534H104.436C104.514 411.534 104.565 411.56 104.617 411.612L105.042 412.037C105.081 412.076 105.12 412.14 105.12 412.218L105.107 413.533ZM110.621 419V417.633H109.242V419H110.621ZM118.805 419V417.994H114.421V416.486C114.421 416.383 114.486 416.292 114.576 416.254L118.277 414.59C118.612 414.448 118.805 414.126 118.805 413.765V411.908C118.805 411.663 118.741 411.47 118.56 411.289L117.954 410.683C117.774 410.503 117.554 410.4 117.297 410.4H114.834C114.576 410.4 114.357 410.503 114.176 410.683L113.287 411.573L113.996 412.269L114.782 411.483C114.834 411.431 114.898 411.405 114.976 411.405H117.155C117.232 411.405 117.297 411.431 117.348 411.483L117.645 411.779C117.696 411.831 117.709 411.895 117.709 411.96V413.546C117.709 413.649 117.645 413.739 117.554 413.778L113.854 415.428C113.519 415.583 113.325 415.893 113.325 416.254V419H118.805ZM126.895 417.491V411.908C126.895 411.663 126.831 411.47 126.65 411.289L126.044 410.683C125.864 410.503 125.644 410.4 125.387 410.4H122.924C122.666 410.4 122.447 410.503 122.266 410.683L121.66 411.289C121.48 411.47 121.415 411.663 121.415 411.908V417.491C121.415 417.736 121.48 417.93 121.66 418.11L122.266 418.716C122.447 418.897 122.666 419 122.924 419H125.387C125.644 419 125.864 418.897 126.044 418.716L126.65 418.11C126.831 417.93 126.895 417.736 126.895 417.491ZM125.799 417.427C125.799 417.504 125.786 417.569 125.735 417.62L125.438 417.917C125.387 417.968 125.322 417.994 125.245 417.994H123.066C122.988 417.994 122.924 417.968 122.872 417.917L122.576 417.62C122.524 417.569 122.511 417.504 122.511 417.44V411.96C122.511 411.895 122.524 411.831 122.576 411.779L122.872 411.483C122.924 411.431 122.988 411.405 123.066 411.405H125.245C125.322 411.405 125.387 411.431 125.438 411.483L125.735 411.779C125.786 411.831 125.799 411.895 125.799 411.96V417.427ZM134.508 419V417.994H132.858V410.4H131.555L129.982 411.805L130.679 412.489L131.775 411.509V417.994H130.111V419H134.508ZM143.075 417.491V415.596C143.075 415.338 142.985 415.145 142.804 414.964L142.353 414.5L142.804 414.049C142.985 413.868 143.075 413.649 143.075 413.404V411.908C143.075 411.663 143.011 411.47 142.83 411.289L142.224 410.683C142.044 410.503 141.811 410.4 141.566 410.4H139.104C138.846 410.4 138.627 410.503 138.446 410.683L137.84 411.289C137.66 411.47 137.595 411.663 137.595 411.908V413.404C137.595 413.649 137.685 413.881 137.866 414.062L138.317 414.513L137.853 414.964C137.685 415.145 137.595 415.338 137.595 415.609V417.491C137.595 417.736 137.673 417.93 137.84 418.11L138.446 418.716C138.627 418.897 138.846 419 139.104 419H141.566C141.824 419 142.044 418.897 142.224 418.716L142.83 418.11C143.011 417.93 143.075 417.736 143.075 417.491ZM141.979 413.352C141.979 413.43 141.966 413.494 141.915 413.546L141.528 413.933C141.489 413.971 141.412 414.01 141.334 414.01H139.336C139.258 414.01 139.194 413.971 139.142 413.92L138.756 413.533C138.704 413.494 138.691 413.417 138.691 413.352V411.96C138.691 411.895 138.704 411.831 138.756 411.779L139.052 411.483C139.104 411.431 139.168 411.405 139.246 411.405H141.425C141.502 411.405 141.566 411.431 141.618 411.483L141.915 411.779C141.966 411.831 141.979 411.895 141.979 411.96V413.352ZM141.979 417.427C141.979 417.491 141.966 417.569 141.915 417.62L141.618 417.917C141.566 417.968 141.502 417.994 141.425 417.994H139.246C139.168 417.994 139.104 417.968 139.052 417.917L138.756 417.62C138.704 417.569 138.691 417.504 138.691 417.44V415.648C138.691 415.583 138.704 415.519 138.756 415.467L139.142 415.08C139.194 415.042 139.258 415.003 139.336 415.003H141.334C141.412 415.003 141.476 415.042 141.528 415.093L141.915 415.48C141.966 415.519 141.979 415.583 141.979 415.66V417.427Z" fill="white"/>
<path d="M186.797 417.027V410.4H183.083V411.534H185.623V416.872C185.623 416.937 185.598 417.001 185.546 417.053L184.811 417.788C184.76 417.84 184.708 417.865 184.631 417.865H183.174C183.096 417.865 183.045 417.84 182.993 417.788L181.923 416.718L181.123 417.517L182.335 418.729C182.516 418.91 182.735 419 182.98 419H184.824C185.069 419 185.288 418.91 185.469 418.729L186.526 417.672C186.706 417.491 186.797 417.272 186.797 417.027ZM196.101 417.027V410.4H194.915V416.872C194.915 416.937 194.889 417.001 194.837 417.053L194.102 417.788C194.064 417.84 193.999 417.865 193.922 417.865H191.923C191.846 417.865 191.794 417.84 191.743 417.788L191.008 417.053C190.956 417.001 190.93 416.937 190.93 416.872V410.4H189.757V417.027C189.757 417.272 189.847 417.491 190.028 417.672L191.085 418.729C191.266 418.91 191.485 419 191.73 419H194.128C194.36 419 194.592 418.91 194.773 418.729L195.83 417.672C195.998 417.491 196.101 417.272 196.101 417.027ZM204.806 419V417.865H200.422V410.4H199.249V419H204.806ZM208.02 419V417.633H206.64V419H208.02ZM216.204 419V417.994H211.82V416.486C211.82 416.383 211.884 416.292 211.974 416.254L215.675 414.59C216.01 414.448 216.204 414.126 216.204 413.765V411.908C216.204 411.663 216.139 411.47 215.959 411.289L215.353 410.683C215.172 410.503 214.953 410.4 214.695 410.4H212.232C211.974 410.4 211.755 410.503 211.575 410.683L210.685 411.573L211.394 412.269L212.181 411.483C212.232 411.431 212.297 411.405 212.374 411.405H214.553C214.631 411.405 214.695 411.431 214.747 411.483L215.043 411.779C215.095 411.831 215.108 411.895 215.108 411.96V413.546C215.108 413.649 215.043 413.739 214.953 413.778L211.252 415.428C210.917 415.583 210.724 415.893 210.724 416.254V419H216.204ZM224.294 417.491V411.908C224.294 411.663 224.229 411.47 224.049 411.289L223.443 410.683C223.262 410.503 223.043 410.4 222.785 410.4H220.322C220.064 410.4 219.845 410.503 219.665 410.683L219.059 411.289C218.878 411.47 218.814 411.663 218.814 411.908V417.491C218.814 417.736 218.878 417.93 219.059 418.11L219.665 418.716C219.845 418.897 220.064 419 220.322 419H222.785C223.043 419 223.262 418.897 223.443 418.716L224.049 418.11C224.229 417.93 224.294 417.736 224.294 417.491ZM223.198 417.427C223.198 417.504 223.185 417.569 223.133 417.62L222.837 417.917C222.785 417.968 222.721 417.994 222.643 417.994H220.464C220.387 417.994 220.322 417.968 220.271 417.917L219.974 417.62C219.923 417.569 219.91 417.504 219.91 417.44V411.96C219.91 411.895 219.923 411.831 219.974 411.779L220.271 411.483C220.322 411.431 220.387 411.405 220.464 411.405H222.643C222.721 411.405 222.785 411.431 222.837 411.483L223.133 411.779C223.185 411.831 223.198 411.895 223.198 411.96V417.427ZM231.907 419V417.994H230.256V410.4H228.954L227.381 411.805L228.077 412.489L229.173 411.509V417.994H227.51V419H231.907ZM240.474 417.491V415.596C240.474 415.338 240.383 415.145 240.203 414.964L239.752 414.5L240.203 414.049C240.383 413.868 240.474 413.649 240.474 413.404V411.908C240.474 411.663 240.409 411.47 240.229 411.289L239.623 410.683C239.442 410.503 239.21 410.4 238.965 410.4H236.502C236.244 410.4 236.025 410.503 235.845 410.683L235.239 411.289C235.058 411.47 234.994 411.663 234.994 411.908V413.404C234.994 413.649 235.084 413.881 235.264 414.062L235.716 414.513L235.252 414.964C235.084 415.145 234.994 415.338 234.994 415.609V417.491C234.994 417.736 235.071 417.93 235.239 418.11L235.845 418.716C236.025 418.897 236.244 419 236.502 419H238.965C239.223 419 239.442 418.897 239.623 418.716L240.229 418.11C240.409 417.93 240.474 417.736 240.474 417.491ZM239.378 413.352C239.378 413.43 239.365 413.494 239.313 413.546L238.926 413.933C238.888 413.971 238.81 414.01 238.733 414.01H236.734C236.657 414.01 236.592 413.971 236.541 413.92L236.154 413.533C236.103 413.494 236.09 413.417 236.09 413.352V411.96C236.09 411.895 236.103 411.831 236.154 411.779L236.451 411.483C236.502 411.431 236.567 411.405 236.644 411.405H238.823C238.901 411.405 238.965 411.431 239.017 411.483L239.313 411.779C239.365 411.831 239.378 411.895 239.378 411.96V413.352ZM239.378 417.427C239.378 417.491 239.365 417.569 239.313 417.62L239.017 417.917C238.965 417.968 238.901 417.994 238.823 417.994H236.644C236.567 417.994 236.502 417.968 236.451 417.917L236.154 417.62C236.103 417.569 236.09 417.504 236.09 417.44V415.648C236.09 415.583 236.103 415.519 236.154 415.467L236.541 415.08C236.592 415.042 236.657 415.003 236.734 415.003H238.733C238.81 415.003 238.875 415.042 238.926 415.093L239.313 415.48C239.365 415.519 239.378 415.583 239.378 415.66V417.427Z" fill="white"/>
<path d="M390.015 419V410.4H388.094L385.838 417.388L383.581 410.4H381.66V419H382.821V411.496L385.245 419H386.431L388.868 411.496V419H390.015ZM400.237 419L397.026 410.4H395.479L392.256 419H393.429L394.306 416.692H398.161L399.038 419H400.237ZM397.736 415.609H394.718L396.24 411.457L397.736 415.609ZM409.449 419L406.857 415.351H407.18C407.412 415.351 407.631 415.261 407.799 415.093L408.559 414.332C408.727 414.165 408.83 413.946 408.83 413.688V412.063C408.83 411.805 408.727 411.599 408.547 411.418L407.786 410.658C407.618 410.49 407.412 410.4 407.167 410.4H402.486V419H403.66V415.351H405.362C405.439 415.351 405.517 415.39 405.581 415.467L408.031 419H409.449ZM407.644 413.533C407.644 413.61 407.618 413.662 407.567 413.713L407.141 414.139C407.102 414.191 407.038 414.216 406.961 414.216H403.66V411.534H406.974C407.051 411.534 407.102 411.56 407.154 411.612L407.58 412.037C407.618 412.076 407.657 412.14 407.657 412.218L407.644 413.533ZM413.159 419V417.633H411.779V419H413.159ZM421.342 419V417.994H416.958V416.486C416.958 416.383 417.023 416.292 417.113 416.254L420.814 414.59C421.149 414.448 421.342 414.126 421.342 413.765V411.908C421.342 411.663 421.278 411.47 421.097 411.289L420.491 410.683C420.311 410.503 420.092 410.4 419.834 410.4H417.371C417.113 410.4 416.894 410.503 416.714 410.683L415.824 411.573L416.533 412.269L417.32 411.483C417.371 411.431 417.436 411.405 417.513 411.405H419.692C419.769 411.405 419.834 411.431 419.885 411.483L420.182 411.779C420.234 411.831 420.246 411.895 420.246 411.96V413.546C420.246 413.649 420.182 413.739 420.092 413.778L416.391 415.428C416.056 415.583 415.863 415.893 415.863 416.254V419H421.342ZM429.432 417.491V411.908C429.432 411.663 429.368 411.47 429.187 411.289L428.581 410.683C428.401 410.503 428.182 410.4 427.924 410.4H425.461C425.203 410.4 424.984 410.503 424.803 410.683L424.197 411.289C424.017 411.47 423.952 411.663 423.952 411.908V417.491C423.952 417.736 424.017 417.93 424.197 418.11L424.803 418.716C424.984 418.897 425.203 419 425.461 419H427.924C428.182 419 428.401 418.897 428.581 418.716L429.187 418.11C429.368 417.93 429.432 417.736 429.432 417.491ZM428.336 417.427C428.336 417.504 428.324 417.569 428.272 417.62L427.975 417.917C427.924 417.968 427.859 417.994 427.782 417.994H425.603C425.526 417.994 425.461 417.968 425.409 417.917L425.113 417.62C425.061 417.569 425.048 417.504 425.048 417.44V411.96C425.048 411.895 425.061 411.831 425.113 411.779L425.409 411.483C425.461 411.431 425.526 411.405 425.603 411.405H427.782C427.859 411.405 427.924 411.431 427.975 411.483L428.272 411.779C428.324 411.831 428.336 411.895 428.336 411.96V417.427ZM437.045 419V417.994H435.395V410.4H434.093L432.52 411.805L433.216 412.489L434.312 411.509V417.994H432.648V419H437.045ZM445.612 417.491V411.908C445.612 411.663 445.548 411.47 445.367 411.289L444.761 410.683C444.581 410.503 444.362 410.4 444.104 410.4H441.641C441.383 410.4 441.164 410.503 440.983 410.683L440.377 411.289C440.197 411.47 440.132 411.663 440.132 411.908V414.216C440.132 414.461 440.197 414.655 440.377 414.835L440.983 415.441C441.164 415.622 441.383 415.725 441.641 415.725H443.24C443.498 415.725 443.717 415.622 443.897 415.441L444.516 414.822V417.44C444.516 417.504 444.503 417.569 444.452 417.62L444.155 417.917C444.104 417.968 444.039 417.994 443.962 417.994H441.783C441.705 417.994 441.641 417.968 441.589 417.917L440.803 417.13L440.094 417.827L440.983 418.716C441.164 418.897 441.383 419 441.641 419H444.104C444.362 419 444.581 418.897 444.761 418.716L445.367 418.11C445.548 417.93 445.612 417.736 445.612 417.491ZM444.516 413.391C444.516 413.468 444.503 413.533 444.452 413.585L443.382 414.642C443.343 414.693 443.266 414.719 443.188 414.719H441.783C441.705 414.719 441.641 414.693 441.589 414.642L441.293 414.345C441.241 414.294 441.228 414.216 441.228 414.152V411.96C441.228 411.895 441.241 411.831 441.293 411.779L441.589 411.483C441.641 411.431 441.705 411.405 441.783 411.405H443.962C444.039 411.405 444.104 411.431 444.155 411.483L444.452 411.779C444.503 411.831 444.516 411.895 444.516 411.96V413.391Z" fill="white"/>
<path d="M489.329 417.027V410.4H485.616V411.534H488.156V416.872C488.156 416.937 488.13 417.001 488.079 417.053L487.344 417.788C487.292 417.84 487.24 417.865 487.163 417.865H485.706C485.629 417.865 485.577 417.84 485.526 417.788L484.455 416.718L483.656 417.517L484.868 418.729C485.048 418.91 485.268 419 485.513 419H487.356C487.601 419 487.821 418.91 488.001 418.729L489.058 417.672C489.239 417.491 489.329 417.272 489.329 417.027ZM498.633 417.027V410.4H497.447V416.872C497.447 416.937 497.421 417.001 497.37 417.053L496.635 417.788C496.596 417.84 496.532 417.865 496.454 417.865H494.456C494.378 417.865 494.327 417.84 494.275 417.788L493.54 417.053C493.489 417.001 493.463 416.937 493.463 416.872V410.4H492.29V417.027C492.29 417.272 492.38 417.491 492.56 417.672L493.618 418.729C493.798 418.91 494.017 419 494.262 419H496.661C496.893 419 497.125 418.91 497.305 418.729L498.363 417.672C498.53 417.491 498.633 417.272 498.633 417.027ZM507.339 419V417.865H502.955V410.4H501.781V419H507.339ZM510.552 419V417.633H509.173V419H510.552ZM518.736 419V417.994H514.352V416.486C514.352 416.383 514.417 416.292 514.507 416.254L518.208 414.59C518.543 414.448 518.736 414.126 518.736 413.765V411.908C518.736 411.663 518.672 411.47 518.491 411.289L517.885 410.683C517.705 410.503 517.485 410.4 517.228 410.4H514.765C514.507 410.4 514.288 410.503 514.107 410.683L513.218 411.573L513.927 412.269L514.713 411.483C514.765 411.431 514.829 411.405 514.907 411.405H517.086C517.163 411.405 517.228 411.431 517.279 411.483L517.576 411.779C517.627 411.831 517.64 411.895 517.64 411.96V413.546C517.64 413.649 517.576 413.739 517.485 413.778L513.785 415.428C513.45 415.583 513.256 415.893 513.256 416.254V419H518.736ZM526.826 417.491V411.908C526.826 411.663 526.762 411.47 526.581 411.289L525.975 410.683C525.795 410.503 525.575 410.4 525.318 410.4H522.855C522.597 410.4 522.378 410.503 522.197 410.683L521.591 411.289C521.411 411.47 521.346 411.663 521.346 411.908V417.491C521.346 417.736 521.411 417.93 521.591 418.11L522.197 418.716C522.378 418.897 522.597 419 522.855 419H525.318C525.575 419 525.795 418.897 525.975 418.716L526.581 418.11C526.762 417.93 526.826 417.736 526.826 417.491ZM525.73 417.427C525.73 417.504 525.717 417.569 525.666 417.62L525.369 417.917C525.318 417.968 525.253 417.994 525.176 417.994H522.997C522.919 417.994 522.855 417.968 522.803 417.917L522.507 417.62C522.455 417.569 522.442 417.504 522.442 417.44V411.96C522.442 411.895 522.455 411.831 522.507 411.779L522.803 411.483C522.855 411.431 522.919 411.405 522.997 411.405H525.176C525.253 411.405 525.318 411.431 525.369 411.483L525.666 411.779C525.717 411.831 525.73 411.895 525.73 411.96V417.427ZM534.439 419V417.994H532.789V410.4H531.486L529.913 411.805L530.61 412.489L531.705 411.509V417.994H530.042V419H534.439ZM543.006 417.491V411.908C543.006 411.663 542.942 411.47 542.761 411.289L542.155 410.683C541.975 410.503 541.755 410.4 541.497 410.4H539.035C538.777 410.4 538.558 410.503 538.377 410.683L537.771 411.289C537.591 411.47 537.526 411.663 537.526 411.908V414.216C537.526 414.461 537.591 414.655 537.771 414.835L538.377 415.441C538.558 415.622 538.777 415.725 539.035 415.725H540.634C540.891 415.725 541.111 415.622 541.291 415.441L541.91 414.822V417.44C541.91 417.504 541.897 417.569 541.846 417.62L541.549 417.917C541.497 417.968 541.433 417.994 541.356 417.994H539.177C539.099 417.994 539.035 417.968 538.983 417.917L538.197 417.13L537.487 417.827L538.377 418.716C538.558 418.897 538.777 419 539.035 419H541.497C541.755 419 541.975 418.897 542.155 418.716L542.761 418.11C542.942 417.93 543.006 417.736 543.006 417.491ZM541.91 413.391C541.91 413.468 541.897 413.533 541.846 413.585L540.775 414.642C540.737 414.693 540.659 414.719 540.582 414.719H539.177C539.099 414.719 539.035 414.693 538.983 414.642L538.687 414.345C538.635 414.294 538.622 414.216 538.622 414.152V411.96C538.622 411.895 538.635 411.831 538.687 411.779L538.983 411.483C539.035 411.431 539.099 411.405 539.177 411.405H541.356C541.433 411.405 541.497 411.431 541.549 411.483L541.846 411.779C541.897 411.831 541.91 411.895 541.91 411.96V413.391Z" fill="white"/>
<path d="M589.843 419V410.4H588.682V417.659L585.252 410.4H583.499V419H584.659V411.741L588.089 419H589.843ZM599.945 417.027V412.372C599.945 412.128 599.841 411.908 599.661 411.728L598.604 410.67C598.436 410.49 598.204 410.4 597.959 410.4H594.787C594.542 410.4 594.323 410.49 594.142 410.67L593.085 411.728C592.904 411.908 592.814 412.128 592.814 412.372V417.027C592.814 417.272 592.904 417.491 593.085 417.672L594.142 418.729C594.323 418.91 594.542 419 594.787 419H597.972C598.204 419 598.436 418.91 598.617 418.729L599.674 417.672C599.841 417.491 599.945 417.272 599.945 417.027ZM598.758 416.872C598.758 416.937 598.733 417.001 598.681 417.053L597.946 417.788C597.907 417.84 597.843 417.865 597.766 417.865H594.98C594.903 417.865 594.851 417.84 594.8 417.788L594.065 417.053C594.013 417.001 593.988 416.937 593.988 416.872V412.527C593.988 412.463 594.013 412.398 594.065 412.347L594.8 411.612C594.851 411.56 594.903 411.534 594.98 411.534H597.778C597.843 411.534 597.907 411.56 597.959 411.612L598.694 412.347C598.733 412.398 598.771 412.463 598.771 412.527L598.758 416.872ZM608.898 410.4H607.724L605.287 417.917L602.85 410.4H601.651L604.488 419H606.048L608.898 410.4ZM612.063 419V417.633H610.684V419H612.063ZM620.247 419V417.994H615.863V416.486C615.863 416.383 615.928 416.292 616.018 416.254L619.719 414.59C620.054 414.448 620.247 414.126 620.247 413.765V411.908C620.247 411.663 620.183 411.47 620.002 411.289L619.396 410.683C619.216 410.503 618.996 410.4 618.739 410.4H616.276C616.018 410.4 615.799 410.503 615.618 410.683L614.729 411.573L615.438 412.269L616.224 411.483C616.276 411.431 616.34 411.405 616.418 411.405H618.597C618.674 411.405 618.739 411.431 618.79 411.483L619.087 411.779C619.138 411.831 619.151 411.895 619.151 411.96V413.546C619.151 413.649 619.087 413.739 618.996 413.778L615.296 415.428C614.961 415.583 614.767 415.893 614.767 416.254V419H620.247ZM628.337 417.491V411.908C628.337 411.663 628.273 411.47 628.092 411.289L627.486 410.683C627.306 410.503 627.086 410.4 626.829 410.4H624.366C624.108 410.4 623.889 410.503 623.708 410.683L623.102 411.289C622.922 411.47 622.857 411.663 622.857 411.908V417.491C622.857 417.736 622.922 417.93 623.102 418.11L623.708 418.716C623.889 418.897 624.108 419 624.366 419H626.829C627.086 419 627.306 418.897 627.486 418.716L628.092 418.11C628.273 417.93 628.337 417.736 628.337 417.491ZM627.241 417.427C627.241 417.504 627.228 417.569 627.177 417.62L626.88 417.917C626.829 417.968 626.764 417.994 626.687 417.994H624.508C624.43 417.994 624.366 417.968 624.314 417.917L624.018 417.62C623.966 417.569 623.953 417.504 623.953 417.44V411.96C623.953 411.895 623.966 411.831 624.018 411.779L624.314 411.483C624.366 411.431 624.43 411.405 624.508 411.405H626.687C626.764 411.405 626.829 411.431 626.88 411.483L627.177 411.779C627.228 411.831 627.241 411.895 627.241 411.96V417.427ZM635.95 419V417.994H634.3V410.4H632.997L631.424 411.805L632.121 412.489L633.217 411.509V417.994H631.553V419H635.95ZM644.517 417.491V411.908C644.517 411.663 644.453 411.47 644.272 411.289L643.666 410.683C643.486 410.503 643.266 410.4 643.008 410.4H640.546C640.288 410.4 640.069 410.503 639.888 410.683L639.282 411.289C639.102 411.47 639.037 411.663 639.037 411.908V414.216C639.037 414.461 639.102 414.655 639.282 414.835L639.888 415.441C640.069 415.622 640.288 415.725 640.546 415.725H642.145C642.402 415.725 642.622 415.622 642.802 415.441L643.421 414.822V417.44C643.421 417.504 643.408 417.569 643.357 417.62L643.06 417.917C643.008 417.968 642.944 417.994 642.867 417.994H640.688C640.61 417.994 640.546 417.968 640.494 417.917L639.708 417.13L638.998 417.827L639.888 418.716C640.069 418.897 640.288 419 640.546 419H643.008C643.266 419 643.486 418.897 643.666 418.716L644.272 418.11C644.453 417.93 644.517 417.736 644.517 417.491ZM643.421 413.391C643.421 413.468 643.408 413.533 643.357 413.585L642.286 414.642C642.248 414.693 642.17 414.719 642.093 414.719H640.688C640.61 414.719 640.546 414.693 640.494 414.642L640.198 414.345C640.146 414.294 640.133 414.216 640.133 414.152V411.96C640.133 411.895 640.146 411.831 640.198 411.779L640.494 411.483C640.546 411.431 640.61 411.405 640.688 411.405H642.867C642.944 411.405 643.008 411.431 643.06 411.483L643.357 411.779C643.408 411.831 643.421 411.895 643.421 411.96V413.391Z" fill="white"/>
<path d="M689.353 415.261V414.126H684.956V411.534H689.353V410.4H683.783V419H684.956V415.261H689.353ZM697.518 419V417.865H693.134V415.261H697.518V414.126H693.134V411.534H697.518V410.4H691.961V419H697.518ZM706.81 417.337V416.073C706.81 415.828 706.72 415.622 706.539 415.441L705.791 414.693L706.539 413.958C706.72 413.778 706.81 413.559 706.81 413.314V412.063C706.81 411.805 706.733 411.612 706.552 411.431L705.791 410.67C705.611 410.49 705.405 410.4 705.147 410.4H700.479V419H705.16C705.405 419 705.611 418.91 705.791 418.729L706.552 417.981C706.72 417.801 706.81 417.582 706.81 417.337ZM705.637 413.198C705.637 413.288 705.611 413.34 705.559 413.391L704.876 414.075C704.837 414.113 704.76 414.152 704.695 414.152H701.652V411.534H704.966C705.044 411.534 705.095 411.56 705.147 411.612L705.572 412.037C705.624 412.089 705.65 412.153 705.65 412.218L705.637 413.198ZM705.65 417.182C705.65 417.259 705.611 417.311 705.559 417.362L705.134 417.788C705.095 417.84 705.018 417.865 704.953 417.865H701.652V415.248H704.695C704.76 415.248 704.824 415.287 704.876 415.338L705.572 416.034C705.611 416.073 705.65 416.138 705.65 416.215V417.182ZM710.887 419V417.633H709.507V419H710.887ZM719.071 419V417.994H714.687V416.486C714.687 416.383 714.751 416.292 714.841 416.254L718.542 414.59C718.877 414.448 719.071 414.126 719.071 413.765V411.908C719.071 411.663 719.006 411.47 718.826 411.289L718.22 410.683C718.039 410.503 717.82 410.4 717.562 410.4H715.099C714.841 410.4 714.622 410.503 714.442 410.683L713.552 411.573L714.261 412.269L715.048 411.483C715.099 411.431 715.164 411.405 715.241 411.405H717.42C717.498 411.405 717.562 411.431 717.614 411.483L717.91 411.779C717.962 411.831 717.975 411.895 717.975 411.96V413.546C717.975 413.649 717.91 413.739 717.82 413.778L714.119 415.428C713.784 415.583 713.591 415.893 713.591 416.254V419H719.071ZM727.161 417.491V411.908C727.161 411.663 727.096 411.47 726.916 411.289L726.31 410.683C726.129 410.503 725.91 410.4 725.652 410.4H723.189C722.931 410.4 722.712 410.503 722.532 410.683L721.926 411.289C721.745 411.47 721.681 411.663 721.681 411.908V417.491C721.681 417.736 721.745 417.93 721.926 418.11L722.532 418.716C722.712 418.897 722.931 419 723.189 419H725.652C725.91 419 726.129 418.897 726.31 418.716L726.916 418.11C727.096 417.93 727.161 417.736 727.161 417.491ZM726.065 417.427C726.065 417.504 726.052 417.569 726 417.62L725.704 417.917C725.652 417.968 725.588 417.994 725.51 417.994H723.331C723.254 417.994 723.189 417.968 723.138 417.917L722.841 417.62C722.79 417.569 722.777 417.504 722.777 417.44V411.96C722.777 411.895 722.79 411.831 722.841 411.779L723.138 411.483C723.189 411.431 723.254 411.405 723.331 411.405H725.51C725.588 411.405 725.652 411.431 725.704 411.483L726 411.779C726.052 411.831 726.065 411.895 726.065 411.96V417.427ZM735.251 419V417.994H730.867V416.486C730.867 416.383 730.931 416.292 731.021 416.254L734.722 414.59C735.057 414.448 735.251 414.126 735.251 413.765V411.908C735.251 411.663 735.186 411.47 735.006 411.289L734.4 410.683C734.219 410.503 734 410.4 733.742 410.4H731.279C731.021 410.4 730.802 410.503 730.622 410.683L729.732 411.573L730.441 412.269L731.228 411.483C731.279 411.431 731.344 411.405 731.421 411.405H733.6C733.678 411.405 733.742 411.431 733.794 411.483L734.09 411.779C734.142 411.831 734.155 411.895 734.155 411.96V413.546C734.155 413.649 734.09 413.739 734 413.778L730.299 415.428C729.964 415.583 729.771 415.893 729.771 416.254V419H735.251ZM743.341 417.491V411.908C743.341 411.663 743.276 411.47 743.096 411.289L742.49 410.683C742.309 410.503 742.09 410.4 741.832 410.4H739.369C739.111 410.4 738.892 410.503 738.712 410.683L738.106 411.289C737.925 411.47 737.861 411.663 737.861 411.908V417.491C737.861 417.736 737.925 417.93 738.106 418.11L738.712 418.716C738.892 418.897 739.111 419 739.369 419H741.832C742.09 419 742.309 418.897 742.49 418.716L743.096 418.11C743.276 417.93 743.341 417.736 743.341 417.491ZM742.245 417.427C742.245 417.504 742.232 417.569 742.18 417.62L741.884 417.917C741.832 417.968 741.768 417.994 741.69 417.994H739.511C739.434 417.994 739.369 417.968 739.318 417.917L739.021 417.62C738.97 417.569 738.957 417.504 738.957 417.44V411.96C738.957 411.895 738.97 411.831 739.021 411.779L739.318 411.483C739.369 411.431 739.434 411.405 739.511 411.405H741.69C741.768 411.405 741.832 411.431 741.884 411.483L742.18 411.779C742.232 411.831 742.245 411.895 742.245 411.96V417.427Z" fill="white"/>
<rect x="630" y="50" width="120" height="20" fill="#B77FF8"/>
<path d="M649.278 63.0628V60.2316C649.278 59.6355 648.731 59.0229 648.135 58.9567L645.95 58.6918V55.6122H647.026C647.109 55.6122 647.192 55.6453 647.258 55.7115L648.119 56.5725L649.278 55.3969L648.168 54.2876C647.937 54.0558 647.672 53.9565 647.357 53.9565H645.95V52.3835H645.089V53.9565H643.698C643.383 53.9565 643.102 54.0724 642.87 54.3042L642.092 55.0823C641.86 55.3141 641.761 55.579 641.761 55.8936V58.7249C641.761 59.3209 642.307 59.9335 642.903 59.9998L645.089 60.2647V63.3443H644.013C643.93 63.3443 643.847 63.3112 643.781 63.245L642.92 62.384L641.761 63.5595L642.87 64.6689C643.102 64.9007 643.367 65 643.682 65H645.089V66.5729H645.95V65H647.341C647.655 65 647.937 64.8841 648.168 64.6523L648.947 63.8741C649.178 63.6423 649.278 63.3774 649.278 63.0628ZM645.089 58.5924L643.946 58.46C643.781 58.4434 643.648 58.2944 643.648 58.1288V55.993C643.648 55.8936 643.682 55.8274 643.748 55.7612L643.797 55.7115C643.864 55.6453 643.93 55.6122 644.029 55.6122H645.089V58.5924ZM647.39 62.9635C647.39 63.0628 647.357 63.1291 647.291 63.1953L647.241 63.245C647.175 63.3112 647.109 63.3443 647.009 63.3443H645.95V60.364L647.092 60.4965C647.258 60.513 647.39 60.6621 647.39 60.8276V62.9635ZM659.119 65V63.3443H657.132V53.9565H654.98L652.728 55.9599L653.854 57.0857L655.245 55.844V63.3443H653.258V65H659.119ZM670.02 55.4631L668.878 54.3207C668.646 54.0889 668.365 53.9565 668.034 53.9565H664.623C664.292 53.9565 664.01 54.0889 663.778 54.3207L663 55.0989C662.768 55.3307 662.686 55.579 662.686 55.8936V63.0628C662.686 63.3774 662.768 63.6258 663 63.8576L663.778 64.6357C664.01 64.8675 664.292 65 664.623 65H668.034C668.365 65 668.646 64.8675 668.878 64.6357L669.656 63.8576C669.888 63.6258 669.971 63.3774 669.971 63.0628V60.0991C669.971 59.7845 669.888 59.5362 669.656 59.3044L668.878 58.5262C668.646 58.2944 668.365 58.1619 668.034 58.1619H664.573V56.0095C664.573 55.9267 664.59 55.844 664.656 55.7777L664.722 55.7115C664.788 55.6453 664.871 55.6122 664.971 55.6122H667.686C667.785 55.6122 667.868 55.6453 667.934 55.7115L668.845 56.6221L670.02 55.4631ZM668.083 62.9469C668.083 63.0297 668.067 63.1125 668 63.1787L667.934 63.245C667.868 63.3112 667.785 63.3443 667.686 63.3443H664.971C664.871 63.3443 664.788 63.3112 664.722 63.245L664.656 63.1787C664.59 63.1125 664.606 63.0297 664.573 62.9469V60.215C664.573 60.1322 664.59 60.0494 664.656 59.9832L664.722 59.917C664.788 59.8508 664.871 59.8176 664.971 59.8176H667.686C667.785 59.8176 667.868 59.8508 667.934 59.917L668 59.9832C668.067 60.0494 668.083 60.1322 668.083 60.215V62.9469ZM675.16 65.9603V62.8807H673.272V65.9438C673.272 66.0431 673.223 66.1093 673.156 66.1755L672.66 66.6723L673.802 67.8147L674.829 66.7882C675.077 66.5398 675.16 66.3246 675.16 65.9603ZM685.735 63.0628V60.7945C685.735 60.4799 685.635 60.2316 685.404 59.9998L684.808 59.4037L685.387 58.8242C685.619 58.5924 685.735 58.311 685.735 57.9964V55.8936C685.735 55.579 685.652 55.3307 685.42 55.0989L684.642 54.3207C684.41 54.0889 684.129 53.9565 683.798 53.9565H680.387C680.056 53.9565 679.774 54.0889 679.543 54.3207L678.764 55.0989C678.533 55.3307 678.45 55.579 678.45 55.8936V57.9964C678.45 58.311 678.566 58.5924 678.797 58.8242L679.377 59.4037L678.781 59.9998C678.549 60.2316 678.45 60.4799 678.45 60.7945V63.0628C678.45 63.3774 678.533 63.6258 678.764 63.8576L679.543 64.6357C679.774 64.8675 680.056 65 680.387 65H683.798C684.129 65 684.41 64.8675 684.642 64.6357L685.42 63.8576C685.652 63.6258 685.735 63.3774 685.735 63.0628ZM683.847 57.8805C683.847 57.9633 683.831 58.046 683.765 58.1123L683.4 58.4765C683.334 58.5428 683.251 58.5759 683.152 58.5759H681.033C680.933 58.5759 680.851 58.5428 680.784 58.4765L680.42 58.1123C680.354 58.046 680.337 57.9633 680.337 57.8805V56.0095C680.337 55.9267 680.354 55.844 680.42 55.7777L680.486 55.7115C680.552 55.6453 680.635 55.6122 680.735 55.6122H683.45C683.549 55.6122 683.632 55.6453 683.698 55.7115L683.765 55.7777C683.831 55.844 683.847 55.9267 683.847 56.0095V57.8805ZM683.847 62.9469C683.847 63.0297 683.831 63.1125 683.765 63.1787L683.698 63.245C683.632 63.3112 683.549 63.3443 683.45 63.3443H680.735C680.635 63.3443 680.552 63.3112 680.486 63.245L680.42 63.1787C680.354 63.1125 680.337 63.0297 680.337 62.9469V60.927C680.337 60.8442 680.354 60.7614 680.42 60.6952L680.784 60.3309C680.851 60.2647 680.933 60.2316 681.033 60.2316H683.152C683.251 60.2316 683.334 60.2647 683.4 60.3309L683.765 60.6952C683.831 60.7614 683.847 60.8442 683.847 60.927V62.9469ZM696.139 63.0628V55.8936C696.139 55.579 696.056 55.3307 695.825 55.0989L695.046 54.3207C694.815 54.0889 694.533 53.9565 694.202 53.9565H690.791C690.46 53.9565 690.179 54.0889 689.947 54.3207L689.169 55.0989C688.937 55.3307 688.854 55.579 688.854 55.8936V63.0628C688.854 63.3774 688.937 63.6258 689.169 63.8576L689.947 64.6357C690.179 64.8675 690.46 65 690.791 65H694.202C694.533 65 694.815 64.8675 695.046 64.6357L695.825 63.8576C696.056 63.6258 696.139 63.3774 696.139 63.0628ZM694.252 62.9469C694.252 63.0297 694.235 63.1125 694.169 63.1787L694.103 63.245C694.037 63.3112 693.954 63.3443 693.854 63.3443H691.139C691.04 63.3443 690.957 63.3112 690.891 63.245L690.824 63.1787C690.758 63.1125 690.742 63.0297 690.742 62.9469V56.0095C690.742 55.9267 690.758 55.844 690.824 55.7777L690.891 55.7115C690.957 55.6453 691.04 55.6122 691.139 55.6122H693.854C693.954 55.6122 694.037 55.6453 694.103 55.7115L694.169 55.7777C694.235 55.844 694.252 55.9267 694.252 56.0095V62.9469ZM706.544 63.0628V60.0991C706.544 59.7845 706.461 59.5362 706.229 59.3044L705.451 58.5262C705.219 58.2944 704.938 58.1619 704.606 58.1619H701.61V55.6122H706.08V53.9565H699.722V59.8176H704.259C704.358 59.8176 704.441 59.8508 704.507 59.917L704.573 59.9832C704.64 60.0494 704.656 60.1322 704.656 60.215V62.9469C704.656 63.0297 704.64 63.1125 704.573 63.1787L704.507 63.245C704.441 63.3112 704.358 63.3443 704.259 63.3443H701.543C701.444 63.3443 701.361 63.3112 701.295 63.245L700.384 62.3343L699.209 63.4933L700.351 64.6357C700.583 64.8675 700.865 65 701.196 65H704.606C704.938 65 705.219 64.8675 705.451 64.6357L706.229 63.8576C706.461 63.6258 706.544 63.3774 706.544 63.0628ZM711.733 65.9603V62.8807H709.845V65.9438C709.845 66.0431 709.795 66.1093 709.729 66.1755L709.233 66.6723L710.375 67.8147L711.401 66.7882C711.65 66.5398 711.733 66.3246 711.733 65.9603ZM722.308 63.0628V55.8936C722.308 55.579 722.225 55.3307 721.993 55.0989L721.215 54.3207C720.983 54.0889 720.702 53.9565 720.371 53.9565H716.96C716.629 53.9565 716.347 54.0889 716.115 54.3207L715.337 55.0989C715.105 55.3307 715.023 55.579 715.023 55.8936V58.8573C715.023 59.1719 715.105 59.4203 715.337 59.6521L716.115 60.4303C716.347 60.6621 716.629 60.7945 716.96 60.7945H720.42V62.9469C720.42 63.0297 720.404 63.1125 720.337 63.1787L720.271 63.245C720.205 63.3112 720.122 63.3443 720.023 63.3443H717.308C717.208 63.3443 717.125 63.3112 717.059 63.245L716.149 62.3343L714.973 63.4933L716.115 64.6357C716.347 64.8675 716.629 65 716.96 65H720.371C720.702 65 720.983 64.8675 721.215 64.6357L721.993 63.8576C722.225 63.6258 722.308 63.3774 722.308 63.0628ZM720.42 58.7414C720.42 58.8242 720.404 58.907 720.337 58.9732L720.271 59.0395C720.205 59.1057 720.122 59.1388 720.023 59.1388H717.308C717.208 59.1388 717.125 59.1057 717.059 59.0395L716.993 58.9732C716.927 58.907 716.91 58.8242 716.91 58.7414V56.0095C716.91 55.9267 716.927 55.844 716.993 55.7777L717.059 55.7115C717.125 55.6453 717.208 55.6122 717.308 55.6122H720.023C720.122 55.6122 720.205 55.6453 720.271 55.7115L720.337 55.7777C720.404 55.844 720.387 55.9267 720.42 56.0095V58.7414ZM732.712 63.0628V60.0991C732.712 59.7845 732.629 59.5362 732.398 59.3044L731.619 58.5262C731.388 58.2944 731.106 58.1619 730.775 58.1619H727.778V55.6122H732.249V53.9565H725.891V59.8176H730.427C730.527 59.8176 730.609 59.8508 730.676 59.917L730.742 59.9832C730.808 60.0494 730.825 60.1322 730.825 60.215V62.9469C730.825 63.0297 730.808 63.1125 730.742 63.1787L730.676 63.245C730.609 63.3112 730.527 63.3443 730.427 63.3443H727.712C727.613 63.3443 727.53 63.3112 727.464 63.245L726.553 62.3343L725.377 63.4933L726.52 64.6357C726.752 64.8675 727.033 65 727.364 65H730.775C731.106 65 731.388 64.8675 731.619 64.6357L732.398 63.8576C732.629 63.6258 732.712 63.3774 732.712 63.0628ZM743.233 62.2184V60.5627H741.842V53.9565H739.491L735.302 60.7945V62.2184H739.954V65H741.842V62.2184H743.233ZM739.954 60.5627H737.438L739.954 56.2082V60.5627Z" fill="white"/>
<rect x="742" y="76" width="8" height="8" fill="#9229F6"/>
</svg>
