<svg width="436" height="1389" viewBox="0 0 436 1389" fill="none" xmlns="http://www.w3.org/2000/svg">
<g clip-path="url(#clip0)">
<path d="M89.3999 305.85H46.8799V348.36H89.3999H131.91V305.85H89.3999Z" fill="white"/>
<path d="M176.36 218.88H131.91V261.4H176.36V218.88Z" fill="#EF55B3"/>
<path d="M89.3999 218.88H46.8799V261.4H89.3999V218.88Z" fill="#A72572"/>
<path d="M176.36 174.43H131.91V218.88H176.36V174.43Z" fill="white"/>
<path d="M155.11 174.43H131.91V218.88H155.11V174.43Z" fill="black"/>
<path d="M46.8797 174.43H2.42969V218.88H46.8797V174.43Z" fill="white"/>
<path d="M89.3999 174.43H46.8799V218.88H89.3999V174.43Z" fill="#A72572"/>
<path d="M263.33 131.91H220.81V174.43H263.33V131.91Z" fill="#EF55B3"/>
<path d="M305.85 131.91H263.33V174.43H305.85V131.91Z" fill="#EF55B3"/>
<path d="M392.81 87.47H388.95H346.43H305.85V44.95H263.33H220.81V0.5H176.36H131.91H89.3999V44.95H46.8799V87.47H89.3999H131.91H176.36H220.81V131.91H263.33V174.43V218.88V261.4H305.85V218.88V174.43H346.43V218.88V259.46V300.05V305.85V346.43V387.01V431.46V473.98H388.95H392.81H435.33V431.46V387.01V346.43V305.85V300.05V259.46V218.88V174.43V131.91V87.47H392.81Z" fill="#00D9DA" stroke="#00D9DA" stroke-miterlimit="10"/>
<path d="M89.3999 0.5H46.8799V45H89.3999V0.5Z" fill="#0095C7"/>
<path d="M46.8797 45H2.42969V87.47H46.8797V45Z" fill="#0095C7"/>
<path d="M23.6897 174.43H2.42969V218.88H23.6897V174.43Z" fill="black"/>
<path d="M220.81 131.91V87.4702H2.42969V174.47H89.4297V261.47H46.8797V218.88H2.42969V348.36H46.8797V305.85H131.88V348.36H46.8797V387H131.88V433.4H176.33V387H220.78V174.43H263.3V131.91H220.81ZM176.36 218.91H131.91V174.43H176.36V218.91Z" fill="#EF55B3" stroke="#EF55B3" stroke-width="2" stroke-miterlimit="10"/>
<path d="M263.33 261.4V218.88V174.43H220.81V218.88V261.4V305.85V348.36V387.01H176.36V429.53H174.43V473.98H220.81V433.39H263.33H305.85V387.01V348.36V305.85V261.4H263.33Z" fill="#A72572" stroke="#A72572" stroke-miterlimit="10"/>
<path d="M305.85 1042.15H261.4V1082.74V1125.25V1167.77V1214.15V1256.67V1299.18V1343.63H305.85H346.43V1299.18V1256.67V1214.15V1167.77V1125.25V1082.74V1042.15H305.85Z" fill="#00D9DA" stroke="#00D9DA" stroke-miterlimit="10"/>
<path d="M87.4697 1082.74V1125.25V1167.77V1214.15V1256.67V1299.18V1343.63H128.05V1299.18V1256.67V1214.15V1167.77V1125.25V1082.74V1042.15H87.4697V1082.74Z" fill="#00D9DA" stroke="#00D9DA" stroke-miterlimit="10"/>
<path d="M305.85 1343.63H261.4V1388.08H305.85H346.43V1343.63H305.85Z" fill="#171743" stroke="#171743" stroke-miterlimit="10"/>
<path d="M44.9502 1343.63V1388.08H87.4702H128.05V1343.63H87.4702H44.9502Z" fill="#171743" stroke="#171743" stroke-miterlimit="10"/>
<path d="M44.9502 1042.15V1082.74V1125.25V1167.77V1214.15V1256.67V1299.18V1343.63H87.4702V1299.18V1256.67V1214.15V1167.77V1125.25V1082.74V1042.15H44.9502Z" fill="#0095C7" stroke="#0095C7" stroke-miterlimit="10"/>
<path d="M392.81 908.81H346.43V951.32H392.81V908.81Z" fill="#A72572" stroke="#A72572" stroke-miterlimit="10"/>
<path d="M45 908.81H0.5V951.32H45V908.81Z" fill="#A72572" stroke="#A72572" stroke-miterlimit="10"/>
<path d="M305.85 429.53H261.4H220.81V473.98H174.43V429.53H128.05H87.4702H44.9502V473.98V518.43V560.94V605.39V645.98V690.43V734.88V779.32V821.84V864.36V908.81V951.32V995.77V1042.15H87.4702H128.05H174.43H220.81H261.4H305.85H346.43V995.77V951.32V908.81V864.36V821.84V779.32V734.88V690.43V645.98V605.39V560.94V518.43V473.98V429.53H305.85Z" fill="#2346FA"/>
<path d="M0.5 518.43V560.94V605.39V645.98V690.43V734.88V779.32V821.84V864.36V908.81H44.95V864.36V821.84V779.32V734.88V690.43V645.98V605.39V560.94V518.43V473.98H0.5V518.43Z" fill="#0B2BD0" stroke="#0B2BD0" stroke-miterlimit="10"/>
<path d="M346.43 473.98V518.43V560.94V605.39V645.98V690.43V734.88V779.32V821.84V864.36V908.81H392.81V864.36V821.84V779.32V734.88V690.43V645.98V605.39V560.94V518.43V473.98H346.43Z" fill="#0B2BD0" stroke="#0B2BD0" stroke-miterlimit="10"/>
</g>
<defs>
<clipPath id="clip0">
<rect width="435.83" height="1388.58" fill="white"/>
</clipPath>
</defs>
</svg>
