<svg width="437" height="1392" viewBox="0 0 437 1392" fill="none" xmlns="http://www.w3.org/2000/svg">
<g clip-path="url(#clip0)">
<path d="M174.49 391.52H218.35V435.38H174.49V391.52Z" fill="#D75568"/>
<path d="M218.27 391.52H262.13V435.38H218.27V391.52Z" fill="#FF8B98"/>
<path d="M130.75 391.52H174.61V435.38H130.75V391.52Z" fill="#D75568"/>
<path d="M130.75 174.56H174.61V218.42H130.75V174.56Z" fill="#D75568"/>
<path d="M174.49 174.56H218.35V218.42H174.49V174.56Z" fill="#FF8B98"/>
<path d="M218.27 174.56H262.13V218.42H218.27V174.56Z" fill="white"/>
<path d="M218.16 173.29H262V217.15H218.16V173.29Z" fill="black"/>
<path d="M348.34 174.56H392.2V218.42H348.34V174.56Z" fill="white"/>
<path d="M262 174.56H305.9V218.42H262V174.56Z" fill="#FF8B98"/>
<path d="M305 174.56H348.86V218.42H305V174.56Z" fill="#D75568"/>
<path d="M43.1992 87.7803H87.0592V131.64H43.1992V87.7803Z" fill="#DE49A4"/>
<path d="M43.1992 131.17H87.0592V175H43.1992V131.17Z" fill="#A72572"/>
<path d="M349.609 173.29H393.469V217.15H349.609V173.29Z" fill="black"/>
<path d="M218.27 174.56H262.13V218.42H218.27V174.56Z" fill="white"/>
<path d="M240.33 173.29H262V218H240.33V173.29Z" fill="black"/>
<path d="M348.34 174.56H392.2V218.42H348.34V174.56Z" fill="white"/>
<path d="M304.941 304.73H261.551V348.59H304.941H305.411H348.811V304.73H305.411H304.941Z" fill="#D75568" stroke="#D75568" stroke-miterlimit="10"/>
<path d="M304.939 174.56V217.95V218.42V261.81H348.809V218.42V217.95V174.56H304.939Z" fill="#D75568" stroke="#D75568" stroke-miterlimit="10"/>
<path d="M392.199 44.39V1H348.809H348.339H304.939V44.86H348.339H348.809H391.729V88.25H435.589V44.39H392.199Z" fill="#ECA2E9" stroke="#ECA2E9" stroke-width="2" stroke-miterlimit="10"/>
<path d="M87.0592 131.17H43.1992V174.56V175.03V217.95V218.42V261.34V261.81V305.2H86.9692H87.0592H130.839V261.81V261.34V218.42V217.95V174.56H87.0592V131.17Z" fill="#A72572" stroke="#A72572" stroke-width="2" stroke-miterlimit="10"/>
<path d="M391.73 174.56V217.95V218.42V261.34V261.81V305.2H435.59V261.81V261.34V218.42V217.95V174.56H391.73Z" fill="#A72572" stroke="#A72572" stroke-width="2" stroke-miterlimit="10"/>
<path d="M348.34 218V261.39H305.9V174.56H262V218H218.35V174.56H174.49V392H218.27V435.4H262.13V392H348.81V348.59H392.2V218H348.34ZM305 348.12H262.13V305.2H348.34V348.12H305Z" fill="#FF8B98" stroke="#FF8B98" stroke-miterlimit="10"/>
<path d="M371.779 173.29H393.469V218H371.779V173.29Z" fill="black"/>
<path d="M392.199 87.78V44.39H348.809H348.339H305.899V1H262.129H262.039H218.349H218.259H175.239H174.489H131.379V44.39H130.839H130.749H86.9692V87.78H43.1992V131.64H86.9692V175.03H130.749H130.839H174.489H174.609H218.259H218.349H262.039H262.129H304.939H305.899H348.339H348.809H391.729H392.199H435.589V131.64V131.17V87.78H392.199Z" fill="#DE49A4" stroke="#DE49A4" stroke-width="2" stroke-miterlimit="10"/>
<path d="M174.61 391.52V348.12V305.2V261.81V261.34V218.42V217.95V174.56H130.75V217.95V218.42V261.34V261.81V305.2V348.12V391.52V391.98V435.38H174.45V478.83H218.31V435.38H218.35V391.52H174.61Z" fill="#D75568" stroke="#D75568" stroke-miterlimit="10"/>
<path d="M130.909 1346.52H87.5293V1390.38H130.909H131.389H174.769V1346.52H131.389H130.909Z" fill="#0B2BD0" stroke="#0B2BD0" stroke-width="2" stroke-miterlimit="10"/>
<path d="M261.799 1346.04H261.309H217.939V1389.9H261.309H261.799H305.179V1346.04H261.799Z" fill="#0B2BD0" stroke="#0B2BD0" stroke-width="2" stroke-miterlimit="10"/>
<path d="M305.059 1042.63V999.69V999.25V955.83H261.689H261.189H218.309H217.819H174.979H174.449H131.609H131.119H87.7493V999.25V999.69V1042.63H87.5293V1086.04V1086.49V1129.45V1129.9V1172.87V1173.31V1216.28V1216.73V1259.7V1260.14V1303.11V1303.56V1346.97H130.909H131.389H174.769V1303.56V1303.11V1260.14V1259.7V1216.73V1216.28V1173.31V1172.87V1129.9V1129.45V1086.49V1086.04V1043.11H174.979V999.69H217.819V1043.11H217.939V1086.04V1086.49V1129.45V1129.9V1172.42V1173.31V1215.84V1216.28V1259.25V1259.7V1302.62V1303.11V1346.48H261.309H261.799H305.179V1303.11V1302.62V1259.7V1259.25V1216.28V1215.84V1173.31V1172.42V1129.9V1129.45V1086.49V1086.04V1042.63H305.059Z" fill="#6A07BB" stroke="#6A07BB" stroke-width="3" stroke-miterlimit="10"/>
<path d="M1 651.97V652.46V695.39V695.83V738.8V739.25V782.21V782.66V825.63V826.07V869.01V869.49V912.42V912.87V956.28H44.86V912.87V912.42V869.49V869.01V826.07V825.63V782.66V782.21V739.25V738.8V695.83V695.39V652.46V651.97V608.6H1V651.97Z" fill="#FF8B98" stroke="#FF8B98" stroke-width="2" stroke-miterlimit="10"/>
<path d="M347.9 608.6V651.97V652.46V695.39V695.83V738.8V739.25V782.21V782.66V825.63V826.07V869.01V869.49V912.42V912.87V956.28H391.76V912.87V912.42V869.49V869.01V826.07V825.63V782.66V782.21V739.25V738.8V695.83V695.39V652.46V651.97V608.6H347.9Z" fill="#FF8B98" stroke="#FF8B98" stroke-width="2" stroke-miterlimit="10"/>
<path d="M305.061 434.97H304.571H261.691H261.191H217.821V478.35H174.981V434.97H131.611H131.121H88.2309H87.7509H44.3809V478.35V478.83V521.76V522.21V565.18V565.63V608.6V609.04V651.97V652.46V695.39V695.83V738.8V739.25V782.21V782.66V825.63V826.07V869.01V869.49V912.42V912.87V956.28H87.7509H88.2309H131.121H131.611H174.451H174.981H217.821H218.311H261.191H261.691H304.571H305.061H348.431V912.87V912.42V869.49V869.01V826.07V825.63V782.66V782.21V739.25V738.8V695.83V695.39V652.46V651.97V609.04V608.6V565.63V565.18V522.21V521.76V478.83V478.35V434.97H305.061Z" fill="#2346FA" stroke="#2346FA" stroke-width="2" stroke-miterlimit="10"/>
<path d="M347.9 478.35V521.76V522.21V565.18V565.63V609.04H391.76V565.63V565.18V522.21V521.76V478.35H347.9Z" fill="#0B2BD0" stroke="#0B2BD0" stroke-width="2" stroke-miterlimit="10"/>
<path d="M1 521.76V522.21V565.18V565.63V609.04H44.86V565.63V565.18V522.21V521.76V478.35H1V521.76Z" fill="#0B2BD0" stroke="#0B2BD0" stroke-width="2" stroke-miterlimit="10"/>
</g>
<defs>
<clipPath id="clip0">
<rect width="436.59" height="1391.38" fill="white"/>
</clipPath>
</defs>
</svg>
