<svg width="418" height="1477" viewBox="0 0 418 1477" fill="none" xmlns="http://www.w3.org/2000/svg">
<g clip-path="url(#clip0)">
<path d="M93.47 921.89H93.33H47.14V968.12V968.23V1014.35V1014.45V1060.58V1060.68V1064.13H1V1107.38V1110.46V1153.71H47.33V1153.09H93.47V1106.91V1106.76V1060.68H139.66V1014.45V1014.35V968.23V968.12V921.89H93.47Z" fill="#4463FC" stroke="#4463FC" stroke-miterlimit="10"/>
<path d="M301.15 1429.84H300.35H254.82V1476.17H300.35H301.15H346.68V1429.84H301.15Z" fill="#171743" stroke="#171743" stroke-miterlimit="10"/>
<path d="M138.72 1429.84H93.2002V1476.17H138.72H139.53H185.06V1429.84H139.53H138.72Z" fill="#171743" stroke="#171743" stroke-miterlimit="10"/>
<path d="M300.35 1152.99H254.82V1199.22V1199.32V1244.97V1245.55V1291.2V1291.3V1337.42V1337.53V1383.61V1383.76V1429.94H300.35H301.15H346.68V1383.76V1383.61V1337.53V1337.42V1291.3V1291.2V1245.55V1244.97V1199.32V1199.22V1152.99H301.15H300.35Z" fill="#FF8B98" stroke="#FF8B98" stroke-miterlimit="10"/>
<path d="M138.72 1152.99H93.2002V1199.22V1199.32V1244.97V1245.55V1291.2V1291.3V1337.42V1337.53V1383.61V1383.76V1429.94H138.72H139.53H185.06V1383.76V1383.61V1337.53V1337.42V1291.3V1291.2V1245.55V1244.97V1199.32V1199.22V1152.99H139.53H138.72Z" fill="#FF8B98" stroke="#FF8B98" stroke-miterlimit="10"/>
<path d="M370.38 644.61V690.8V690.94V737.03V737.13V783.25V783.36V829.48V829.58V875.71V875.81V921.89V922.04V968.12V968.23V1014.45H416.71V968.23V968.12V922.04V921.89V875.81V875.71V829.58V829.48V783.36V783.25V737.13V737.03V690.94V690.8V644.61H370.38Z" fill="#FF8B98" stroke="#FF8B98" stroke-miterlimit="10"/>
<path d="M1 690.8V690.94V737.03V737.13V783.25V783.36V829.48V829.58V875.71V875.81V921.89V922.04V968.12V968.23V1014.45H47.33V968.23V968.12V922.04V921.89V875.81V875.71V829.58V829.48V783.36V783.25V737.13V737.03V690.94V690.8V644.61H1V690.8Z" fill="#FF8B98" stroke="#FF8B98" stroke-miterlimit="10"/>
<path d="M370.53 1064.13V1060.68V1060.58V1014.45V1014.35V968.23V968.12V921.89H324.34H324.2H278.16H278.01H232.02H231.83H185.84H185.69H139.5V968.12V968.23V1014.35V1014.45V1060.58H93.3301V1106.76V1106.91V1153.09H139.66V1152.58H185.06V1106.91H185.69H185.84H231.83H232.02H232.94V1153.09H278.01H279.27H324.2H324.34H369.78H370.53H416.11V1110.46V1106.76V1064.13H370.53Z" fill="#2346FA" stroke="#2346FA" stroke-miterlimit="10"/>
<path d="M370.38 505.93V552.15V552.26V598.38H324.34V552.26V552.15V506.07V505.93V459.74H278.16H278.01H231.83V505.93H185.69V552.15V552.26V598.38H139.66H139.5H93.47H93.33H47.33V552.15H1V598.38V598.49V644.72H47.14V690.8V690.94V737.03V737.13V783.25V783.36V829.48V829.58V875.71V875.81V922.04H93.33H93.47H139.5H139.66H185.69H185.84H231.83H232.02H278.01H278.16H324.2H324.34H370.53V875.81V875.71V829.58V829.48V783.36V783.25V737.13V737.03V690.94V690.8V644.72H416.71V598.49V598.38V552.26V552.15V505.93H370.38Z" fill="#00D9DA" stroke="#00D9DA" stroke-width="2" stroke-miterlimit="10"/>
<path d="M277 413.86H230.67V460.19H277V413.86Z" fill="#D75568"/>
<path d="M230.72 413.86H184.39V460.19H230.72V413.86Z" fill="#FF8B98"/>
<path d="M277 368H230.67V414.33H277V368Z" fill="#FF8B98"/>
<path d="M230.72 368H184.39V414.33H230.72V368Z" fill="#FF8B98"/>
<path d="M277 322.11H230.67V368.44H277V322.11Z" fill="#FF8B98"/>
<path d="M230.72 322.11H184.39V368.44H230.72V322.11Z" fill="#FF8B98"/>
<path d="M185 322.11H138.62V368.44H185V322.11Z" fill="#D75568"/>
<path d="M139.08 322.11H92.75V368.44H139.08V322.11Z" fill="#D75568"/>
<path d="M277 276.24H230.67V322.58H277V276.24Z" fill="#FF8B98"/>
<path d="M230.72 276.24H184.39V322.58H230.72V276.24Z" fill="#FF8B98"/>
<path d="M184.44 276.24H138.11V322.58H184.44V276.24Z" fill="#FF8B98"/>
<path d="M139.08 276.24H92.75V322.58H139.08V276.24Z" fill="#FF8B98"/>
<path d="M277 230.37H230.67V276.7H277V230.37Z" fill="#FF8B98"/>
<path d="M230.72 230.37H184.39V276.7H230.72V230.37Z" fill="#FF8B98"/>
<path d="M184.44 230.37H138.11V276.7H184.44V230.37Z" fill="#FF8B98"/>
<path d="M139.08 230.37H92.75V276.7H139.08V230.37Z" fill="#D75568"/>
<path d="M277 184.5H230.67V230.83H277V184.5Z" fill="#FF8B98"/>
<path d="M230.72 184.5H184.39V230.83H230.72V184.5Z" fill="white"/>
<path d="M230.83 183.15H184.49V229.48H230.83V183.15Z" fill="black"/>
<path d="M93.2101 184.5H46.8701V230.83H93.2101V184.5Z" fill="white"/>
<path d="M230.72 230.37H184.39V276.7H230.72V230.37Z" fill="#FF8B98"/>
<path d="M184.44 184.5H138.11V230.83H184.44V184.5Z" fill="#FF8B98"/>
<path d="M139.08 184.5H92.75V230.83H139.08V184.5Z" fill="#D75568"/>
<path d="M323.24 138.62H276.91V185H323.24V138.62Z" fill="#FF8B98"/>
<path d="M277 138.62H230.67V185H277V138.62Z" fill="#FF8B98"/>
<path d="M323.24 138.62H276.91V185H323.24V138.62Z" fill="#FF8B98"/>
<path d="M230.72 138.62H184.39V185H230.72V138.62Z" fill="#FF8B98"/>
<path d="M184.44 138.62H138.11V185H184.44V138.62Z" fill="#FF8B98"/>
<path d="M139.08 138.62H92.75V185H139.08V138.62Z" fill="#FF8B98"/>
<path d="M93.2101 138.62H46.8701V185H93.2101V138.62Z" fill="#FF8B98"/>
<path d="M139.08 138.62H92.75V185H139.08V138.62Z" fill="#FF8B98"/>
<path d="M277 92.75H230.67V139.08H277V92.75Z" fill="#FF8B98"/>
<path d="M230.72 92.75H184.39V139.08H230.72V92.75Z" fill="#FF8B98"/>
<path d="M184.44 92.75H138.11V139.08H184.44V92.75Z" fill="#FF8B98"/>
<path d="M139.08 92.75H92.75V139.08H139.08V92.75Z" fill="#FF8B98"/>
<path d="M139.08 46.8701H92.75V93.2001H139.08V46.8701Z" fill="#6A07BB"/>
<path d="M93.2101 322.11H46.8701V368.44H93.2101V322.11Z" fill="#FF8B98"/>
<path d="M93.2101 276.24H46.8701V322.58H93.2101V276.24Z" fill="#FF8B98"/>
<path d="M93.2101 230.37H46.8701V276.7H93.2101V230.37Z" fill="#FF8B98"/>
<path d="M91.8595 183.15H45.5195V229.48H91.8595V183.15Z" fill="black"/>
<path d="M93.2101 92.75H46.8701V139.08H93.2101V92.75Z" fill="#FF8B98"/>
<path d="M139.08 322.11H138.62H92.75V368.44H138.62H139.08H184.95V322.11H139.08Z" fill="#D75568" stroke="#D75568" stroke-miterlimit="10"/>
<path d="M230.72 230.37H184.39V276.7H230.72V230.37Z" fill="#FF8B98"/>
<path d="M276.91 184.5V230.37V230.83V276.24V276.7V322.11V322.57V367.99V368.44V413.86H230.67V460.19H276.91H277H323.24V414.32V413.86V368.44V367.99V322.57V322.11V276.7V276.24V230.83V230.37V184.5H276.91Z" fill="#D75568" stroke="#D75568" stroke-miterlimit="10"/>
<path d="M230.72 184.5H184.39V230.83H230.72V184.5Z" fill="white"/>
<path d="M207.43 183.15H184.49V230.37H207.43V183.15Z" fill="black"/>
<path d="M93.2101 184.5H46.8701V230.83H93.2101V184.5Z" fill="white"/>
<path d="M92.75 184.5V230.37V230.83V276.7H139.08V230.83V230.37V184.5H92.75Z" fill="#D75568" stroke="#D75568" stroke-miterlimit="10"/>
<path d="M323.24 138.62H276.91V185H323.24V138.62Z" fill="#FF8B98"/>
<path d="M139.08 138.62H92.75V185H139.08V138.62Z" fill="#FF8B98"/>
<path d="M184.95 459.74V414.32V413.86V367.99H139.08H138.62H93.2099H92.7499H46.8799V413.86V414.32V459.74V460.19V505.61V506.07V551.49V551.94V597.82H47.1399V598.49H93.3299H93.4699H139.5H139.66H185.84V552.26V552.15V506.07V505.93V459.74H184.95Z" fill="#6A07BB" stroke="#6A07BB" stroke-miterlimit="10"/>
<path d="M93.21 1H92.75H46.88V46.87H1V92.75V93.2V139.08H47.33V93.2H93.21V47.33H139.08V1H93.21Z" fill="#3F0071"/>
<path d="M1 230.37V276.24V276.7V322.11V322.57V367.99V368.44V413.86V414.32V459.74V460.19V505.61V505.93V506.07V551.94V552.26H47.33V551.94V506.07V505.93V505.61V460.19V459.74V414.32V413.86V368.44V367.99V322.57V322.11V276.7V276.24V230.37H1Z" fill="#3F0071" stroke="#3F0071" stroke-miterlimit="10"/>
<path d="M277 138.62V92.75H138.11V138.62H92.7501V185H138.11V276.29H93.2101V230.37H46.8701V368.44H92.7501V414.32H184.39V460.19V506.07H230.72V459.74V414.32H277V185H323.24V138.62H277ZM230.67 230.37H184.44V185H230.67V230.37ZM139.08 368H93.2101V322.58H184.39V368H139.08Z" fill="#FF8B98" stroke="#FF8B98" stroke-miterlimit="10"/>
<path d="M68.4595 183.15H45.5195V230.37H68.4595V183.15Z" fill="black"/>
<path d="M369.52 505.93V505.61V460.19V459.74V414.32V413.86V368.44V367.99V322.57V322.11V276.7V276.24V230.83V230.37V184.95V184.5V139.08V138.62V92.75H323.24V46.87H277V1H230.72H230.67H184.44H184.39H138.1V46.87H92.75V92.75H46.88V138.62H1V184.5V184.95V230.83H47.33V184.95H93.21V139.08H139.08V93.2H184.39H184.44H230.67H230.72H276.91V139.08H323.19V184.5V184.95V230.37V230.83V276.24V276.7V322.11V322.57V367.99V368.44V413.86V414.32V459.74V460.19V505.61V506.07V551.49V551.94V597.82H324.2V598.49H370.53V552.26V552.15V505.93H369.52Z" fill="#6A07BB" stroke="#6A07BB" stroke-width="2" stroke-miterlimit="10"/>
</g>
<defs>
<clipPath id="clip0">
<rect width="417.71" height="1476.67" fill="white"/>
</clipPath>
</defs>
</svg>
